Kufam-MediumItalic.ufo
<glyph name="exclam" format="2">
  <advance width="307.3333333333333"/>
  <unicode hex="0021"/>
  <note>
exclam
</note>
  <outline>
    <contour>
      <point x="99.33333333333333" y="213.33333333333334" type="curve"/>
      <point x="189.33333333333334" y="213.33333333333334" type="line"/>
      <point x="202.0" y="250.0"/>
      <point x="221.16666666666666" y="318.6666666666667"/>
      <point x="242.0" y="428.0" type="curve" smooth="yes"/>
      <point x="268.0" y="564.0" type="line" smooth="yes"/>
      <point x="273.3333333333333" y="591.1666666666666"/>
      <point x="289.0" y="675.3333333333334"/>
      <point x="304.0" y="711.3333333333334" type="curve"/>
      <point x="303.3333333333333" y="720.0" type="line"/>
      <point x="184.66666666666666" y="720.0" type="line"/>
      <point x="130.0" y="428.0" type="line" smooth="yes"/>
      <point x="110.83333333333333" y="327.0"/>
      <point x="102.66666666666667" y="266.6666666666667"/>
    </contour>
    <contour>
      <point x="107.0" y="-8.666666666666666" type="curve" smooth="yes"/>
      <point x="154.0" y="-8.666666666666666"/>
      <point x="187.33333333333334" y="33.333333333333336"/>
      <point x="187.33333333333334" y="76.66666666666667" type="curve" smooth="yes"/>
      <point x="187.33333333333334" y="112.0"/>
      <point x="164.16666666666666" y="134.66666666666666"/>
      <point x="126.33333333333333" y="134.66666666666666" type="curve" smooth="yes"/>
      <point x="77.5" y="134.66666666666666"/>
      <point x="46.0" y="92.66666666666667"/>
      <point x="46.0" y="49.333333333333336" type="curve" smooth="yes"/>
      <point x="46.0" y="14.0"/>
      <point x="67.5" y="-8.666666666666666"/>
    </contour>
  </outline>
</glyph>
<glyph name="quotedbl" format="2">
  <advance width="355.3333333333333"/>
  <unicode hex="0022"/>
  <note>
quotedbl
</note>
  <outline>
    <contour>
      <point x="260.6666666666667" y="480.0" type="line"/>
      <point x="348.0" y="480.0" type="line"/>
      <point x="398.0" y="720.0" type="line"/>
      <point x="301.3333333333333" y="720.0" type="line"/>
    </contour>
    <contour>
      <point x="95.33333333333333" y="480.0" type="line"/>
      <point x="182.66666666666666" y="480.0" type="line"/>
      <point x="232.66666666666666" y="720.0" type="line"/>
      <point x="136.0" y="720.0" type="line"/>
    </contour>
  </outline>
</glyph>
<glyph name="numbersign" format="2">
  <advance width="616.0"/>
  <unicode hex="0023"/>
  <note>
numbersign
</note>
  <outline>
    <contour>
      <point x="314.0" y="0.0" type="line"/>
      <point x="398.6666666666667" y="0.0" type="line"/>
      <point x="530.6666666666666" y="720.0" type="line"/>
      <point x="446.0" y="720.0" type="line"/>
    </contour>
    <contour>
      <point x="34.0" y="213.33333333333334" type="line"/>
      <point x="562.0" y="213.33333333333334" type="line"/>
      <point x="562.0" y="292.6666666666667" type="line"/>
      <point x="34.0" y="292.6666666666667" type="line"/>
    </contour>
    <contour>
      <point x="89.33333333333333" y="0.0" type="line"/>
      <point x="174.0" y="0.0" type="line"/>
      <point x="306.0" y="720.0" type="line"/>
      <point x="221.33333333333334" y="720.0" type="line"/>
    </contour>
    <contour>
      <point x="58.0" y="427.3333333333333" type="line"/>
      <point x="586.0" y="427.3333333333333" type="line"/>
      <point x="586.0" y="506.6666666666667" type="line"/>
      <point x="58.0" y="506.6666666666667" type="line"/>
    </contour>
  </outline>
</glyph>
<glyph name="dollar" format="2">
  <advance width="616.0"/>
  <unicode hex="0024"/>
  <note>
dollar
</note>
  <outline>
    <contour>
      <point x="349.3333333333333" y="661.3333333333334" type="line"/>
      <point x="448.0" y="661.3333333333334" type="line"/>
      <point x="486.3333333333333" y="860.0" type="line"/>
      <point x="387.6666666666667" y="860.0" type="line"/>
    </contour>
    <contour>
      <point x="40.666666666666664" y="25.166666666666668" type="line"/>
      <point x="88.0" y="3.5"/>
      <point x="163.83333333333334" y="-12.0"/>
      <point x="245.33333333333334" y="-12.0" type="curve" smooth="yes"/>
      <point x="418.6666666666667" y="-12.0"/>
      <point x="541.3333333333334" y="68.66666666666667"/>
      <point x="541.3333333333334" y="212.0" type="curve" smooth="yes"/>
      <point x="541.3333333333334" y="311.3333333333333"/>
      <point x="474.3333333333333" y="366.8333333333333"/>
      <point x="382.0" y="391.3333333333333" type="curve" smooth="yes"/>
      <point x="324.6666666666667" y="406.6666666666667" type="line" smooth="yes"/>
      <point x="264.6666666666667" y="422.6666666666667"/>
      <point x="231.33333333333334" y="441.3333333333333"/>
      <point x="231.33333333333334" y="507.3333333333333" type="curve" smooth="yes"/>
      <point x="231.33333333333334" y="588.5"/>
      <point x="314.6666666666667" y="635.3333333333334"/>
      <point x="430.6666666666667" y="635.3333333333334" type="curve" smooth="yes"/>
      <point x="494.0" y="635.3333333333334"/>
      <point x="541.5" y="619.5"/>
      <point x="569.3333333333334" y="606.0" type="curve"/>
      <point x="578.0" y="606.0" type="line"/>
      <point x="598.3333333333334" y="710.6666666666666" type="line"/>
      <point x="558.0" y="723.6666666666666"/>
      <point x="495.1666666666667" y="732.0"/>
      <point x="438.0" y="732.0" type="curve" smooth="yes"/>
      <point x="240.66666666666666" y="732.0"/>
      <point x="120.66666666666667" y="639.3333333333334"/>
      <point x="120.66666666666667" y="498.6666666666667" type="curve" smooth="yes"/>
      <point x="120.66666666666667" y="380.0"/>
      <point x="189.83333333333334" y="339.1666666666667"/>
      <point x="286.0" y="313.3333333333333" type="curve" smooth="yes"/>
      <point x="343.3333333333333" y="298.0" type="line" smooth="yes"/>
      <point x="396.6666666666667" y="284.1666666666667"/>
      <point x="427.3333333333333" y="260.3333333333333"/>
      <point x="427.3333333333333" y="204.0" type="curve" smooth="yes"/>
      <point x="427.3333333333333" y="126.66666666666667"/>
      <point x="355.6666666666667" y="85.33333333333333"/>
      <point x="253.33333333333334" y="85.33333333333333" type="curve" smooth="yes"/>
      <point x="173.33333333333334" y="85.33333333333333"/>
      <point x="110.0" y="106.66666666666667"/>
      <point x="70.0" y="131.33333333333334" type="curve"/>
      <point x="61.333333333333336" y="131.33333333333334" type="line"/>
    </contour>
    <contour>
      <point x="229.0" y="38.666666666666664" type="line"/>
      <point x="190.66666666666666" y="-160.0" type="line"/>
      <point x="289.3333333333333" y="-160.0" type="line"/>
      <point x="327.6666666666667" y="38.666666666666664" type="line"/>
    </contour>
  </outline>
</glyph>
<glyph name="ampersand" format="2">
  <advance width="654.0"/>
  <unicode hex="0026"/>
  <note>
ampersand
</note>
  <outline>
    <contour>
      <point x="35.333333333333336" y="164.0" type="curve" smooth="yes"/>
      <point x="35.333333333333336" y="28.0"/>
      <point x="147.33333333333334" y="-12.0"/>
      <point x="278.0" y="-12.0" type="curve" smooth="yes"/>
      <point x="353.3333333333333" y="-12.0"/>
      <point x="428.0" y="4.0"/>
      <point x="484.0" y="24.666666666666668" type="curve"/>
      <point x="488.0" y="32.666666666666664" type="line"/>
      <point x="488.6666666666667" y="82.66666666666667"/>
      <point x="500.1666666666667" y="156.33333333333334"/>
      <point x="508.6666666666667" y="199.66666666666666" type="curve" smooth="yes"/>
      <point x="527.6666666666666" y="297.3333333333333" type="line"/>
      <point x="605.3333333333334" y="297.3333333333333" type="line"/>
      <point x="623.3333333333334" y="392.0" type="line"/>
      <point x="318.0" y="392.0" type="line" smooth="yes"/>
      <point x="247.0" y="392.0"/>
      <point x="198.66666666666666" y="416.6666666666667"/>
      <point x="198.66666666666666" y="488.0" type="curve" smooth="yes"/>
      <point x="198.66666666666666" y="586.0"/>
      <point x="293.3333333333333" y="630.6666666666666"/>
      <point x="406.0" y="630.6666666666666" type="curve" smooth="yes"/>
      <point x="476.0" y="630.6666666666666"/>
      <point x="537.3333333333334" y="614.0"/>
      <point x="567.3333333333334" y="597.3333333333334" type="curve"/>
      <point x="576.0" y="597.3333333333334" type="line"/>
      <point x="596.6666666666666" y="703.3333333333334" type="line"/>
      <point x="562.3333333333334" y="719.6666666666666"/>
      <point x="476.6666666666667" y="732.0"/>
      <point x="414.6666666666667" y="732.0" type="curve" smooth="yes"/>
      <point x="215.33333333333334" y="732.0"/>
      <point x="83.33333333333333" y="646.0"/>
      <point x="83.33333333333333" y="482.6666666666667" type="curve" smooth="yes"/>
      <point x="83.33333333333333" y="403.3333333333333"/>
      <point x="125.33333333333333" y="358.0"/>
      <point x="183.33333333333334" y="329.3333333333333" type="curve"/>
      <point x="188.0" y="358.0" type="line"/>
      <point x="98.66666666666667" y="327.3333333333333"/>
      <point x="35.333333333333336" y="264.0"/>
    </contour>
    <contour>
      <point x="288.0" y="80.66666666666667" type="curve" smooth="yes"/>
      <point x="206.66666666666666" y="80.66666666666667"/>
      <point x="146.66666666666666" y="100.0"/>
      <point x="146.66666666666666" y="174.0" type="curve" smooth="yes"/>
      <point x="146.66666666666666" y="253.33333333333334"/>
      <point x="210.0" y="297.3333333333333"/>
      <point x="307.3333333333333" y="297.3333333333333" type="curve" smooth="yes"/>
      <point x="417.3333333333333" y="297.3333333333333" type="line"/>
      <point x="390.6666666666667" y="158.66666666666666" type="line" smooth="yes"/>
      <point x="385.0" y="130.16666666666666"/>
      <point x="381.3333333333333" y="98.16666666666667"/>
      <point x="383.3333333333333" y="71.33333333333333" type="curve"/>
      <point x="400.6666666666667" y="102.66666666666667" type="line"/>
      <point x="364.0" y="86.66666666666667"/>
      <point x="333.6666666666667" y="80.66666666666667"/>
    </contour>
  </outline>
</glyph>
<glyph name="quotesingle" format="2">
  <advance width="190.0"/>
  <unicode hex="0027"/>
  <note>
quotesingle
</note>
  <outline>
    <contour>
      <point x="136.0" y="720.0" type="line"/>
      <point x="95.33333333333333" y="480.0" type="line"/>
      <point x="182.66666666666666" y="480.0" type="line"/>
      <point x="232.66666666666666" y="720.0" type="line"/>
    </contour>
  </outline>
</glyph>
<glyph name="parenleft" format="2">
  <advance width="362.0"/>
  <unicode hex="0028"/>
  <note>
parenleft
</note>
  <outline>
    <contour>
      <point x="157.33333333333334" y="-88.0" type="curve"/>
      <point x="263.3333333333333" y="-88.0" type="line"/>
      <point x="263.3333333333333" y="-83.33333333333333" type="line"/>
      <point x="208.66666666666666" y="-7.666666666666667"/>
      <point x="177.33333333333334" y="83.66666666666667"/>
      <point x="177.33333333333334" y="198.66666666666666" type="curve" smooth="yes"/>
      <point x="177.33333333333334" y="421.0"/>
      <point x="275.3333333333333" y="613.3333333333334"/>
      <point x="427.3333333333333" y="755.3333333333334" type="curve"/>
      <point x="427.3333333333333" y="760.0" type="line"/>
      <point x="312.6666666666667" y="760.0" type="line"/>
      <point x="158.0" y="614.0"/>
      <point x="74.66666666666667" y="414.3333333333333"/>
      <point x="74.66666666666667" y="198.66666666666666" type="curve" smooth="yes"/>
      <point x="74.66666666666667" y="81.16666666666667"/>
      <point x="110.83333333333333" y="-28.333333333333332"/>
    </contour>
  </outline>
</glyph>
<glyph name="parenright" format="2">
  <advance width="362.0"/>
  <unicode hex="0029"/>
  <note>
parenright
</note>
  <outline>
    <contour>
      <point x="-40.5" y="-83.33333333333333" type="curve"/>
      <point x="-40.5" y="-88.0" type="line"/>
      <point x="74.16666666666667" y="-88.0" type="line"/>
      <point x="228.83333333333334" y="58.0"/>
      <point x="312.1666666666667" y="257.6666666666667"/>
      <point x="312.1666666666667" y="473.3333333333333" type="curve" smooth="yes"/>
      <point x="312.1666666666667" y="590.8333333333334"/>
      <point x="276.0" y="700.3333333333334"/>
      <point x="229.5" y="760.0" type="curve"/>
      <point x="123.5" y="760.0" type="line"/>
      <point x="123.5" y="755.3333333333334" type="line"/>
      <point x="178.16666666666666" y="679.6666666666666"/>
      <point x="209.5" y="588.3333333333334"/>
      <point x="209.5" y="473.3333333333333" type="curve" smooth="yes"/>
      <point x="209.5" y="251.0"/>
      <point x="111.5" y="58.666666666666664"/>
    </contour>
  </outline>
</glyph>
<glyph name="asterisk" format="2">
  <advance width="544.0"/>
  <unicode hex="002A"/>
  <note>
asterisk
</note>
  <outline>
    <contour>
      <point x="227.0" y="276.0" type="line"/>
      <point x="320.3333333333333" y="276.0" type="line"/>
      <point x="347.0" y="498.0" type="line"/>
      <point x="405.6666666666667" y="720.0" type="line"/>
      <point x="312.3333333333333" y="720.0" type="line"/>
      <point x="281.6666666666667" y="498.0" type="line"/>
    </contour>
    <contour>
      <point x="305.0" y="468.6666666666667" type="line"/>
      <point x="466.3333333333333" y="336.0" type="line"/>
      <point x="519.6666666666666" y="411.3333333333333" type="line"/>
      <point x="327.0" y="524.0" type="line"/>
      <point x="163.66666666666666" y="656.6666666666666" type="line"/>
      <point x="110.33333333333333" y="581.3333333333334" type="line"/>
    </contour>
    <contour>
      <point x="116.33333333333333" y="345.3333333333333" type="line"/>
      <point x="319.0" y="468.0" type="line"/>
      <point x="551.0" y="568.0" type="line"/>
      <point x="513.0" y="650.6666666666666" type="line"/>
      <point x="310.3333333333333" y="524.6666666666666" type="line"/>
      <point x="78.33333333333333" y="428.0" type="line"/>
    </contour>
  </outline>
</glyph>
<glyph name="plus" format="2">
  <advance width="616.0"/>
  <unicode hex="002B"/>
  <note>
plus
</note>
  <outline>
    <contour>
      <point x="266.0" y="72.0" type="line"/>
      <point x="354.0" y="72.0" type="line"/>
      <point x="354.0" y="560.0" type="line"/>
      <point x="266.0" y="560.0" type="line"/>
    </contour>
    <contour>
      <point x="66.0" y="272.0" type="line"/>
      <point x="554.0" y="272.0" type="line"/>
      <point x="554.0" y="360.0" type="line"/>
      <point x="66.0" y="360.0" type="line"/>
    </contour>
  </outline>
</glyph>
<glyph name="comma" format="2">
  <advance width="280.6666666666667"/>
  <unicode hex="002C"/>
  <note>
comma
</note>
  <outline>
    <contour>
      <point x="63.333333333333336" y="-9.333333333333334" type="curve"/>
      <point x="-40.0" y="-148.66666666666666" type="line"/>
      <point x="-40.0" y="-156.66666666666666" type="line"/>
      <point x="48.0" y="-156.66666666666666" type="line"/>
      <point x="130.66666666666666" y="-35.333333333333336" type="line" smooth="yes"/>
      <point x="152.33333333333334" y="-3.333333333333333"/>
      <point x="174.0" y="32.333333333333336"/>
      <point x="174.0" y="69.33333333333333" type="curve" smooth="yes"/>
      <point x="174.0" y="108.66666666666667"/>
      <point x="150.0" y="134.66666666666666"/>
      <point x="110.66666666666667" y="134.66666666666666" type="curve" smooth="yes"/>
      <point x="64.33333333333333" y="134.66666666666666"/>
      <point x="29.333333333333336" y="95.66666666666667"/>
      <point x="29.333333333333336" y="50.0" type="curve" smooth="yes"/>
      <point x="29.333333333333336" y="13.5"/>
      <point x="47.166666666666664" y="-1.5"/>
    </contour>
  </outline>
</glyph>
<glyph name="hyphen" format="2">
  <advance width="481.3333333333333"/>
  <unicode hex="002D"/>
  <note>
hyphen
</note>
  <outline>
    <contour>
      <point x="93.33333333333333" y="379.3333333333333" type="line"/>
      <point x="74.66666666666667" y="278.6666666666667" type="line"/>
      <point x="418.6666666666667" y="278.6666666666667" type="line"/>
      <point x="437.3333333333333" y="379.3333333333333" type="line"/>
    </contour>
  </outline>
</glyph>
<glyph name="period" format="2">
  <advance width="280.6666666666667"/>
  <unicode hex="002E"/>
  <note>
period
</note>
  <outline>
    <contour>
      <point x="93.66666666666667" y="-8.666666666666666" type="curve" smooth="yes"/>
      <point x="140.66666666666666" y="-8.666666666666666"/>
      <point x="174.0" y="33.333333333333336"/>
      <point x="174.0" y="76.66666666666667" type="curve" smooth="yes"/>
      <point x="174.0" y="112.0"/>
      <point x="150.83333333333334" y="134.66666666666666"/>
      <point x="113.0" y="134.66666666666666" type="curve" smooth="yes"/>
      <point x="64.16666666666667" y="134.66666666666666"/>
      <point x="32.666666666666664" y="92.66666666666667"/>
      <point x="32.666666666666664" y="49.333333333333336" type="curve" smooth="yes"/>
      <point x="32.666666666666664" y="14.0"/>
      <point x="54.166666666666664" y="-8.666666666666666"/>
    </contour>
  </outline>
</glyph>
<glyph name="slash" format="2">
  <advance width="528.0"/>
  <unicode hex="002F"/>
  <note>
slash
</note>
  <outline>
    <contour>
      <point x="-29.333333333333332" y="0.0" type="line"/>
      <point x="74.66666666666666" y="0.0" type="line"/>
      <point x="597.3333333333334" y="720.0" type="line"/>
      <point x="493.3333333333333" y="720.0" type="line"/>
    </contour>
  </outline>
</glyph>
<glyph name="zero" format="2">
  <advance width="616.0"/>
  <unicode hex="0030"/>
  <note>
zero
</note>
  <outline>
    <contour>
      <point x="274.0" y="-12.0" type="curve" smooth="yes"/>
      <point x="518.6666666666666" y="-12.0"/>
      <point x="604.6666666666666" y="288.3333333333333"/>
      <point x="604.6666666666666" y="478.6666666666667" type="curve" smooth="yes"/>
      <point x="604.6666666666666" y="633.3333333333334"/>
      <point x="531.3333333333334" y="732.0"/>
      <point x="382.0" y="732.0" type="curve" smooth="yes"/>
      <point x="137.33333333333334" y="732.0"/>
      <point x="51.333333333333336" y="431.6666666666667"/>
      <point x="51.333333333333336" y="241.33333333333334" type="curve" smooth="yes"/>
      <point x="51.333333333333336" y="86.66666666666667"/>
      <point x="124.66666666666667" y="-12.0"/>
    </contour>
    <contour>
      <point x="278.6666666666667" y="85.33333333333333" type="curve" smooth="yes"/>
      <point x="204.66666666666666" y="85.33333333333333"/>
      <point x="164.66666666666666" y="134.66666666666666"/>
      <point x="164.66666666666666" y="238.0" type="curve" smooth="yes"/>
      <point x="164.66666666666666" y="366.1666666666667"/>
      <point x="218.0" y="634.6666666666666"/>
      <point x="377.3333333333333" y="634.6666666666666" type="curve" smooth="yes"/>
      <point x="451.3333333333333" y="634.6666666666666"/>
      <point x="491.3333333333333" y="585.3333333333334"/>
      <point x="491.3333333333333" y="482.0" type="curve" smooth="yes"/>
      <point x="491.3333333333333" y="353.8333333333333"/>
      <point x="441.3333333333333" y="85.33333333333333"/>
    </contour>
  </outline>
</glyph>
<glyph name="one" format="2">
  <advance width="616.0"/>
  <unicode hex="0031"/>
  <note>
one
</note>
  <outline>
    <contour>
      <point x="216.66666666666666" y="10.0" type="line"/>
      <point x="332.0" y="10.0" type="line"/>
      <point x="434.3333333333333" y="538.0" type="line" smooth="yes"/>
      <point x="442.3333333333333" y="578.0"/>
      <point x="460.1666666666667" y="668.0"/>
      <point x="472.6666666666667" y="704.0" type="curve"/>
      <point x="472.6666666666667" y="716.0" type="line"/>
      <point x="451.6666666666667" y="721.6666666666666"/>
      <point x="413.3333333333333" y="728.0"/>
      <point x="360.6666666666667" y="728.0" type="curve" smooth="yes"/>
      <point x="285.3333333333333" y="728.0"/>
      <point x="199.33333333333334" y="720.3333333333334"/>
      <point x="166.5" y="709.3333333333334" type="curve"/>
      <point x="151.33333333333334" y="625.3333333333334" type="line"/>
      <point x="341.1666666666667" y="625.3333333333334" type="line"/>
      <point x="333.8333333333333" y="609.3333333333334"/>
      <point x="323.0" y="558.6666666666666"/>
      <point x="318.0" y="534.6666666666666" type="curve" smooth="yes"/>
    </contour>
    <contour>
      <point x="20.0" y="0.0" type="line"/>
      <point x="510.6666666666667" y="0.0" type="line"/>
      <point x="529.6666666666666" y="99.33333333333333" type="line"/>
      <point x="39.0" y="99.33333333333333" type="line"/>
    </contour>
  </outline>
</glyph>
<glyph name="two" format="2">
  <advance width="616.0"/>
  <unicode hex="0032"/>
  <note>
two
</note>
  <outline>
    <contour>
      <point x="20.0" y="0.0" type="curve"/>
      <point x="22.666666666666668" y="0.0" type="line"/>
      <point x="32.0" y="0.0" type="line"/>
      <point x="133.0" y="70.66666666666667" type="line"/>
      <point x="132.0" y="73.66666666666667"/>
      <point x="130.66666666666666" y="84.83333333333333"/>
      <point x="130.66666666666666" y="94.0" type="curve" smooth="yes"/>
      <point x="130.66666666666666" y="167.5"/>
      <point x="184.5" y="220.5"/>
      <point x="291.3333333333333" y="248.0" type="curve" smooth="yes"/>
      <point x="338.0" y="260.0" type="line" smooth="yes"/>
      <point x="482.3333333333333" y="297.6666666666667"/>
      <point x="587.3333333333334" y="370.0"/>
      <point x="587.3333333333334" y="528.0" type="curve" smooth="yes"/>
      <point x="587.3333333333334" y="638.6666666666666"/>
      <point x="516.6666666666666" y="732.0"/>
      <point x="333.3333333333333" y="732.0" type="curve" smooth="yes"/>
      <point x="274.0" y="732.0"/>
      <point x="214.5" y="720.0"/>
      <point x="165.66666666666666" y="700.0" type="curve"/>
      <point x="146.66666666666666" y="598.0" type="line"/>
      <point x="155.33333333333334" y="598.0" type="line"/>
      <point x="200.66666666666666" y="617.3333333333334"/>
      <point x="254.0" y="634.0"/>
      <point x="320.6666666666667" y="634.0" type="curve" smooth="yes"/>
      <point x="421.5" y="634.0"/>
      <point x="473.3333333333333" y="594.5"/>
      <point x="473.3333333333333" y="524.6666666666666" type="curve" smooth="yes"/>
      <point x="473.3333333333333" y="426.0"/>
      <point x="415.3333333333333" y="380.3333333333333"/>
      <point x="317.3333333333333" y="355.3333333333333" type="curve" smooth="yes"/>
      <point x="270.6666666666667" y="343.3333333333333" type="line" smooth="yes"/>
      <point x="88.16666666666667" y="296.3333333333333"/>
      <point x="16.0" y="191.33333333333334"/>
      <point x="16.0" y="40.0" type="curve" smooth="yes"/>
      <point x="16.0" y="20.5"/>
      <point x="18.0" y="8.0"/>
    </contour>
    <contour>
      <point x="32.0" y="0.0" type="line"/>
      <point x="502.6666666666667" y="0.0" type="line"/>
      <point x="521.3333333333334" y="98.0" type="line"/>
      <point x="50.666666666666664" y="98.0" type="line"/>
    </contour>
  </outline>
</glyph>
<glyph name="three" format="2">
  <advance width="616.0"/>
  <unicode hex="0033"/>
  <note>
three
</note>
  <outline>
    <contour>
      <point x="200.66666666666666" y="382.0" type="line"/>
      <point x="298.0" y="359.3333333333333" type="line"/>
      <point x="536.0" y="577.3333333333334" type="line" smooth="yes"/>
      <point x="580.0" y="618.1666666666666"/>
      <point x="599.3333333333334" y="657.6666666666666"/>
      <point x="598.0" y="708.0" type="curve"/>
      <point x="590.0" y="720.0" type="line"/>
      <point x="551.3333333333334" y="720.0" type="line"/>
    </contour>
    <contour>
      <point x="146.66666666666666" y="622.6666666666666" type="line"/>
      <point x="541.3333333333334" y="622.6666666666666" type="line"/>
      <point x="568.0" y="720.0" type="line"/>
      <point x="165.0" y="720.0" type="line"/>
    </contour>
    <contour>
      <point x="28.666666666666668" y="30.0" type="line"/>
      <point x="67.33333333333333" y="7.333333333333333"/>
      <point x="146.66666666666666" y="-12.0"/>
      <point x="224.66666666666666" y="-12.0" type="curve" smooth="yes"/>
      <point x="418.5" y="-12.0"/>
      <point x="539.3333333333334" y="85.33333333333333"/>
      <point x="539.3333333333334" y="226.0" type="curve" smooth="yes"/>
      <point x="539.3333333333334" y="348.6666666666667"/>
      <point x="459.3333333333333" y="416.0"/>
      <point x="315.3333333333333" y="418.0" type="curve"/>
      <point x="200.66666666666666" y="382.0" type="line"/>
      <point x="210.0" y="336.6666666666667" type="line"/>
      <point x="286.0" y="336.6666666666667" type="line" smooth="yes"/>
      <point x="380.0" y="336.6666666666667"/>
      <point x="428.0" y="299.3333333333333"/>
      <point x="428.0" y="225.33333333333334" type="curve" smooth="yes"/>
      <point x="428.0" y="152.0"/>
      <point x="374.6666666666667" y="84.0"/>
      <point x="229.33333333333334" y="84.0" type="curve" smooth="yes"/>
      <point x="150.66666666666666" y="84.0"/>
      <point x="90.0" y="108.66666666666667"/>
      <point x="56.0" y="131.33333333333334" type="curve"/>
      <point x="47.333333333333336" y="131.33333333333334" type="line"/>
    </contour>
  </outline>
</glyph>
<glyph name="four" format="2">
  <advance width="616.0"/>
  <unicode hex="0034"/>
  <note>
four
</note>
  <outline>
    <contour>
      <point x="20.666666666666668" y="188.0" type="line"/>
      <point x="103.66666666666667" y="188.0" type="line"/>
      <point x="246.33333333333334" y="473.3333333333333" type="line" smooth="yes"/>
      <point x="304.1666666666667" y="587.6666666666666"/>
      <point x="353.3333333333333" y="628.6666666666666"/>
      <point x="441.3333333333333" y="628.6666666666666" type="curve" smooth="yes"/>
      <point x="472.6666666666667" y="628.6666666666666"/>
      <point x="503.0" y="623.0"/>
      <point x="521.3333333333334" y="619.3333333333334" type="curve"/>
      <point x="595.3333333333334" y="711.3333333333334" type="line"/>
      <point x="566.6666666666666" y="721.3333333333334"/>
      <point x="521.0" y="728.0"/>
      <point x="469.3333333333333" y="728.0" type="curve" smooth="yes"/>
      <point x="312.6666666666667" y="728.0"/>
      <point x="224.33333333333334" y="652.8333333333334"/>
      <point x="142.0" y="486.6666666666667" type="curve" smooth="yes"/>
      <point x="37.0" y="276.0" type="line"/>
    </contour>
    <contour>
      <point x="338.6666666666667" y="0.0" type="line"/>
      <point x="451.3333333333333" y="0.0" type="line"/>
      <point x="558.6666666666666" y="555.3333333333334" type="line" smooth="yes"/>
      <point x="566.6666666666666" y="595.3333333333334"/>
      <point x="579.5" y="660.0"/>
      <point x="595.3333333333334" y="699.3333333333334" type="curve"/>
      <point x="595.3333333333334" y="711.3333333333334" type="line"/>
      <point x="490.6666666666667" y="711.3333333333334" type="line"/>
      <point x="490.6666666666667" y="684.6666666666666" type="line"/>
      <point x="475.0" y="664.6666666666666"/>
      <point x="460.1666666666667" y="625.3333333333334"/>
      <point x="451.3333333333333" y="581.3333333333334" type="curve" smooth="yes"/>
    </contour>
    <contour>
      <point x="55.33333333333333" y="188.0" type="line"/>
      <point x="590.6666666666666" y="188.0" type="line"/>
      <point x="609.3333333333334" y="286.0" type="line"/>
      <point x="74.0" y="286.0" type="line"/>
    </contour>
  </outline>
</glyph>
<glyph name="five" format="2">
  <advance width="616.0"/>
  <unicode hex="0035"/>
  <note>
five
</note>
  <outline>
    <contour>
      <point x="186.0" y="622.6666666666666" type="line"/>
      <point x="590.0" y="622.6666666666666" type="line"/>
      <point x="608.6666666666666" y="720.0" type="line"/>
      <point x="318.6666666666667" y="720.0" type="line" smooth="yes"/>
      <point x="251.33333333333334" y="720.0"/>
      <point x="208.66666666666666" y="716.0"/>
      <point x="176.0" y="708.8333333333334" type="curve"/>
    </contour>
    <contour>
      <point x="106.66666666666667" y="325.3333333333333" type="line"/>
      <point x="232.0" y="395.3333333333333" type="line"/>
      <point x="265.1666666666667" y="572.0" type="line" smooth="yes"/>
      <point x="273.0" y="613.6666666666666"/>
      <point x="270.0" y="654.6666666666666"/>
      <point x="269.3333333333333" y="682.6666666666666" type="curve"/>
      <point x="269.3333333333333" y="708.0" type="line"/>
      <point x="176.0" y="708.8333333333334" type="line"/>
      <point x="172.0" y="699.3333333333334" type="line"/>
      <point x="171.33333333333334" y="660.5"/>
      <point x="156.0" y="578.0"/>
      <point x="148.0" y="538.0" type="curve" smooth="yes"/>
    </contour>
    <contour>
      <point x="24.0" y="30.666666666666668" type="line"/>
      <point x="62.666666666666664" y="8.0"/>
      <point x="144.0" y="-12.0"/>
      <point x="223.33333333333334" y="-12.0" type="curve" smooth="yes"/>
      <point x="434.6666666666667" y="-12.0"/>
      <point x="546.0" y="90.66666666666667"/>
      <point x="546.0" y="230.66666666666666" type="curve" smooth="yes"/>
      <point x="546.0" y="352.6666666666667"/>
      <point x="470.0" y="437.3333333333333"/>
      <point x="309.3333333333333" y="437.3333333333333" type="curve" smooth="yes"/>
      <point x="226.0" y="437.3333333333333"/>
      <point x="173.66666666666666" y="413.3333333333333"/>
      <point x="134.0" y="398.0" type="curve"/>
      <point x="106.66666666666667" y="325.3333333333333" type="line"/>
      <point x="111.33333333333333" y="321.3333333333333" type="line"/>
      <point x="150.83333333333334" y="332.6666666666667"/>
      <point x="208.0" y="347.3333333333333"/>
      <point x="280.0" y="347.3333333333333" type="curve" smooth="yes"/>
      <point x="389.3333333333333" y="347.3333333333333"/>
      <point x="431.3333333333333" y="303.3333333333333"/>
      <point x="431.3333333333333" y="230.0" type="curve" smooth="yes"/>
      <point x="431.3333333333333" y="153.33333333333334"/>
      <point x="375.3333333333333" y="85.33333333333333"/>
      <point x="228.0" y="85.33333333333333" type="curve" smooth="yes"/>
      <point x="148.66666666666666" y="85.33333333333333"/>
      <point x="86.66666666666667" y="108.66666666666667"/>
      <point x="51.333333333333336" y="132.0" type="curve"/>
      <point x="42.666666666666664" y="132.0" type="line"/>
    </contour>
  </outline>
</glyph>
<glyph name="six" format="2">
  <advance width="616.0"/>
  <unicode hex="0036"/>
  <note>
six
</note>
  <outline>
    <contour>
      <point x="299.3333333333333" y="-12.0" type="curve" smooth="yes"/>
      <point x="463.3333333333333" y="-12.0"/>
      <point x="568.6666666666666" y="105.0"/>
      <point x="568.6666666666666" y="254.66666666666666" type="curve" smooth="yes"/>
      <point x="568.6666666666666" y="395.3333333333333"/>
      <point x="490.3333333333333" y="468.6666666666667"/>
      <point x="353.3333333333333" y="468.6666666666667" type="curve" smooth="yes"/>
      <point x="270.0" y="468.6666666666667"/>
      <point x="216.0" y="436.0"/>
      <point x="170.33333333333334" y="390.6666666666667" type="curve"/>
      <point x="122.0" y="291.3333333333333" type="line"/>
      <point x="150.66666666666666" y="291.3333333333333" type="line"/>
      <point x="193.66666666666666" y="341.3333333333333"/>
      <point x="251.0" y="377.3333333333333"/>
      <point x="324.3333333333333" y="377.3333333333333" type="curve" smooth="yes"/>
      <point x="409.6666666666667" y="377.3333333333333"/>
      <point x="458.6666666666667" y="332.6666666666667"/>
      <point x="458.6666666666667" y="248.0" type="curve" smooth="yes"/>
      <point x="458.6666666666667" y="169.33333333333334"/>
      <point x="412.3333333333333" y="80.66666666666667"/>
      <point x="304.0" y="80.66666666666667" type="curve" smooth="yes"/>
      <point x="209.66666666666666" y="80.66666666666667"/>
      <point x="164.66666666666666" y="137.33333333333334"/>
      <point x="164.66666666666666" y="249.66666666666666" type="curve" smooth="yes"/>
      <point x="164.66666666666666" y="402.1666666666667"/>
      <point x="218.66666666666666" y="634.6666666666666"/>
      <point x="445.6666666666667" y="634.6666666666666" type="curve" smooth="yes"/>
      <point x="502.3333333333333" y="634.6666666666666"/>
      <point x="542.3333333333334" y="623.3333333333334"/>
      <point x="567.3333333333334" y="612.0" type="curve"/>
      <point x="576.0" y="612.0" type="line"/>
      <point x="596.3333333333334" y="713.3333333333334" type="line"/>
      <point x="566.0" y="724.6666666666666"/>
      <point x="513.3333333333334" y="732.0"/>
      <point x="460.0" y="732.0" type="curve" smooth="yes"/>
      <point x="161.0" y="732.0"/>
      <point x="51.333333333333336" y="487.0"/>
      <point x="51.333333333333336" y="251.66666666666666" type="curve" smooth="yes"/>
      <point x="51.333333333333336" y="91.66666666666667"/>
      <point x="133.66666666666666" y="-12.0"/>
    </contour>
  </outline>
</glyph>
<glyph name="seven" format="2">
  <advance width="616.0"/>
  <unicode hex="0037"/>
  <note>
seven
</note>
  <outline>
    <contour>
      <point x="99.66666666666667" y="0.0" type="line"/>
      <point x="219.66666666666666" y="0.0" type="line"/>
      <point x="584.3333333333334" y="556.0" type="line" smooth="yes"/>
      <point x="615.3333333333334" y="602.8333333333334"/>
      <point x="638.6666666666666" y="648.6666666666666"/>
      <point x="638.6666666666666" y="695.5" type="curve" smooth="yes"/>
      <point x="638.6666666666666" y="699.5"/>
      <point x="638.5" y="703.3333333333334"/>
      <point x="638.3333333333334" y="708.0" type="curve"/>
      <point x="626.3333333333334" y="720.0" type="line"/>
      <point x="546.3333333333334" y="720.0" type="line"/>
      <point x="546.3333333333334" y="664.6666666666666" type="line"/>
      <point x="99.66666666666667" y="8.666666666666666" type="line"/>
    </contour>
    <contour>
      <point x="144.33333333333334" y="621.3333333333334" type="line"/>
      <point x="565.0" y="621.3333333333334" type="line"/>
      <point x="591.6666666666666" y="720.0" type="line"/>
      <point x="163.0" y="720.0" type="line"/>
    </contour>
  </outline>
</glyph>
<glyph name="eight" format="2">
  <advance width="616.0"/>
  <unicode hex="0038"/>
  <note>
eight
</note>
  <outline>
    <contour>
      <point x="32.0" y="171.33333333333334" type="curve" smooth="yes"/>
      <point x="32.0" y="68.0"/>
      <point x="110.0" y="-12.0"/>
      <point x="276.6666666666667" y="-12.0" type="curve" smooth="yes"/>
      <point x="431.3333333333333" y="-12.0"/>
      <point x="557.3333333333334" y="66.66666666666667"/>
      <point x="557.3333333333334" y="206.0" type="curve" smooth="yes"/>
      <point x="557.3333333333334" y="312.6666666666667"/>
      <point x="470.8333333333333" y="365.1666666666667"/>
      <point x="377.3333333333333" y="403.3333333333333" type="curve" smooth="yes"/>
      <point x="336.6666666666667" y="420.0" type="line" smooth="yes"/>
      <point x="273.6666666666667" y="445.6666666666667"/>
      <point x="230.66666666666666" y="468.0"/>
      <point x="230.66666666666666" y="531.3333333333334" type="curve" smooth="yes"/>
      <point x="230.66666666666666" y="592.6666666666666"/>
      <point x="282.6666666666667" y="640.6666666666666"/>
      <point x="371.3333333333333" y="640.6666666666666" type="curve" smooth="yes"/>
      <point x="452.8333333333333" y="640.6666666666666"/>
      <point x="494.0" y="606.6666666666666"/>
      <point x="494.0" y="540.0" type="curve" smooth="yes"/>
      <point x="494.0" y="463.6666666666667"/>
      <point x="423.6666666666667" y="411.8333333333333"/>
      <point x="375.3333333333333" y="391.3333333333333" type="curve"/>
      <point x="423.6666666666667" y="333.1666666666667" type="line"/>
      <point x="513.0" y="376.5"/>
      <point x="602.6666666666666" y="440.6666666666667"/>
      <point x="602.6666666666666" y="558.0" type="curve" smooth="yes"/>
      <point x="602.6666666666666" y="651.3333333333334"/>
      <point x="530.6666666666666" y="732.0"/>
      <point x="380.0" y="732.0" type="curve" smooth="yes"/>
      <point x="198.66666666666666" y="732.0"/>
      <point x="119.0" y="626.8333333333334"/>
      <point x="119.0" y="520.0" type="curve" smooth="yes"/>
      <point x="119.0" y="424.0"/>
      <point x="188.66666666666666" y="374.0"/>
      <point x="270.0" y="340.6666666666667" type="curve" smooth="yes"/>
      <point x="310.6666666666667" y="324.0" type="line" smooth="yes"/>
      <point x="375.3333333333333" y="297.5"/>
      <point x="443.3333333333333" y="273.3333333333333"/>
      <point x="443.3333333333333" y="201.33333333333334" type="curve" smooth="yes"/>
      <point x="443.3333333333333" y="127.5"/>
      <point x="376.5" y="79.33333333333333"/>
      <point x="281.3333333333333" y="79.33333333333333" type="curve" smooth="yes"/>
      <point x="191.33333333333334" y="79.33333333333333"/>
      <point x="140.66666666666666" y="117.66666666666667"/>
      <point x="140.66666666666666" y="184.0" type="curve" smooth="yes"/>
      <point x="140.66666666666666" y="272.8333333333333"/>
      <point x="230.0" y="328.1666666666667"/>
      <point x="318.0" y="348.6666666666667" type="curve"/>
      <point x="268.0" y="412.0" type="line"/>
      <point x="141.33333333333334" y="375.3333333333333"/>
      <point x="32.0" y="293.8333333333333"/>
    </contour>
  </outline>
</glyph>
<glyph name="nine" format="2">
  <advance width="616.0"/>
  <unicode hex="0039"/>
  <note>
nine
</note>
  <outline>
    <contour>
      <point x="196.0" y="-12.0" type="curve" smooth="yes"/>
      <point x="495.0" y="-12.0"/>
      <point x="604.6666666666666" y="233.0"/>
      <point x="604.6666666666666" y="468.3333333333333" type="curve" smooth="yes"/>
      <point x="604.6666666666666" y="628.3333333333334"/>
      <point x="522.3333333333334" y="732.0"/>
      <point x="356.6666666666667" y="732.0" type="curve" smooth="yes"/>
      <point x="192.66666666666666" y="732.0"/>
      <point x="87.33333333333333" y="615.0"/>
      <point x="87.33333333333333" y="465.3333333333333" type="curve" smooth="yes"/>
      <point x="87.33333333333333" y="324.6666666666667"/>
      <point x="165.66666666666666" y="251.33333333333334"/>
      <point x="302.6666666666667" y="251.33333333333334" type="curve" smooth="yes"/>
      <point x="386.0" y="251.33333333333334"/>
      <point x="440.0" y="284.0"/>
      <point x="485.6666666666667" y="329.3333333333333" type="curve"/>
      <point x="534.0" y="428.6666666666667" type="line"/>
      <point x="505.3333333333333" y="428.6666666666667" type="line"/>
      <point x="462.3333333333333" y="378.6666666666667"/>
      <point x="405.0" y="342.6666666666667"/>
      <point x="331.6666666666667" y="342.6666666666667" type="curve" smooth="yes"/>
      <point x="246.33333333333334" y="342.6666666666667"/>
      <point x="197.33333333333334" y="387.3333333333333"/>
      <point x="197.33333333333334" y="472.0" type="curve" smooth="yes"/>
      <point x="197.33333333333334" y="550.6666666666666"/>
      <point x="243.66666666666666" y="639.3333333333334"/>
      <point x="352.0" y="639.3333333333334" type="curve" smooth="yes"/>
      <point x="446.3333333333333" y="639.3333333333334"/>
      <point x="491.3333333333333" y="582.6666666666666"/>
      <point x="491.3333333333333" y="470.3333333333333" type="curve" smooth="yes"/>
      <point x="491.3333333333333" y="317.8333333333333"/>
      <point x="437.3333333333333" y="85.33333333333333"/>
      <point x="210.33333333333334" y="85.33333333333333" type="curve" smooth="yes"/>
      <point x="153.66666666666666" y="85.33333333333333"/>
      <point x="113.66666666666667" y="96.66666666666667"/>
      <point x="88.66666666666667" y="108.0" type="curve"/>
      <point x="80.0" y="108.0" type="line"/>
      <point x="59.666666666666664" y="6.666666666666667" type="line"/>
      <point x="90.0" y="-4.666666666666667"/>
      <point x="142.66666666666666" y="-12.0"/>
    </contour>
  </outline>
</glyph>
<glyph name="colon" format="2">
  <advance width="280.6666666666667"/>
  <unicode hex="003A"/>
  <note>
colon
</note>
  <outline>
    <contour>
      <point x="171.66666666666666" y="400.6666666666667" type="curve" smooth="yes"/>
      <point x="218.66666666666666" y="400.6666666666667"/>
      <point x="252.0" y="442.6666666666667"/>
      <point x="252.0" y="486.0" type="curve" smooth="yes"/>
      <point x="252.0" y="521.3333333333334"/>
      <point x="228.83333333333334" y="544.0"/>
      <point x="191.0" y="544.0" type="curve" smooth="yes"/>
      <point x="142.16666666666666" y="544.0"/>
      <point x="110.66666666666667" y="502.0"/>
      <point x="110.66666666666667" y="458.6666666666667" type="curve" smooth="yes"/>
      <point x="110.66666666666667" y="423.3333333333333"/>
      <point x="132.16666666666666" y="400.6666666666667"/>
    </contour>
    <contour>
      <point x="93.66666666666667" y="-8.666666666666666" type="curve" smooth="yes"/>
      <point x="140.66666666666666" y="-8.666666666666666"/>
      <point x="174.0" y="33.333333333333336"/>
      <point x="174.0" y="76.66666666666667" type="curve" smooth="yes"/>
      <point x="174.0" y="112.0"/>
      <point x="150.83333333333334" y="134.66666666666666"/>
      <point x="113.0" y="134.66666666666666" type="curve" smooth="yes"/>
      <point x="64.16666666666667" y="134.66666666666666"/>
      <point x="32.666666666666664" y="92.66666666666667"/>
      <point x="32.666666666666664" y="49.333333333333336" type="curve" smooth="yes"/>
      <point x="32.666666666666664" y="14.0"/>
      <point x="54.166666666666664" y="-8.666666666666666"/>
    </contour>
  </outline>
</glyph>
<glyph name="semicolon" format="2">
  <advance width="280.6666666666667"/>
  <unicode hex="003B"/>
  <note>
semicolon
</note>
  <outline>
    <contour>
      <point x="171.66666666666666" y="400.6666666666667" type="curve" smooth="yes"/>
      <point x="218.66666666666666" y="400.6666666666667"/>
      <point x="252.0" y="442.6666666666667"/>
      <point x="252.0" y="486.0" type="curve" smooth="yes"/>
      <point x="252.0" y="521.3333333333334"/>
      <point x="228.83333333333334" y="544.0"/>
      <point x="191.0" y="544.0" type="curve" smooth="yes"/>
      <point x="142.16666666666666" y="544.0"/>
      <point x="110.66666666666667" y="502.0"/>
      <point x="110.66666666666667" y="458.6666666666667" type="curve" smooth="yes"/>
      <point x="110.66666666666667" y="423.3333333333333"/>
      <point x="132.16666666666666" y="400.6666666666667"/>
    </contour>
    <contour>
      <point x="66.66666666666667" y="-9.333333333333334" type="curve"/>
      <point x="-36.666666666666664" y="-148.66666666666666" type="line"/>
      <point x="-36.666666666666664" y="-156.66666666666666" type="line"/>
      <point x="51.333333333333336" y="-156.66666666666666" type="line"/>
      <point x="134.0" y="-35.333333333333336" type="line" smooth="yes"/>
      <point x="155.66666666666666" y="-3.333333333333333"/>
      <point x="177.33333333333334" y="32.333333333333336"/>
      <point x="177.33333333333334" y="69.33333333333333" type="curve" smooth="yes"/>
      <point x="177.33333333333334" y="108.66666666666667"/>
      <point x="153.33333333333334" y="134.66666666666666"/>
      <point x="114.0" y="134.66666666666666" type="curve" smooth="yes"/>
      <point x="67.66666666666667" y="134.66666666666666"/>
      <point x="32.666666666666664" y="95.66666666666667"/>
      <point x="32.666666666666664" y="50.0" type="curve" smooth="yes"/>
      <point x="32.666666666666664" y="13.5"/>
      <point x="50.5" y="-1.5"/>
    </contour>
  </outline>
</glyph>
<glyph name="less" format="2">
  <advance width="616.0"/>
  <unicode hex="003C"/>
  <note>
less
</note>
  <outline>
    <contour>
      <point x="86.0" y="286.6666666666667" type="line"/>
      <point x="526.0" y="63.333333333333336" type="line"/>
      <point x="534.0" y="63.333333333333336" type="line"/>
      <point x="534.0" y="160.0" type="line"/>
      <point x="214.0" y="316.6666666666667" type="line"/>
      <point x="534.0" y="477.3333333333333" type="line"/>
      <point x="534.0" y="573.3333333333334" type="line"/>
      <point x="526.0" y="573.3333333333334" type="line"/>
      <point x="86.0" y="346.6666666666667" type="line"/>
    </contour>
  </outline>
</glyph>
<glyph name="question" format="2">
  <advance width="501.3333333333333"/>
  <unicode hex="003F"/>
  <note>
question
</note>
  <outline>
    <contour>
      <point x="145.33333333333334" y="264.6666666666667" type="curve" smooth="yes"/>
      <point x="131.33333333333334" y="198.66666666666666" type="line"/>
      <point x="239.33333333333334" y="198.66666666666666" type="line"/>
      <point x="253.33333333333334" y="260.6666666666667" type="line" smooth="yes"/>
      <point x="259.1666666666667" y="286.6666666666667"/>
      <point x="267.6666666666667" y="314.8333333333333"/>
      <point x="302.0" y="333.3333333333333" type="curve" smooth="yes"/>
      <point x="350.0" y="359.3333333333333" type="line" smooth="yes"/>
      <point x="394.5" y="383.3333333333333"/>
      <point x="518.0" y="441.6666666666667"/>
      <point x="518.0" y="565.3333333333334" type="curve" smooth="yes"/>
      <point x="518.0" y="674.0"/>
      <point x="446.1666666666667" y="732.0"/>
      <point x="311.3333333333333" y="732.0" type="curve" smooth="yes"/>
      <point x="257.3333333333333" y="732.0"/>
      <point x="202.0" y="723.3333333333334"/>
      <point x="139.33333333333334" y="696.6666666666666" type="curve"/>
      <point x="120.66666666666667" y="596.6666666666666" type="line"/>
      <point x="129.33333333333334" y="596.6666666666666" type="line"/>
      <point x="181.83333333333334" y="623.3333333333334"/>
      <point x="229.33333333333334" y="636.0"/>
      <point x="293.3333333333333" y="636.0" type="curve" smooth="yes"/>
      <point x="360.5" y="636.0"/>
      <point x="399.3333333333333" y="610.5"/>
      <point x="399.3333333333333" y="555.3333333333334" type="curve" smooth="yes"/>
      <point x="399.3333333333333" y="491.1666666666667"/>
      <point x="341.5" y="455.0"/>
      <point x="303.3333333333333" y="434.6666666666667" type="curve" smooth="yes"/>
      <point x="240.66666666666666" y="401.3333333333333" type="line" smooth="yes"/>
      <point x="180.66666666666666" y="369.1666666666667"/>
      <point x="156.5" y="322.0"/>
    </contour>
    <contour>
      <point x="91.66666666666667" y="50.0" type="curve" smooth="yes"/>
      <point x="91.66666666666667" y="13.333333333333334"/>
      <point x="113.33333333333333" y="-8.666666666666666"/>
      <point x="152.66666666666666" y="-8.666666666666666" type="curve" smooth="yes"/>
      <point x="199.66666666666666" y="-8.666666666666666"/>
      <point x="233.0" y="34.0"/>
      <point x="233.0" y="76.0" type="curve" smooth="yes"/>
      <point x="233.0" y="112.66666666666667"/>
      <point x="209.66666666666666" y="134.66666666666666"/>
      <point x="172.0" y="134.66666666666666" type="curve" smooth="yes"/>
      <point x="123.33333333333333" y="134.66666666666666"/>
      <point x="91.66666666666667" y="92.0"/>
    </contour>
  </outline>
</glyph>
<glyph name="at" format="2">
  <advance width="970.6666666666666"/>
  <unicode hex="0040"/>
  <note>
at
</note>
  <outline>
    <contour>
      <point x="474.6666666666667" y="-161.33333333333334" type="curve" smooth="yes"/>
      <point x="543.3333333333334" y="-161.33333333333334"/>
      <point x="609.0" y="-150.0"/>
      <point x="651.0" y="-133.33333333333334" type="curve"/>
      <point x="666.0" y="-41.666666666666664" type="line"/>
      <point x="657.3333333333334" y="-41.666666666666664" type="line"/>
      <point x="612.6666666666666" y="-61.666666666666664"/>
      <point x="544.0" y="-74.66666666666667"/>
      <point x="480.0" y="-74.66666666666667" type="curve" smooth="yes"/>
      <point x="286.6666666666667" y="-74.66666666666667"/>
      <point x="144.66666666666666" y="18.666666666666668"/>
      <point x="144.66666666666666" y="224.66666666666666" type="curve" smooth="yes"/>
      <point x="144.66666666666666" y="492.6666666666667"/>
      <point x="322.0" y="643.3333333333334"/>
      <point x="553.3333333333334" y="643.3333333333334" type="curve" smooth="yes"/>
      <point x="734.6666666666666" y="643.3333333333334"/>
      <point x="856.6666666666666" y="552.6666666666666"/>
      <point x="856.6666666666666" y="402.6666666666667" type="curve" smooth="yes"/>
      <point x="856.6666666666666" y="240.66666666666666"/>
      <point x="774.8333333333334" y="160.5"/>
      <point x="652.8333333333334" y="129.66666666666666" type="curve"/>
      <point x="657.1666666666666" y="157.5"/>
      <point x="664.1666666666666" y="190.33333333333334"/>
      <point x="668.0" y="210.66666666666666" type="curve" smooth="yes"/>
      <point x="687.3333333333334" y="314.6666666666667" type="line" smooth="yes"/>
      <point x="711.3333333333334" y="444.3333333333333"/>
      <point x="650.0" y="507.3333333333333"/>
      <point x="521.3333333333334" y="507.3333333333333" type="curve" smooth="yes"/>
      <point x="469.3333333333333" y="507.3333333333333"/>
      <point x="423.3333333333333" y="495.6666666666667"/>
      <point x="386.0" y="480.6666666666667" type="curve"/>
      <point x="370.6666666666667" y="396.6666666666667" type="line"/>
      <point x="378.6666666666667" y="396.6666666666667" type="line"/>
      <point x="406.6666666666667" y="408.3333333333333"/>
      <point x="449.3333333333333" y="423.3333333333333"/>
      <point x="496.0" y="423.3333333333333" type="curve" smooth="yes"/>
      <point x="583.3333333333334" y="423.3333333333333"/>
      <point x="612.0" y="388.6666666666667"/>
      <point x="589.3333333333334" y="302.0" type="curve"/>
      <point x="567.5" y="182.66666666666666" type="line" smooth="yes"/>
      <point x="562.5" y="152.83333333333334"/>
      <point x="558.5" y="115.0"/>
      <point x="572.6666666666666" y="94.66666666666667" type="curve"/>
      <point x="606.6666666666666" y="120.66666666666667" type="line"/>
      <point x="569.5" y="114.0"/>
      <point x="535.8333333333334" y="114.0"/>
      <point x="508.6666666666667" y="114.0" type="curve" smooth="yes"/>
      <point x="429.3333333333333" y="114.0"/>
      <point x="384.0" y="128.66666666666666"/>
      <point x="384.0" y="177.0" type="curve" smooth="yes"/>
      <point x="384.0" y="225.33333333333334"/>
      <point x="425.3333333333333" y="254.0"/>
      <point x="505.3333333333333" y="254.0" type="curve" smooth="yes"/>
      <point x="542.6666666666666" y="254.0"/>
      <point x="570.5" y="247.5"/>
      <point x="590.0" y="239.33333333333334" type="curve"/>
      <point x="602.6666666666666" y="310.0" type="line"/>
      <point x="582.6666666666666" y="318.0"/>
      <point x="558.6666666666666" y="326.0"/>
      <point x="505.3333333333333" y="326.0" type="curve" smooth="yes"/>
      <point x="375.3333333333333" y="326.0"/>
      <point x="291.3333333333333" y="271.3333333333333"/>
      <point x="291.3333333333333" y="172.0" type="curve" smooth="yes"/>
      <point x="291.3333333333333" y="76.66666666666667"/>
      <point x="371.3333333333333" y="35.333333333333336"/>
      <point x="505.3333333333333" y="35.333333333333336" type="curve" smooth="yes"/>
      <point x="767.3333333333334" y="35.333333333333336"/>
      <point x="951.3333333333334" y="157.33333333333334"/>
      <point x="951.3333333333334" y="406.6666666666667" type="curve" smooth="yes"/>
      <point x="951.3333333333334" y="602.0"/>
      <point x="798.0" y="733.3333333333334"/>
      <point x="557.3333333333334" y="733.3333333333334" type="curve" smooth="yes"/>
      <point x="262.0" y="733.3333333333334"/>
      <point x="46.0" y="540.0"/>
      <point x="46.0" y="224.0" type="curve" smooth="yes"/>
      <point x="46.0" y="-30.0"/>
      <point x="224.0" y="-161.33333333333334"/>
    </contour>
  </outline>
</glyph>
<glyph name="A" format="2">
  <advance width="674.3333333333334"/>
  <unicode hex="0041"/>
  <note>
A
</note>
  <anchor x="284.1666666666667" y="0.0" name="bottom"/>
  <anchor x="534.8333333333334" y="0.0" name="ogonek"/>
  <anchor x="459.0" y="720.0" name="top"/>
  <outline>
    <contour>
      <point x="-5.166666666666666" y="0.0" type="line"/>
      <point x="114.16666666666666" y="0.0" type="line"/>
      <point x="283.1666666666667" y="476.6666666666667" type="line" smooth="yes"/>
      <point x="317.8333333333333" y="573.8333333333334"/>
      <point x="370.8333333333333" y="628.6666666666666"/>
      <point x="493.5" y="628.6666666666666" type="curve" smooth="yes"/>
      <point x="521.0" y="628.6666666666666"/>
      <point x="550.6666666666666" y="624.8333333333334"/>
      <point x="563.3333333333334" y="617.3333333333334" type="curve"/>
      <point x="555.6666666666666" y="648.3333333333334" type="line"/>
      <point x="543.5" y="629.1666666666666"/>
      <point x="536.8333333333334" y="603.5"/>
      <point x="532.1666666666666" y="578.0" type="curve" smooth="yes"/>
      <point x="419.5" y="0.0" type="line"/>
      <point x="534.8333333333334" y="0.0" type="line"/>
      <point x="642.8333333333334" y="555.3333333333334" type="line" smooth="yes"/>
      <point x="650.8333333333334" y="595.3333333333334"/>
      <point x="661.6666666666666" y="658.6666666666666"/>
      <point x="676.0" y="698.0" type="curve"/>
      <point x="674.6666666666666" y="710.0" type="line"/>
      <point x="623.8333333333334" y="722.6666666666666"/>
      <point x="574.8333333333334" y="728.0"/>
      <point x="522.1666666666666" y="728.0" type="curve" smooth="yes"/>
      <point x="325.5" y="728.0"/>
      <point x="229.0" y="656.3333333333334"/>
      <point x="167.83333333333334" y="484.6666666666667" type="curve" smooth="yes"/>
    </contour>
    <contour>
      <point x="161.33333333333334" y="211.33333333333334" type="line"/>
      <point x="485.3333333333333" y="211.33333333333334" type="line"/>
      <point x="504.0" y="309.3333333333333" type="line"/>
      <point x="192.66666666666666" y="309.3333333333333" type="line"/>
    </contour>
  </outline>
</glyph>
<glyph name="B" format="2">
  <advance width="650.6666666666666"/>
  <unicode hex="0042"/>
  <note>
B
</note>
  <anchor x="272.3333333333333" y="0.0" name="bottom"/>
  <anchor x="412.3333333333333" y="720.0" name="top"/>
  <outline>
    <contour>
      <point x="118.0" y="0.0" type="line"/>
      <point x="343.0" y="0.0" type="line" smooth="yes"/>
      <point x="498.8333333333333" y="0.0"/>
      <point x="584.3333333333334" y="99.0"/>
      <point x="584.3333333333334" y="202.66666666666666" type="curve" smooth="yes"/>
      <point x="584.3333333333334" y="272.5"/>
      <point x="544.3333333333334" y="320.6666666666667"/>
      <point x="474.6666666666667" y="339.3333333333333" type="curve"/>
      <point x="476.0" y="311.3333333333333" type="line"/>
      <point x="584.8333333333334" y="354.6666666666667"/>
      <point x="639.3333333333334" y="452.8333333333333"/>
      <point x="639.3333333333334" y="546.0" type="curve" smooth="yes"/>
      <point x="639.3333333333334" y="658.6666666666666"/>
      <point x="572.3333333333334" y="720.0"/>
      <point x="424.3333333333333" y="720.0" type="curve" smooth="yes"/>
      <point x="258.0" y="720.0" type="line"/>
      <point x="239.33333333333334" y="621.3333333333334" type="line"/>
      <point x="419.0" y="621.3333333333334" type="line" smooth="yes"/>
      <point x="484.3333333333333" y="621.3333333333334"/>
      <point x="524.6666666666666" y="599.3333333333334"/>
      <point x="524.6666666666666" y="535.3333333333334" type="curve" smooth="yes"/>
      <point x="524.6666666666666" y="454.0"/>
      <point x="467.0" y="370.6666666666667"/>
      <point x="368.3333333333333" y="370.6666666666667" type="curve" smooth="yes"/>
      <point x="191.33333333333334" y="370.6666666666667" type="line"/>
      <point x="173.33333333333334" y="276.0" type="line"/>
      <point x="381.3333333333333" y="276.0" type="line" smooth="yes"/>
      <point x="436.0" y="276.0"/>
      <point x="469.6666666666667" y="253.33333333333334"/>
      <point x="469.6666666666667" y="206.66666666666666" type="curve" smooth="yes"/>
      <point x="469.6666666666667" y="134.66666666666666"/>
      <point x="412.3333333333333" y="97.33333333333333"/>
      <point x="347.0" y="97.33333333333333" type="curve" smooth="yes"/>
      <point x="136.66666666666666" y="97.33333333333333" type="line"/>
    </contour>
    <contour>
      <point x="40.0" y="0.0" type="line"/>
      <point x="155.33333333333334" y="0.0" type="line"/>
      <point x="295.3333333333333" y="720.0" type="line"/>
      <point x="180.0" y="720.0" type="line"/>
    </contour>
  </outline>
</glyph>
<glyph name="C" format="2">
  <advance width="648.0"/>
  <unicode hex="0043"/>
  <note>
C
</note>
  <anchor x="306.0" y="0.0" name="bottom"/>
  <anchor x="446.0" y="720.0" name="top"/>
  <outline>
    <contour>
      <point x="64.66666666666667" y="299.0" type="curve" smooth="yes"/>
      <point x="64.66666666666667" y="105.0"/>
      <point x="172.0" y="-12.0"/>
      <point x="382.3333333333333" y="-12.0" type="curve" smooth="yes"/>
      <point x="442.3333333333333" y="-12.0"/>
      <point x="496.6666666666667" y="0.0"/>
      <point x="536.0" y="18.666666666666668" type="curve"/>
      <point x="558.0" y="124.66666666666667" type="line"/>
      <point x="549.3333333333334" y="124.66666666666667" type="line"/>
      <point x="507.6666666666667" y="102.33333333333333"/>
      <point x="452.6666666666667" y="90.66666666666667"/>
      <point x="394.0" y="90.66666666666667" type="curve" smooth="yes"/>
      <point x="259.3333333333333" y="90.66666666666667"/>
      <point x="184.0" y="154.66666666666666"/>
      <point x="184.0" y="301.0" type="curve" smooth="yes"/>
      <point x="184.0" y="472.0"/>
      <point x="290.6666666666667" y="629.3333333333334"/>
      <point x="478.0" y="629.3333333333334" type="curve" smooth="yes"/>
      <point x="552.0" y="629.3333333333334"/>
      <point x="595.6666666666666" y="617.0"/>
      <point x="631.6666666666666" y="594.6666666666666" type="curve"/>
      <point x="640.3333333333334" y="594.6666666666666" type="line"/>
      <point x="661.0" y="701.3333333333334" type="line"/>
      <point x="623.3333333333334" y="720.0"/>
      <point x="552.0" y="732.0"/>
      <point x="488.0" y="732.0" type="curve" smooth="yes"/>
      <point x="210.66666666666666" y="732.0"/>
      <point x="64.66666666666667" y="519.3333333333334"/>
    </contour>
  </outline>
</glyph>
<glyph name="D" format="2">
  <advance width="729.3333333333334"/>
  <unicode hex="0044"/>
  <note>
D
</note>
  <anchor x="306.6666666666667" y="0.0" name="bottom"/>
  <anchor x="179.66666666666666" y="367.0" name="center"/>
  <anchor x="459.6666666666667" y="720.0" name="top"/>
  <outline>
    <contour>
      <point x="258.0" y="720.0" type="line"/>
      <point x="238.66666666666666" y="619.3333333333334" type="line"/>
      <point x="406.6666666666667" y="619.3333333333334" type="line" smooth="yes"/>
      <point x="525.3333333333334" y="619.3333333333334"/>
      <point x="585.3333333333334" y="566.6666666666666"/>
      <point x="585.3333333333334" y="450.0" type="curve" smooth="yes"/>
      <point x="585.3333333333334" y="314.0"/>
      <point x="494.6666666666667" y="100.66666666666666"/>
      <point x="289.3333333333333" y="100.66666666666666" type="curve" smooth="yes"/>
      <point x="137.33333333333334" y="100.66666666666666" type="line"/>
      <point x="118.0" y="0.0" type="line"/>
      <point x="288.0" y="0.0" type="line" smooth="yes"/>
      <point x="564.6666666666666" y="0.0"/>
      <point x="704.6666666666666" y="250.0"/>
      <point x="704.6666666666666" y="455.3333333333333" type="curve" smooth="yes"/>
      <point x="704.6666666666666" y="628.0"/>
      <point x="596.6666666666666" y="720.0"/>
      <point x="410.0" y="720.0" type="curve" smooth="yes"/>
    </contour>
    <contour>
      <point x="40.0" y="0.0" type="line"/>
      <point x="155.33333333333334" y="0.0" type="line"/>
      <point x="295.3333333333333" y="720.0" type="line"/>
      <point x="180.0" y="720.0" type="line"/>
    </contour>
  </outline>
</glyph>
<glyph name="E" format="2">
  <advance width="615.3333333333334"/>
  <unicode hex="0045"/>
  <note>
E
</note>
  <anchor x="259.8333333333333" y="0.0" name="bottom"/>
  <anchor x="510.3333333333333" y="0.0" name="ogonek"/>
  <anchor x="399.6666666666667" y="720.0" name="top"/>
  <anchor x="107.0" y="720.0" name="topleft"/>
  <outline>
    <contour>
      <point x="40.0" y="0.0" type="line"/>
      <point x="155.33333333333334" y="0.0" type="line"/>
      <point x="295.3333333333333" y="720.0" type="line"/>
      <point x="180.0" y="720.0" type="line"/>
    </contour>
    <contour>
      <point x="118.0" y="0.0" type="line"/>
      <point x="510.3333333333333" y="0.0" type="line"/>
      <point x="529.3333333333334" y="100.66666666666666" type="line"/>
      <point x="137.33333333333334" y="100.66666666666666" type="line"/>
    </contour>
    <contour>
      <point x="184.0" y="324.6666666666667" type="line"/>
      <point x="509.6666666666667" y="324.6666666666667" type="line"/>
      <point x="528.3333333333334" y="423.3333333333333" type="line"/>
      <point x="202.66666666666666" y="423.3333333333333" type="line"/>
    </contour>
    <contour>
      <point x="238.66666666666666" y="619.3333333333334" type="line"/>
      <point x="620.0" y="619.3333333333334" type="line"/>
      <point x="639.0" y="720.0" type="line"/>
      <point x="258.0" y="720.0" type="line"/>
    </contour>
  </outline>
</glyph>
<glyph name="F" format="2">
  <advance width="574.6666666666666"/>
  <unicode hex="0046"/>
  <note>
F
</note>
  <anchor x="234.33333333333334" y="0.0" name="bottom"/>
  <anchor x="374.3333333333333" y="720.0" name="top"/>
  <outline>
    <contour>
      <point x="40.0" y="0.0" type="line"/>
      <point x="155.33333333333334" y="0.0" type="line"/>
      <point x="295.3333333333333" y="720.0" type="line"/>
      <point x="180.0" y="720.0" type="line"/>
    </contour>
    <contour>
      <point x="162.66666666666666" y="269.3333333333333" type="line"/>
      <point x="488.3333333333333" y="269.3333333333333" type="line"/>
      <point x="507.0" y="368.0" type="line"/>
      <point x="181.33333333333334" y="368.0" type="line"/>
    </contour>
    <contour>
      <point x="238.66666666666666" y="619.3333333333334" type="line"/>
      <point x="610.0" y="619.3333333333334" type="line"/>
      <point x="629.0" y="720.0" type="line"/>
      <point x="258.0" y="720.0" type="line"/>
    </contour>
  </outline>
</glyph>
<glyph name="G" format="2">
  <advance width="690.6666666666666"/>
  <unicode hex="0047"/>
  <note>
G
</note>
  <anchor x="292.3333333333333" y="0.0" name="bottom"/>
  <anchor x="432.3333333333333" y="720.0" name="top"/>
  <outline>
    <contour>
      <point x="66.33333333333333" y="299.0" type="curve" smooth="yes"/>
      <point x="66.33333333333333" y="104.0"/>
      <point x="173.0" y="-12.0"/>
      <point x="385.6666666666667" y="-12.0" type="curve" smooth="yes"/>
      <point x="445.0" y="-12.0"/>
      <point x="523.0" y="0.0"/>
      <point x="569.6666666666666" y="23.333333333333332" type="curve"/>
      <point x="635.6666666666666" y="364.6666666666667" type="line"/>
      <point x="523.3333333333334" y="364.6666666666667" type="line"/>
      <point x="464.0" y="56.333333333333336" type="line"/>
      <point x="493.8333333333333" y="107.33333333333333" type="line"/>
      <point x="464.6666666666667" y="93.5"/>
      <point x="427.3333333333333" y="86.66666666666667"/>
      <point x="389.6666666666667" y="86.66666666666667" type="curve" smooth="yes"/>
      <point x="259.1666666666667" y="86.66666666666667"/>
      <point x="185.66666666666666" y="154.66666666666666"/>
      <point x="185.66666666666666" y="300.0" type="curve" smooth="yes"/>
      <point x="185.66666666666666" y="479.3333333333333"/>
      <point x="294.6666666666667" y="629.3333333333334"/>
      <point x="489.6666666666667" y="629.3333333333334" type="curve" smooth="yes"/>
      <point x="564.6666666666666" y="629.3333333333334"/>
      <point x="619.3333333333334" y="612.1666666666666"/>
      <point x="655.3333333333334" y="594.0" type="curve"/>
      <point x="664.0" y="594.0" type="line"/>
      <point x="684.6666666666666" y="700.6666666666666" type="line"/>
      <point x="644.3333333333334" y="720.0"/>
      <point x="565.3333333333334" y="732.0"/>
      <point x="498.6666666666667" y="732.0" type="curve" smooth="yes"/>
      <point x="217.0" y="732.0"/>
      <point x="66.33333333333333" y="526.0"/>
    </contour>
  </outline>
</glyph>
<glyph name="H" format="2">
  <advance width="744.0"/>
  <unicode hex="0048"/>
  <note>
H
</note>
  <anchor x="318.1666666666667" y="0.0" name="bottom"/>
  <anchor x="433.5" y="579.0" name="center"/>
  <anchor x="459.1666666666667" y="720.0" name="top"/>
  <anchor x="520.5" y="720.0" name="topleft"/>
  <outline>
    <contour>
      <point x="626.0" y="720.0" type="line"/>
      <point x="486.0" y="0.0" type="line"/>
      <point x="601.3333333333334" y="0.0" type="line"/>
      <point x="741.3333333333334" y="720.0" type="line"/>
    </contour>
    <contour>
      <point x="155.33333333333334" y="0.0" type="line"/>
      <point x="295.3333333333333" y="720.0" type="line"/>
      <point x="180.0" y="720.0" type="line"/>
      <point x="40.0" y="0.0" type="line"/>
    </contour>
    <contour>
      <point x="582.6666666666666" y="320.6666666666667" type="line"/>
      <point x="602.0" y="421.3333333333333" type="line"/>
      <point x="200.66666666666666" y="421.3333333333333" type="line"/>
      <point x="181.33333333333334" y="320.6666666666667" type="line"/>
    </contour>
  </outline>
</glyph>
<glyph name="J" format="2">
  <advance width="424.0"/>
  <unicode hex="004A"/>
  <note>
J
</note>
  <anchor x="159.0" y="0.0" name="bottom"/>
  <anchor x="299.0" y="720.0" name="top"/>
  <outline>
    <contour>
      <point x="76.66666666666667" y="-12.0" type="curve" smooth="yes"/>
      <point x="218.66666666666666" y="-12.0"/>
      <point x="309.1666666666667" y="54.0"/>
      <point x="338.3333333333333" y="203.66666666666666" type="curve" smooth="yes"/>
      <point x="438.0" y="720.0" type="line"/>
      <point x="322.6666666666667" y="720.0" type="line"/>
      <point x="223.33333333333334" y="205.66666666666666" type="line" smooth="yes"/>
      <point x="205.16666666666666" y="115.33333333333333"/>
      <point x="155.33333333333334" y="86.66666666666667"/>
      <point x="76.66666666666667" y="86.66666666666667" type="curve" smooth="yes"/>
      <point x="42.0" y="86.66666666666667"/>
      <point x="9.333333333333332" y="94.33333333333333"/>
      <point x="-6.666666666666667" y="102.66666666666667" type="curve"/>
      <point x="-15.333333333333334" y="102.66666666666667" type="line"/>
      <point x="-34.0" y="4.0" type="line"/>
      <point x="-9.666666666666668" y="-4.0"/>
      <point x="30.0" y="-12.0"/>
    </contour>
  </outline>
</glyph>
<glyph name="K" format="2">
  <advance width="680.6666666666666"/>
  <unicode hex="004B"/>
  <note>
K
</note>
  <anchor x="287.3333333333333" y="0.0" name="bottom"/>
  <anchor x="427.3333333333333" y="720.0" name="top"/>
  <outline>
    <contour>
      <point x="166.66666666666666" y="272.0" type="line"/>
      <point x="285.3333333333333" y="272.0" type="line" smooth="yes"/>
      <point x="382.6666666666667" y="272.0"/>
      <point x="467.3333333333333" y="323.3333333333333"/>
      <point x="531.0" y="422.6666666666667" type="curve" smooth="yes"/>
      <point x="718.3333333333334" y="711.3333333333334" type="line"/>
      <point x="718.3333333333334" y="720.0" type="line"/>
      <point x="598.6666666666666" y="720.0" type="line"/>
      <point x="430.0" y="455.3333333333333" type="line" smooth="yes"/>
      <point x="399.5" y="407.3333333333333"/>
      <point x="359.3333333333333" y="372.0"/>
      <point x="292.0" y="372.0" type="curve" smooth="yes"/>
      <point x="186.0" y="372.0" type="line"/>
    </contour>
    <contour>
      <point x="40.0" y="0.0" type="line"/>
      <point x="155.33333333333334" y="0.0" type="line"/>
      <point x="295.3333333333333" y="720.0" type="line"/>
      <point x="180.0" y="720.0" type="line"/>
    </contour>
    <contour>
      <point x="452.6666666666667" y="0.0" type="line"/>
      <point x="577.0" y="0.0" type="line"/>
      <point x="577.0" y="8.666666666666666" type="line"/>
      <point x="429.3333333333333" y="344.0" type="line"/>
      <point x="328.6666666666667" y="300.6666666666667" type="line"/>
    </contour>
  </outline>
</glyph>
<glyph name="L" format="2">
  <advance width="538.6666666666666"/>
  <unicode hex="004C"/>
  <note>
L
</note>
  <anchor x="211.33333333333334" y="0.0" name="bottom"/>
  <anchor x="191.66666666666666" y="390.3333333333333" name="center"/>
  <anchor x="392.3333333333333" y="398.6666666666667" name="periodCAT"/>
  <anchor x="364.3333333333333" y="720.0" name="top"/>
  <anchor x="443.1666666666667" y="516.6666666666666" name="topright"/>
  <outline>
    <contour>
      <point x="40.0" y="0.0" type="line"/>
      <point x="457.0" y="0.0" type="line"/>
      <point x="476.0" y="100.66666666666666" type="line"/>
      <point x="174.66666666666666" y="100.66666666666666" type="line"/>
      <point x="295.3333333333333" y="720.0" type="line"/>
      <point x="180.0" y="720.0" type="line"/>
    </contour>
  </outline>
</glyph>
<glyph name="M" format="2">
  <advance width="832.6666666666666"/>
  <unicode hex="004D"/>
  <note>
M
</note>
  <anchor x="363.3333333333333" y="0.0" name="bottom"/>
  <anchor x="503.3333333333333" y="720.0" name="top"/>
  <outline>
    <contour>
      <point x="179.33333333333334" y="720.0" type="line"/>
      <point x="40.0" y="0.0" type="line"/>
      <point x="155.33333333333334" y="0.0" type="line"/>
      <point x="262.0" y="554.0" type="line"/>
      <point x="230.0" y="552.6666666666666" type="line"/>
      <point x="371.6666666666667" y="227.33333333333334" type="line"/>
      <point x="451.6666666666667" y="227.33333333333334" type="line"/>
      <point x="716.0" y="548.0" type="line"/>
      <point x="682.6666666666666" y="557.3333333333334" type="line"/>
      <point x="575.3333333333334" y="0.0" type="line"/>
      <point x="690.6666666666666" y="0.0" type="line"/>
      <point x="830.0" y="720.0" type="line"/>
      <point x="732.6666666666666" y="720.0" type="line"/>
      <point x="410.0" y="324.6666666666667" type="line"/>
      <point x="449.3333333333333" y="320.6666666666667" type="line"/>
      <point x="276.0" y="720.0" type="line"/>
    </contour>
  </outline>
</glyph>
<glyph name="N" format="2">
  <advance width="744.6666666666666"/>
  <unicode hex="004E"/>
  <note>
N
</note>
  <anchor x="319.3333333333333" y="0.0" name="bottom"/>
  <anchor x="459.3333333333333" y="720.0" name="top"/>
  <outline>
    <contour>
      <point x="487.3333333333333" y="0.0" type="line"/>
      <point x="602.6666666666666" y="0.0" type="line"/>
      <point x="742.0" y="720.0" type="line"/>
      <point x="626.6666666666666" y="720.0" type="line"/>
    </contour>
    <contour>
      <point x="40.0" y="0.0" type="line"/>
      <point x="155.33333333333334" y="0.0" type="line"/>
      <point x="266.6666666666667" y="584.6666666666666" type="line"/>
      <point x="228.0" y="592.0" type="line"/>
      <point x="558.6666666666666" y="147.33333333333334" type="line"/>
      <point x="583.3333333333334" y="297.3333333333333" type="line"/>
      <point x="270.6666666666667" y="720.0" type="line"/>
      <point x="179.33333333333334" y="720.0" type="line"/>
    </contour>
  </outline>
</glyph>
<glyph name="O" format="2">
  <advance width="792.1666666666666"/>
  <unicode hex="004F"/>
  <note>
O
</note>
  <anchor x="343.0" y="0.0" name="bottom"/>
  <anchor x="413.0" y="360.0" name="center"/>
  <anchor x="468.0" y="0.0" name="ogonek"/>
  <anchor x="483.0" y="720.0" name="top"/>
  <anchor x="107.0" y="720.0" name="topleft"/>
  <anchor x="557.8333333333334" y="718.8333333333334" name="topright"/>
  <outline>
    <contour>
      <point x="64.66666666666667" y="287.3333333333333" type="curve" smooth="yes"/>
      <point x="64.66666666666667" y="104.0"/>
      <point x="176.0" y="-12.0"/>
      <point x="368.6666666666667" y="-12.0" type="curve" smooth="yes"/>
      <point x="633.3333333333334" y="-12.0"/>
      <point x="767.3333333333334" y="220.0"/>
      <point x="767.3333333333334" y="432.6666666666667" type="curve" smooth="yes"/>
      <point x="767.3333333333334" y="614.6666666666666"/>
      <point x="656.0" y="732.0"/>
      <point x="463.3333333333333" y="732.0" type="curve" smooth="yes"/>
      <point x="202.0" y="732.0"/>
      <point x="64.66666666666667" y="498.6666666666667"/>
    </contour>
    <contour>
      <point x="184.0" y="289.3333333333333" type="curve" smooth="yes"/>
      <point x="184.0" y="445.3333333333333"/>
      <point x="271.3333333333333" y="629.3333333333334"/>
      <point x="458.0" y="629.3333333333334" type="curve" smooth="yes"/>
      <point x="572.0" y="629.3333333333334"/>
      <point x="648.0" y="564.6666666666666"/>
      <point x="648.0" y="430.6666666666667" type="curve" smooth="yes"/>
      <point x="648.0" y="274.6666666666667"/>
      <point x="560.6666666666666" y="90.66666666666667"/>
      <point x="374.0" y="90.66666666666667" type="curve" smooth="yes"/>
      <point x="260.0" y="90.66666666666667"/>
      <point x="184.0" y="155.33333333333334"/>
    </contour>
  </outline>
</glyph>
<glyph name="P" format="2">
  <advance width="635.3333333333334"/>
  <unicode hex="0050"/>
  <note>
P
</note>
  <anchor x="264.6666666666667" y="0.0" name="bottom"/>
  <anchor x="404.6666666666667" y="720.0" name="top"/>
  <outline>
    <contour>
      <point x="163.33333333333334" y="226.66666666666666" type="line"/>
      <point x="334.6666666666667" y="226.66666666666666" type="line" smooth="yes"/>
      <point x="532.0" y="226.66666666666666"/>
      <point x="647.3333333333334" y="374.0"/>
      <point x="647.3333333333334" y="523.3333333333334" type="curve" smooth="yes"/>
      <point x="647.3333333333334" y="654.0"/>
      <point x="560.0" y="720.0"/>
      <point x="426.6666666666667" y="720.0" type="curve" smooth="yes"/>
      <point x="258.0" y="720.0" type="line"/>
      <point x="239.33333333333334" y="620.6666666666666" type="line"/>
      <point x="417.3333333333333" y="620.6666666666666" type="line" smooth="yes"/>
      <point x="486.0" y="620.6666666666666"/>
      <point x="528.6666666666666" y="590.0"/>
      <point x="528.6666666666666" y="520.6666666666666" type="curve" smooth="yes"/>
      <point x="528.6666666666666" y="416.0"/>
      <point x="454.0" y="324.6666666666667"/>
      <point x="334.6666666666667" y="324.6666666666667" type="curve" smooth="yes"/>
      <point x="182.0" y="324.6666666666667" type="line"/>
    </contour>
    <contour>
      <point x="40.0" y="0.0" type="line"/>
      <point x="155.33333333333334" y="0.0" type="line"/>
      <point x="295.3333333333333" y="720.0" type="line"/>
      <point x="180.0" y="720.0" type="line"/>
    </contour>
  </outline>
</glyph>
<glyph name="Q" format="2">
  <advance width="792.0"/>
  <unicode hex="0051"/>
  <note>
Q
</note>
  <anchor x="343.0" y="0.0" name="bottom"/>
  <anchor x="483.0" y="720.0" name="top"/>
  <anchor x="413.0" y="360.0" name="center"/>
  <anchor x="468.0" y="0.0" name="ogonek"/>
  <anchor x="107.0" y="720.0" name="topleft"/>
  <anchor x="557.8333333333334" y="718.8333333333334" name="topright"/>
  <outline>
    <contour>
      <point x="524.0" y="90.66666666666667" type="line"/>
      <point x="411.3333333333333" y="52.666666666666664" type="line"/>
      <point x="614.6666666666666" y="-160.0" type="line"/>
      <point x="764.6666666666666" y="-160.0" type="line"/>
      <point x="764.6666666666666" y="-151.33333333333334" type="line"/>
    </contour>
    <component base="O"/>
  </outline>
</glyph>
<glyph name="R" format="2">
  <advance width="673.0"/>
  <unicode hex="0052"/>
  <note>
R
</note>
  <anchor x="283.5" y="0.0" name="bottom"/>
  <anchor x="423.5" y="720.0" name="top"/>
  <outline>
    <contour>
      <point x="158.66666666666666" y="205.33333333333334" type="line"/>
      <point x="352.6666666666667" y="205.33333333333334" type="line"/>
      <point x="488.6666666666667" y="205.33333333333334"/>
      <point x="652.0" y="338.6666666666667"/>
      <point x="652.0" y="516.6666666666666" type="curve" smooth="yes"/>
      <point x="652.0" y="650.0"/>
      <point x="575.3333333333334" y="720.0"/>
      <point x="422.0" y="720.0" type="curve" smooth="yes"/>
      <point x="257.3333333333333" y="720.0" type="line"/>
      <point x="238.66666666666666" y="620.6666666666666" type="line"/>
      <point x="418.0" y="620.6666666666666" type="line" smooth="yes"/>
      <point x="487.3333333333333" y="620.6666666666666"/>
      <point x="533.3333333333334" y="590.6666666666666"/>
      <point x="533.3333333333334" y="514.6666666666666" type="curve" smooth="yes"/>
      <point x="533.3333333333334" y="410.0"/>
      <point x="454.6666666666667" y="306.6666666666667"/>
      <point x="334.0" y="306.6666666666667" type="curve" smooth="yes"/>
      <point x="178.0" y="306.6666666666667" type="line"/>
    </contour>
    <contour>
      <point x="40.0" y="0.0" type="line"/>
      <point x="155.33333333333334" y="0.0" type="line"/>
      <point x="295.3333333333333" y="720.0" type="line"/>
      <point x="180.0" y="720.0" type="line"/>
    </contour>
    <contour>
      <point x="462.3333333333333" y="0.0" type="line"/>
      <point x="591.3333333333334" y="0.0" type="line"/>
      <point x="591.3333333333334" y="8.666666666666666" type="line"/>
      <point x="434.0" y="272.6666666666667" type="line"/>
      <point x="330.6666666666667" y="232.66666666666666" type="line"/>
    </contour>
  </outline>
</glyph>
<glyph name="S" format="2">
  <advance width="594.6666666666666"/>
  <unicode hex="0053"/>
  <note>
S
</note>
  <anchor x="244.33333333333334" y="0.0" name="bottom"/>
  <anchor x="384.3333333333333" y="720.0" name="top"/>
  <outline>
    <contour>
      <point x="45.333333333333336" y="135.33333333333334" type="line"/>
      <point x="24.666666666666668" y="29.333333333333332" type="line"/>
      <point x="80.0" y="4.666666666666667"/>
      <point x="156.0" y="-12.0"/>
      <point x="241.33333333333334" y="-12.0" type="curve" smooth="yes"/>
      <point x="422.6666666666667" y="-12.0"/>
      <point x="541.0" y="54.666666666666664"/>
      <point x="541.0" y="200.66666666666666" type="curve" smooth="yes"/>
      <point x="541.0" y="304.6666666666667"/>
      <point x="465.3333333333333" y="349.6666666666667"/>
      <point x="378.6666666666667" y="372.0" type="curve" smooth="yes"/>
      <point x="311.3333333333333" y="390.0" type="line" smooth="yes"/>
      <point x="248.0" y="406.1666666666667"/>
      <point x="213.33333333333334" y="428.0"/>
      <point x="213.33333333333334" y="489.0" type="curve" smooth="yes"/>
      <point x="213.33333333333334" y="594.3333333333334"/>
      <point x="305.3333333333333" y="630.6666666666666"/>
      <point x="420.6666666666667" y="630.6666666666666" type="curve" smooth="yes"/>
      <point x="495.3333333333333" y="630.6666666666666"/>
      <point x="546.6666666666666" y="614.0"/>
      <point x="576.6666666666666" y="597.3333333333334" type="curve"/>
      <point x="585.3333333333334" y="597.3333333333334" type="line"/>
      <point x="606.0" y="703.3333333333334" type="line"/>
      <point x="571.6666666666666" y="719.6666666666666"/>
      <point x="501.3333333333333" y="732.0"/>
      <point x="425.3333333333333" y="732.0" type="curve" smooth="yes"/>
      <point x="226.66666666666666" y="732.0"/>
      <point x="96.33333333333333" y="645.0"/>
      <point x="96.33333333333333" y="480.0" type="curve" smooth="yes"/>
      <point x="96.33333333333333" y="361.3333333333333"/>
      <point x="172.83333333333334" y="316.0"/>
      <point x="264.6666666666667" y="292.6666666666667" type="curve" smooth="yes"/>
      <point x="332.0" y="274.6666666666667" type="line" smooth="yes"/>
      <point x="390.0" y="259.6666666666667"/>
      <point x="424.0" y="247.0"/>
      <point x="424.0" y="190.66666666666666" type="curve" smooth="yes"/>
      <point x="424.0" y="118.0"/>
      <point x="346.6666666666667" y="89.33333333333333"/>
      <point x="248.66666666666666" y="89.33333333333333" type="curve" smooth="yes"/>
      <point x="162.0" y="89.33333333333333"/>
      <point x="98.66666666666667" y="110.0"/>
      <point x="54.0" y="135.33333333333334" type="curve"/>
    </contour>
  </outline>
</glyph>
<glyph name="T" format="2">
  <advance width="596.0"/>
  <unicode hex="0054"/>
  <note>
T
</note>
  <anchor x="249.0" y="0.0" name="bottom"/>
  <anchor x="315.0" y="360.0" name="center"/>
  <anchor x="385.0" y="720.0" name="top"/>
  <outline>
    <contour>
      <point x="103.33333333333333" y="720.0" type="line"/>
      <point x="84.33333333333333" y="619.3333333333334" type="line"/>
      <point x="310.6666666666667" y="619.3333333333334" type="line"/>
      <point x="191.33333333333334" y="0.0" type="line"/>
      <point x="306.6666666666667" y="0.0" type="line"/>
      <point x="426.0" y="619.3333333333334" type="line"/>
      <point x="653.6666666666666" y="619.3333333333334" type="line"/>
      <point x="672.6666666666666" y="720.0" type="line"/>
    </contour>
  </outline>
</glyph>
<glyph name="U" format="2">
  <advance width="715.3333333333334"/>
  <unicode hex="0055"/>
  <note>
U
</note>
  <anchor x="304.6666666666667" y="0.0" name="bottom"/>
  <anchor x="362.5" y="10.0" name="ogonek"/>
  <anchor x="444.8333333333333" y="720.0" name="top"/>
  <anchor x="703.0" y="720.0" name="topright"/>
  <outline>
    <contour>
      <point x="81.33333333333333" y="187.5" type="curve" smooth="yes"/>
      <point x="81.33333333333333" y="62.0"/>
      <point x="157.33333333333334" y="-12.0"/>
      <point x="319.0" y="-12.0" type="curve" smooth="yes"/>
      <point x="499.3333333333333" y="-12.0"/>
      <point x="600.3333333333334" y="87.33333333333333"/>
      <point x="637.0" y="276.0" type="curve" smooth="yes"/>
      <point x="723.0" y="720.0" type="line"/>
      <point x="607.6666666666666" y="720.0" type="line"/>
      <point x="521.0" y="273.3333333333333" type="line" smooth="yes"/>
      <point x="495.8333333333333" y="142.66666666666666"/>
      <point x="431.0" y="90.66666666666667"/>
      <point x="325.6666666666667" y="90.66666666666667" type="curve" smooth="yes"/>
      <point x="241.16666666666666" y="90.66666666666667"/>
      <point x="197.0" y="123.33333333333333"/>
      <point x="197.0" y="205.33333333333334" type="curve" smooth="yes"/>
      <point x="197.0" y="225.5"/>
      <point x="199.66666666666666" y="248.0"/>
      <point x="204.33333333333334" y="273.3333333333333" type="curve" smooth="yes"/>
      <point x="291.0" y="720.0" type="line"/>
      <point x="175.66666666666666" y="720.0" type="line"/>
      <point x="89.66666666666667" y="276.6666666666667" type="line" smooth="yes"/>
      <point x="83.5" y="244.0"/>
      <point x="81.33333333333333" y="212.0"/>
    </contour>
  </outline>
</glyph>
<glyph name="V" format="2">
  <advance width="657.6666666666666"/>
  <unicode hex="0056"/>
  <note>
V
</note>
  <anchor x="275.8333333333333" y="0.0" name="bottom"/>
  <anchor x="415.8333333333333" y="720.0" name="top"/>
  <outline>
    <contour>
      <point x="38.666666666666664" y="17.333333333333332" type="curve"/>
      <point x="40.0" y="5.333333333333333" type="line"/>
      <point x="90.16666666666667" y="-6.666666666666667"/>
      <point x="141.66666666666666" y="-11.333333333333334"/>
      <point x="191.66666666666666" y="-11.333333333333334" type="curve" smooth="yes"/>
      <point x="390.3333333333333" y="-11.333333333333334"/>
      <point x="479.5" y="62.833333333333336"/>
      <point x="539.0" y="235.33333333333334" type="curve" smooth="yes"/>
      <point x="705.3333333333334" y="720.0" type="line"/>
      <point x="586.0" y="720.0" type="line"/>
      <point x="423.6666666666667" y="243.33333333333334" type="line" smooth="yes"/>
      <point x="390.6666666666667" y="145.33333333333334"/>
      <point x="345.0" y="88.0"/>
      <point x="222.33333333333334" y="88.0" type="curve" smooth="yes"/>
      <point x="193.66666666666666" y="88.0"/>
      <point x="172.66666666666666" y="91.33333333333333"/>
      <point x="147.33333333333334" y="98.0" type="curve"/>
      <point x="161.33333333333334" y="64.0" type="line"/>
      <point x="170.83333333333334" y="83.16666666666667"/>
      <point x="181.16666666666666" y="113.83333333333333"/>
      <point x="185.83333333333334" y="142.0" type="curve" smooth="yes"/>
      <point x="297.8333333333333" y="720.0" type="line"/>
      <point x="182.5" y="720.0" type="line"/>
      <point x="75.16666666666667" y="164.66666666666666" type="line" smooth="yes"/>
      <point x="67.16666666666667" y="124.66666666666667"/>
      <point x="51.333333333333336" y="56.666666666666664"/>
    </contour>
  </outline>
</glyph>
<glyph name="W" format="2">
  <advance width="1057.3333333333333"/>
  <unicode hex="0057"/>
  <note>
W
</note>
  <anchor x="475.6666666666667" y="0.0" name="bottom"/>
  <anchor x="615.6666666666666" y="720.0" name="top"/>
  <outline>
    <contour>
      <point x="614.0" y="-11.333333333333334" type="curve" smooth="yes"/>
      <point x="779.5" y="-11.333333333333334"/>
      <point x="866.6666666666666" y="74.66666666666667"/>
      <point x="929.3333333333334" y="236.66666666666666" type="curve" smooth="yes"/>
      <point x="1116.6666666666667" y="720.0" type="line"/>
      <point x="997.3333333333334" y="720.0" type="line"/>
      <point x="811.3333333333334" y="236.66666666666666" type="line" smooth="yes"/>
      <point x="776.0" y="144.5"/>
      <point x="732.6666666666666" y="88.0"/>
      <point x="640.0" y="88.0" type="curve" smooth="yes"/>
      <point x="612.6666666666666" y="88.0"/>
      <point x="595.5" y="88.33333333333333"/>
      <point x="568.0" y="99.33333333333333" type="curve"/>
      <point x="597.3333333333334" y="70.66666666666667" type="line"/>
      <point x="605.3333333333334" y="99.0"/>
      <point x="613.5" y="139.83333333333334"/>
      <point x="618.0" y="190.0" type="curve" smooth="yes"/>
      <point x="663.3333333333334" y="720.0" type="line"/>
      <point x="549.3333333333334" y="720.0" type="line"/>
      <point x="502.0" y="170.66666666666666" type="line" smooth="yes"/>
      <point x="498.6666666666667" y="130.83333333333334"/>
      <point x="488.3333333333333" y="56.666666666666664"/>
      <point x="478.0" y="17.333333333333332" type="curve"/>
      <point x="479.3333333333333" y="5.333333333333333" type="line"/>
      <point x="524.6666666666666" y="-3.3333333333333335"/>
      <point x="567.5" y="-11.333333333333334"/>
    </contour>
    <contour>
      <point x="208.0" y="-11.333333333333334" type="curve" smooth="yes"/>
      <point x="366.6666666666667" y="-11.333333333333334"/>
      <point x="446.8333333333333" y="75.5"/>
      <point x="503.0" y="233.33333333333334" type="curve" smooth="yes"/>
      <point x="532.6666666666666" y="317.3333333333333" type="line"/>
      <point x="553.3333333333334" y="586.6666666666666" type="line"/>
      <point x="411.3333333333333" y="240.0" type="line" smooth="yes"/>
      <point x="373.5" y="148.0"/>
      <point x="334.0" y="88.0"/>
      <point x="241.33333333333334" y="88.0" type="curve" smooth="yes"/>
      <point x="211.83333333333334" y="88.0"/>
      <point x="198.0" y="91.33333333333333"/>
      <point x="180.0" y="97.33333333333333" type="curve"/>
      <point x="194.0" y="68.0" type="line"/>
      <point x="200.33333333333334" y="98.66666666666667"/>
      <point x="206.0" y="138.83333333333334"/>
      <point x="211.33333333333334" y="190.0" type="curve" smooth="yes"/>
      <point x="260.0" y="720.0" type="line"/>
      <point x="144.66666666666666" y="720.0" type="line"/>
      <point x="98.0" y="177.33333333333334" type="line" smooth="yes"/>
      <point x="92.16666666666667" y="109.5"/>
      <point x="82.66666666666667" y="62.0"/>
      <point x="70.0" y="17.333333333333332" type="curve"/>
      <point x="71.33333333333333" y="5.333333333333333" type="line"/>
      <point x="114.0" y="-5.0"/>
      <point x="162.66666666666666" y="-11.333333333333334"/>
    </contour>
  </outline>
</glyph>
<glyph name="X" format="2">
  <advance width="667.6666666666666"/>
  <unicode hex="0058"/>
  <note>
X
</note>
  <anchor x="280.8333333333333" y="0.0" name="bottom"/>
  <anchor x="420.8333333333333" y="720.0" name="top"/>
  <outline>
    <contour>
      <point x="-19.333333333333332" y="0.0" type="line"/>
      <point x="106.66666666666666" y="0.0" type="line"/>
      <point x="388.6666666666667" y="328.0" type="line"/>
      <point x="728.0" y="711.3333333333334" type="line"/>
      <point x="728.0" y="720.0" type="line"/>
      <point x="602.0" y="720.0" type="line"/>
      <point x="327.3333333333333" y="399.3333333333333" type="line"/>
      <point x="-19.333333333333332" y="8.666666666666666" type="line"/>
    </contour>
    <contour>
      <point x="470.0" y="0.0" type="line"/>
      <point x="588.6666666666666" y="0.0" type="line"/>
      <point x="588.6666666666666" y="8.666666666666666" type="line"/>
      <point x="394.0" y="402.6666666666667" type="line"/>
      <point x="238.0" y="720.0" type="line"/>
      <point x="119.33333333333333" y="720.0" type="line"/>
      <point x="119.33333333333333" y="711.3333333333334" type="line"/>
      <point x="314.6666666666667" y="315.3333333333333" type="line"/>
    </contour>
  </outline>
</glyph>
<glyph name="Y" format="2">
  <advance width="622.6666666666666"/>
  <unicode hex="0059"/>
  <note>
Y
</note>
  <anchor x="258.3333333333333" y="0.0" name="bottom"/>
  <anchor x="398.3333333333333" y="720.0" name="top"/>
  <anchor x="107.0" y="720.0" name="topleft"/>
  <outline>
    <contour>
      <point x="262.5" y="306.5" type="line"/>
      <point x="203.0" y="0.0" type="line"/>
      <point x="318.3333333333333" y="0.0" type="line"/>
      <point x="376.8333333333333" y="302.5" type="line"/>
      <point x="704.3333333333334" y="711.3333333333334" type="line"/>
      <point x="704.3333333333334" y="720.0" type="line"/>
      <point x="581.0" y="720.0" type="line"/>
      <point x="310.6666666666667" y="370.0" type="line"/>
      <point x="350.6666666666667" y="370.6666666666667" type="line"/>
      <point x="215.33333333333334" y="720.0" type="line"/>
      <point x="98.33333333333333" y="720.0" type="line"/>
      <point x="98.33333333333333" y="711.3333333333334" type="line"/>
    </contour>
  </outline>
</glyph>
<glyph name="Z" format="2">
  <advance width="599.0"/>
  <unicode hex="005A"/>
  <note>
Z
</note>
  <anchor x="246.5" y="0.0" name="bottom"/>
  <anchor x="386.5" y="720.0" name="top"/>
  <outline>
    <contour>
      <point x="135.16666666666666" y="720.0" type="line"/>
      <point x="115.83333333333333" y="619.3333333333334" type="line"/>
      <point x="502.6666666666667" y="619.3333333333334" type="line"/>
      <point x="494.0" y="656.6666666666666" type="line"/>
      <point x="30.5" y="102.66666666666667" type="line" smooth="yes"/>
      <point x="-6.166666666666667" y="58.666666666666664"/>
      <point x="-9.666666666666666" y="29.666666666666664"/>
      <point x="-8.833333333333334" y="8.666666666666666" type="curve"/>
      <point x="-0.16666666666666674" y="0.0" type="line"/>
      <point x="505.8333333333333" y="0.0" type="line"/>
      <point x="525.1666666666666" y="100.66666666666666" type="line"/>
      <point x="120.66666666666666" y="100.66666666666666" type="line"/>
      <point x="130.66666666666666" y="64.66666666666667" type="line"/>
      <point x="594.5" y="617.3333333333334" type="line" smooth="yes"/>
      <point x="631.8333333333334" y="662.0"/>
      <point x="634.8333333333334" y="689.5"/>
      <point x="633.8333333333334" y="711.3333333333334" type="curve"/>
      <point x="625.8333333333334" y="720.0" type="line"/>
    </contour>
  </outline>
</glyph>
<glyph name="bracketleft" format="2">
  <advance width="354.6666666666667"/>
  <unicode hex="005B"/>
  <note>
bracketleft
</note>
  <outline>
    <contour>
      <point x="202.66666666666666" y="760.0" type="line"/>
      <point x="38.66666666666667" y="-88.0" type="line"/>
      <point x="266.6666666666667" y="-88.0" type="line"/>
      <point x="283.0" y="0.0" type="line"/>
      <point x="155.0" y="0.0" type="line"/>
      <point x="285.3333333333333" y="672.0" type="line"/>
      <point x="414.3333333333333" y="672.0" type="line"/>
      <point x="430.6666666666667" y="760.0" type="line"/>
    </contour>
  </outline>
</glyph>
<glyph name="backslash" format="2">
  <advance width="528.0"/>
  <unicode hex="005C"/>
  <note>
backslash
</note>
  <outline>
    <contour>
      <point x="361.0" y="0.0" type="line"/>
      <point x="456.3333333333333" y="0.0" type="line"/>
      <point x="207.0" y="720.0" type="line"/>
      <point x="111.66666666666667" y="720.0" type="line"/>
    </contour>
  </outline>
</glyph>
<glyph name="bracketright" format="2">
  <advance width="354.6666666666667"/>
  <unicode hex="005D"/>
  <note>
bracketright
</note>
  <outline>
    <contour>
      <point x="112.83333333333333" y="760.0" type="line"/>
      <point x="96.5" y="672.0" type="line"/>
      <point x="223.5" y="672.0" type="line"/>
      <point x="93.16666666666667" y="0.0" type="line"/>
      <point x="-34.833333333333336" y="0.0" type="line"/>
      <point x="-51.166666666666664" y="-88.0" type="line"/>
      <point x="176.83333333333334" y="-88.0" type="line"/>
      <point x="340.8333333333333" y="760.0" type="line"/>
    </contour>
  </outline>
</glyph>
<glyph name="asciicircum" format="2">
  <advance width="616.0"/>
  <unicode hex="005E"/>
  <note>
asciicircum
</note>
  <outline>
    <contour>
      <point x="86.33333333333333" y="396.6666666666667" type="line"/>
      <point x="183.0" y="396.6666666666667" type="line"/>
      <point x="310.0" y="606.0" type="line"/>
      <point x="437.5" y="396.6666666666667" type="line"/>
      <point x="533.5" y="396.6666666666667" type="line"/>
      <point x="533.5" y="404.6666666666667" type="line"/>
      <point x="340.0" y="730.0" type="line"/>
      <point x="280.0" y="730.0" type="line"/>
      <point x="86.33333333333333" y="404.6666666666667" type="line"/>
    </contour>
  </outline>
</glyph>
<glyph name="underscore" format="2">
  <advance width="500.0"/>
  <unicode hex="005F"/>
  <note>
underscore
</note>
  <outline>
    <contour>
      <point x="432.0" y="-12.0" type="line"/>
      <point x="-36.0" y="-12.0" type="line"/>
      <point x="-54.0" y="-102.0" type="line"/>
      <point x="414.0" y="-102.0" type="line"/>
    </contour>
  </outline>
</glyph>
<glyph name="a" format="2">
  <advance width="595.6666666666666"/>
  <unicode hex="0061"/>
  <note>
a
</note>
  <anchor x="244.83333333333334" y="0.0" name="bottom"/>
  <anchor x="477.3333333333333" y="26.666666666666668" name="ogonek"/>
  <anchor x="350.8333333333333" y="544.6666666666666" name="top"/>
  <outline>
    <contour>
      <point x="257.3333333333333" y="-12.0" type="curve" smooth="yes"/>
      <point x="335.3333333333333" y="-12.0"/>
      <point x="408.0" y="3.3333333333333335"/>
      <point x="477.3333333333333" y="26.666666666666668" type="curve"/>
      <point x="482.0" y="34.666666666666664" type="line"/>
      <point x="481.3333333333333" y="86.66666666666667"/>
      <point x="491.1666666666667" y="141.0"/>
      <point x="502.0" y="198.66666666666666" type="curve" smooth="yes"/>
      <point x="525.3333333333334" y="319.3333333333333" type="line" smooth="yes"/>
      <point x="555.8333333333334" y="478.0"/>
      <point x="485.3333333333333" y="557.3333333333334"/>
      <point x="312.6666666666667" y="557.3333333333334" type="curve" smooth="yes"/>
      <point x="249.33333333333334" y="557.3333333333334"/>
      <point x="202.0" y="547.6666666666666"/>
      <point x="150.33333333333334" y="530.6666666666666" type="curve"/>
      <point x="132.0" y="434.6666666666667" type="line"/>
      <point x="144.0" y="434.6666666666667" type="line"/>
      <point x="179.66666666666666" y="450.3333333333333"/>
      <point x="232.0" y="465.3333333333333"/>
      <point x="292.0" y="465.3333333333333" type="curve" smooth="yes"/>
      <point x="401.3333333333333" y="465.3333333333333"/>
      <point x="438.1666666666667" y="426.3333333333333"/>
      <point x="416.8333333333333" y="324.5" type="curve" smooth="yes"/>
      <point x="385.3333333333333" y="161.5" type="line" smooth="yes"/>
      <point x="378.6666666666667" y="127.5"/>
      <point x="375.1666666666667" y="94.66666666666667"/>
      <point x="382.3333333333333" y="65.0" type="curve"/>
      <point x="396.6666666666667" y="98.66666666666667" type="line"/>
      <point x="357.3333333333333" y="80.66666666666667"/>
      <point x="314.6666666666667" y="73.33333333333333"/>
      <point x="262.0" y="73.33333333333333" type="curve" smooth="yes"/>
      <point x="194.0" y="73.33333333333333"/>
      <point x="146.0" y="95.0"/>
      <point x="146.0" y="151.0" type="curve" smooth="yes"/>
      <point x="146.0" y="220.33333333333334"/>
      <point x="202.0" y="250.0"/>
      <point x="296.6666666666667" y="250.0" type="curve" smooth="yes"/>
      <point x="352.0" y="250.0"/>
      <point x="384.6666666666667" y="239.33333333333334"/>
      <point x="417.3333333333333" y="224.66666666666666" type="curve"/>
      <point x="421.3333333333333" y="310.6666666666667" type="line"/>
      <point x="403.8333333333333" y="316.6666666666667"/>
      <point x="358.0" y="332.6666666666667"/>
      <point x="292.0" y="332.6666666666667" type="curve" smooth="yes"/>
      <point x="153.33333333333334" y="332.6666666666667"/>
      <point x="37.333333333333336" y="277.3333333333333"/>
      <point x="37.333333333333336" y="145.33333333333334" type="curve" smooth="yes"/>
      <point x="37.333333333333336" y="41.333333333333336"/>
      <point x="115.33333333333333" y="-12.0"/>
    </contour>
  </outline>
</glyph>
<glyph name="b" format="2">
  <advance width="629.0"/>
  <unicode hex="0062"/>
  <note>
b
</note>
  <anchor x="261.5" y="0.0" name="bottom"/>
  <anchor x="409.3333333333333" y="760.0" name="top"/>
  <outline>
    <contour>
      <point x="250.0" y="-12.0" type="curve" smooth="yes"/>
      <point x="449.3333333333333" y="-12.0"/>
      <point x="592.0" y="116.0"/>
      <point x="592.0" y="320.6666666666667" type="curve" smooth="yes"/>
      <point x="592.0" y="473.3333333333333"/>
      <point x="497.3333333333333" y="557.3333333333334"/>
      <point x="362.0" y="557.3333333333334" type="curve" smooth="yes"/>
      <point x="316.3333333333333" y="557.3333333333334"/>
      <point x="277.0" y="547.6666666666666"/>
      <point x="243.33333333333334" y="533.3333333333334" type="curve"/>
      <point x="232.0" y="448.3333333333333" type="line"/>
      <point x="251.33333333333334" y="455.5"/>
      <point x="284.0" y="465.3333333333333"/>
      <point x="330.6666666666667" y="465.3333333333333" type="curve" smooth="yes"/>
      <point x="424.0" y="465.3333333333333"/>
      <point x="477.6666666666667" y="419.3333333333333"/>
      <point x="477.6666666666667" y="317.3333333333333" type="curve" smooth="yes"/>
      <point x="477.6666666666667" y="168.0"/>
      <point x="388.0" y="79.33333333333333"/>
      <point x="260.0" y="79.33333333333333" type="curve" smooth="yes"/>
      <point x="215.66666666666666" y="79.33333333333333"/>
      <point x="174.0" y="87.33333333333333"/>
      <point x="151.33333333333334" y="96.0" type="curve"/>
      <point x="159.33333333333334" y="72.66666666666667" type="line"/>
      <point x="168.0" y="90.83333333333333"/>
      <point x="177.33333333333334" y="119.66666666666667"/>
      <point x="185.33333333333334" y="157.33333333333334" type="curve" smooth="yes"/>
      <point x="303.3333333333333" y="760.0" type="line"/>
      <point x="184.5" y="760.0" type="line"/>
      <point x="179.83333333333334" y="751.3333333333334" type="line"/>
      <point x="181.0" y="712.6666666666666"/>
      <point x="165.66666666666666" y="630.6666666666666"/>
      <point x="157.5" y="589.3333333333334" type="curve" smooth="yes"/>
      <point x="72.33333333333333" y="156.0" type="line" smooth="yes"/>
      <point x="63.666666666666664" y="112.66666666666667"/>
      <point x="52.333333333333336" y="66.66666666666667"/>
      <point x="39.333333333333336" y="30.666666666666668" type="curve"/>
      <point x="43.333333333333336" y="22.666666666666668" type="line"/>
      <point x="95.33333333333333" y="0.0"/>
      <point x="176.66666666666666" y="-12.0"/>
    </contour>
  </outline>
</glyph>
<glyph name="c" format="2">
  <advance width="508.6666666666667"/>
  <unicode hex="0063"/>
  <note>
c
</note>
  <anchor x="251.66666666666666" y="0.0" name="bottom"/>
  <anchor x="348.6666666666667" y="544.6666666666666" name="top"/>
  <outline>
    <contour>
      <point x="46.666666666666664" y="222.0" type="curve" smooth="yes"/>
      <point x="46.666666666666664" y="73.33333333333333"/>
      <point x="135.33333333333334" y="-8.666666666666666"/>
      <point x="298.0" y="-8.666666666666666" type="curve" smooth="yes"/>
      <point x="343.3333333333333" y="-8.666666666666666"/>
      <point x="387.6666666666667" y="-1.0"/>
      <point x="423.3333333333333" y="14.0" type="curve"/>
      <point x="442.0" y="111.33333333333333" type="line"/>
      <point x="433.3333333333333" y="111.33333333333333" type="line"/>
      <point x="403.5" y="98.33333333333333"/>
      <point x="365.3333333333333" y="85.33333333333333"/>
      <point x="316.0" y="85.33333333333333" type="curve" smooth="yes"/>
      <point x="220.0" y="85.33333333333333"/>
      <point x="161.0" y="130.66666666666666"/>
      <point x="161.0" y="224.66666666666666" type="curve" smooth="yes"/>
      <point x="161.0" y="377.3333333333333"/>
      <point x="264.0" y="463.3333333333333"/>
      <point x="392.0" y="463.3333333333333" type="curve" smooth="yes"/>
      <point x="442.6666666666667" y="463.3333333333333"/>
      <point x="473.6666666666667" y="452.0"/>
      <point x="496.6666666666667" y="439.0" type="curve"/>
      <point x="505.3333333333333" y="439.0" type="line"/>
      <point x="524.0" y="534.6666666666666" type="line"/>
      <point x="495.6666666666667" y="549.6666666666666"/>
      <point x="443.3333333333333" y="557.3333333333334"/>
      <point x="396.0" y="557.3333333333334" type="curve" smooth="yes"/>
      <point x="192.66666666666666" y="557.3333333333334"/>
      <point x="46.666666666666664" y="424.6666666666667"/>
    </contour>
  </outline>
</glyph>
<glyph name="d" format="2">
  <advance width="629.0"/>
  <unicode hex="0064"/>
  <note>
d
</note>
  <anchor x="256.5" y="0.0" name="bottom"/>
  <anchor x="534.0" y="655.0" name="center"/>
  <anchor x="418.3333333333333" y="760.0" name="top"/>
  <anchor x="720.5" y="544.6666666666666" name="topright"/>
  <outline>
    <contour>
      <point x="480.6666666666667" y="443.3333333333333" type="curve"/>
      <point x="500.0" y="533.3333333333334" type="line"/>
      <point x="476.0" y="545.3333333333334"/>
      <point x="429.0" y="557.3333333333334"/>
      <point x="376.3333333333333" y="557.3333333333334" type="curve" smooth="yes"/>
      <point x="173.66666666666666" y="557.3333333333334"/>
      <point x="46.666666666666664" y="417.3333333333333"/>
      <point x="46.666666666666664" y="226.66666666666666" type="curve" smooth="yes"/>
      <point x="46.666666666666664" y="65.33333333333333"/>
      <point x="149.0" y="-12.0"/>
      <point x="298.0" y="-12.0" type="curve" smooth="yes"/>
      <point x="373.3333333333333" y="-12.0"/>
      <point x="436.0" y="1.3333333333333333"/>
      <point x="500.0" y="24.666666666666668" type="curve"/>
      <point x="504.6666666666667" y="32.666666666666664" type="line"/>
      <point x="506.3333333333333" y="71.33333333333333"/>
      <point x="513.0" y="121.66666666666667"/>
      <point x="521.3333333333334" y="163.33333333333334" type="curve" smooth="yes"/>
      <point x="637.6666666666666" y="760.0" type="line"/>
      <point x="519.0" y="760.0" type="line"/>
      <point x="514.3333333333334" y="751.3333333333334" type="line"/>
      <point x="515.5" y="712.6666666666666"/>
      <point x="500.0" y="629.3333333333334"/>
      <point x="492.0" y="589.3333333333334" type="curve" smooth="yes"/>
      <point x="410.6666666666667" y="170.0" type="line" smooth="yes"/>
      <point x="404.0" y="136.0"/>
      <point x="402.0" y="99.33333333333333"/>
      <point x="402.6666666666667" y="70.0" type="curve"/>
      <point x="426.0" y="104.0" type="line"/>
      <point x="399.3333333333333" y="89.33333333333333"/>
      <point x="358.0" y="80.0"/>
      <point x="311.3333333333333" y="80.0" type="curve" smooth="yes"/>
      <point x="210.66666666666666" y="80.0"/>
      <point x="161.0" y="126.66666666666667"/>
      <point x="161.0" y="226.66666666666666" type="curve" smooth="yes"/>
      <point x="161.0" y="376.6666666666667"/>
      <point x="248.0" y="466.0"/>
      <point x="372.6666666666667" y="466.0" type="curve" smooth="yes"/>
      <point x="430.6666666666667" y="466.0"/>
      <point x="461.3333333333333" y="454.6666666666667"/>
    </contour>
  </outline>
</glyph>
<glyph name="e" format="2">
  <advance width="604.6666666666666"/>
  <unicode hex="0065"/>
  <note>
e
</note>
  <anchor x="255.83333333333334" y="0.0" name="bottom"/>
  <anchor x="469.8333333333333" y="18.666666666666668" name="ogonek"/>
  <anchor x="360.8333333333333" y="544.6666666666666" name="top"/>
  <outline>
    <contour>
      <point x="313.1666666666667" y="-8.666666666666666" type="curve" smooth="yes"/>
      <point x="376.5" y="-8.666666666666666"/>
      <point x="435.1666666666667" y="2.666666666666667"/>
      <point x="469.8333333333333" y="18.666666666666668" type="curve"/>
      <point x="488.5" y="115.33333333333333" type="line"/>
      <point x="479.8333333333333" y="115.33333333333333" type="line"/>
      <point x="448.6666666666667" y="99.33333333333333"/>
      <point x="391.1666666666667" y="84.0"/>
      <point x="325.8333333333333" y="84.0" type="curve" smooth="yes"/>
      <point x="224.5" y="84.0"/>
      <point x="160.83333333333334" y="128.66666666666666"/>
      <point x="160.83333333333334" y="225.33333333333334" type="curve" smooth="yes"/>
      <point x="160.83333333333334" y="244.0" type="line" smooth="yes"/>
      <point x="160.83333333333334" y="354.6666666666667"/>
      <point x="229.83333333333334" y="467.3333333333333"/>
      <point x="346.5" y="467.3333333333333" type="curve" smooth="yes"/>
      <point x="427.1666666666667" y="467.3333333333333"/>
      <point x="459.5" y="426.6666666666667"/>
      <point x="459.5" y="360.6666666666667" type="curve" smooth="yes"/>
      <point x="459.5" y="350.3333333333333"/>
      <point x="457.5" y="333.6666666666667"/>
      <point x="453.8333333333333" y="318.6666666666667" type="curve"/>
      <point x="122.5" y="318.6666666666667" type="line"/>
      <point x="122.5" y="236.66666666666666" type="line"/>
      <point x="549.8333333333334" y="236.66666666666666" type="line"/>
      <point x="560.1666666666666" y="274.0"/>
      <point x="569.8333333333334" y="318.6666666666667"/>
      <point x="569.8333333333334" y="362.0" type="curve" smooth="yes"/>
      <point x="569.8333333333334" y="476.6666666666667"/>
      <point x="497.8333333333333" y="557.3333333333334"/>
      <point x="351.1666666666667" y="557.3333333333334" type="curve" smooth="yes"/>
      <point x="164.5" y="557.3333333333334"/>
      <point x="47.833333333333336" y="400.0"/>
      <point x="47.833333333333336" y="222.66666666666666" type="curve" smooth="yes"/>
      <point x="47.833333333333336" y="72.0"/>
      <point x="144.5" y="-8.666666666666666"/>
    </contour>
  </outline>
</glyph>
<glyph name="f" format="2">
  <advance width="357.3333333333333"/>
  <unicode hex="0066"/>
  <note>
f
</note>
  <anchor x="125.66666666666667" y="0.0" name="bottom"/>
  <anchor x="273.5" y="760.0" name="top"/>
  <outline>
    <contour>
      <point x="52.0" y="0.0" type="line"/>
      <point x="164.0" y="0.0" type="line"/>
      <point x="270.0" y="544.6666666666666" type="line"/>
      <point x="283.3333333333333" y="626.6666666666666"/>
      <point x="318.6666666666667" y="670.6666666666666"/>
      <point x="394.6666666666667" y="670.6666666666666" type="curve" smooth="yes"/>
      <point x="426.0" y="670.6666666666666"/>
      <point x="443.0" y="666.3333333333334"/>
      <point x="461.3333333333333" y="658.6666666666666" type="curve"/>
      <point x="470.0" y="658.6666666666666" type="line"/>
      <point x="488.3333333333333" y="750.6666666666666" type="line"/>
      <point x="470.0" y="758.3333333333334"/>
      <point x="434.6666666666667" y="762.6666666666666"/>
      <point x="401.3333333333333" y="762.6666666666666" type="curve" smooth="yes"/>
      <point x="270.6666666666667" y="762.6666666666666"/>
      <point x="188.66666666666666" y="700.0"/>
      <point x="158.0" y="544.6666666666666" type="curve" smooth="yes"/>
    </contour>
    <contour>
      <point x="55.333333333333336" y="451.3333333333333" type="line"/>
      <point x="399.3333333333333" y="451.3333333333333" type="line"/>
      <point x="418.0" y="544.6666666666666" type="line"/>
      <point x="74.0" y="544.6666666666666" type="line"/>
    </contour>
  </outline>
</glyph>
<glyph name="g" format="2">
  <advance width="628.3333333333334"/>
  <unicode hex="0067"/>
  <note>
g
</note>
  <anchor x="214.16666666666666" y="-240.0" name="bottom"/>
  <anchor x="367.1666666666667" y="544.6666666666666" name="top"/>
  <outline>
    <contour>
      <point x="166.0" y="-240.0" type="curve" smooth="yes"/>
      <point x="362.0" y="-240.0"/>
      <point x="460.3333333333333" y="-146.0"/>
      <point x="492.0" y="14.666666666666666" type="curve" smooth="yes"/>
      <point x="565.5" y="390.0" type="line" smooth="yes"/>
      <point x="573.5" y="430.0"/>
      <point x="586.0" y="478.0"/>
      <point x="598.6666666666666" y="510.6666666666667" type="curve"/>
      <point x="594.0" y="519.3333333333334" type="line"/>
      <point x="535.1666666666666" y="543.3333333333334"/>
      <point x="465.0" y="556.0"/>
      <point x="388.6666666666667" y="556.0" type="curve" smooth="yes"/>
      <point x="186.0" y="556.0"/>
      <point x="49.333333333333336" y="429.3333333333333"/>
      <point x="49.333333333333336" y="232.0" type="curve" smooth="yes"/>
      <point x="49.333333333333336" y="76.66666666666667"/>
      <point x="154.66666666666666" y="3.3333333333333335"/>
      <point x="298.6666666666667" y="3.3333333333333335" type="curve" smooth="yes"/>
      <point x="337.3333333333333" y="3.3333333333333335"/>
      <point x="372.6666666666667" y="11.333333333333334"/>
      <point x="392.0" y="20.0" type="curve"/>
      <point x="410.0" y="111.33333333333333" type="line"/>
      <point x="391.3333333333333" y="103.33333333333333"/>
      <point x="364.6666666666667" y="95.33333333333333"/>
      <point x="320.0" y="95.33333333333333" type="curve" smooth="yes"/>
      <point x="220.33333333333334" y="95.33333333333333"/>
      <point x="163.66666666666666" y="135.33333333333334"/>
      <point x="163.66666666666666" y="234.66666666666666" type="curve" smooth="yes"/>
      <point x="163.66666666666666" y="378.6666666666667"/>
      <point x="249.33333333333334" y="464.6666666666667"/>
      <point x="377.3333333333333" y="464.6666666666667" type="curve" smooth="yes"/>
      <point x="428.6666666666667" y="464.6666666666667"/>
      <point x="454.0" y="457.5"/>
      <point x="490.6666666666667" y="439.3333333333333" type="curve"/>
      <point x="474.0" y="466.3333333333333" type="line"/>
      <point x="466.6666666666667" y="449.0"/>
      <point x="459.8333333333333" y="425.3333333333333"/>
      <point x="452.6666666666667" y="388.6666666666667" type="curve" smooth="yes"/>
      <point x="383.3333333333333" y="32.0" type="line"/>
      <point x="364.6666666666667" y="-84.0"/>
      <point x="299.3333333333333" y="-146.0"/>
      <point x="174.66666666666666" y="-146.0" type="curve" smooth="yes"/>
      <point x="130.0" y="-146.0"/>
      <point x="77.33333333333333" y="-137.33333333333334"/>
      <point x="38.666666666666664" y="-117.33333333333333" type="curve"/>
      <point x="30.0" y="-117.33333333333333" type="line"/>
      <point x="11.333333333333334" y="-214.66666666666666" type="line"/>
      <point x="50.666666666666664" y="-231.33333333333334"/>
      <point x="116.66666666666667" y="-240.0"/>
    </contour>
  </outline>
</glyph>
<glyph name="h" format="2">
  <advance width="648.6666666666666"/>
  <unicode hex="0068"/>
  <note>
h
</note>
  <anchor x="275.0" y="0.0" name="bottom"/>
  <anchor x="249.5" y="655.0" name="center"/>
  <anchor x="231.5" y="760.0" name="top"/>
  <outline>
    <contour>
      <point x="152.0" y="0.0" type="line"/>
      <point x="300.0" y="760.0" type="line"/>
      <point x="181.16666666666666" y="760.0" type="line"/>
      <point x="176.5" y="751.3333333333334" type="line"/>
      <point x="177.66666666666666" y="712.6666666666666"/>
      <point x="162.33333333333334" y="630.6666666666666"/>
      <point x="154.16666666666666" y="589.3333333333334" type="curve" smooth="yes"/>
      <point x="40.0" y="0.0" type="line"/>
    </contour>
    <contour>
      <point x="237.33333333333334" y="533.3333333333334" type="curve"/>
      <point x="215.33333333333334" y="434.6666666666667" type="line"/>
      <point x="255.0" y="451.0"/>
      <point x="302.0" y="463.3333333333333"/>
      <point x="345.3333333333333" y="463.3333333333333" type="curve" smooth="yes"/>
      <point x="418.6666666666667" y="463.3333333333333"/>
      <point x="463.0" y="438.0"/>
      <point x="463.0" y="363.6666666666667" type="curve" smooth="yes"/>
      <point x="463.0" y="348.8333333333333"/>
      <point x="461.1666666666667" y="329.6666666666667"/>
      <point x="457.3333333333333" y="308.6666666666667" type="curve" smooth="yes"/>
      <point x="398.0" y="0.0" type="line"/>
      <point x="510.0" y="0.0" type="line"/>
      <point x="569.3333333333334" y="308.6666666666667" type="line" smooth="yes"/>
      <point x="574.5" y="336.1666666666667"/>
      <point x="577.3333333333334" y="361.3333333333333"/>
      <point x="577.3333333333334" y="382.0" type="curve" smooth="yes"/>
      <point x="577.3333333333334" y="505.3333333333333"/>
      <point x="493.3333333333333" y="557.3333333333334"/>
      <point x="373.3333333333333" y="557.3333333333334" type="curve" smooth="yes"/>
      <point x="324.6666666666667" y="557.3333333333334"/>
      <point x="274.6666666666667" y="546.0"/>
    </contour>
  </outline>
</glyph>
<glyph name="k" format="2">
  <advance width="563.3333333333334"/>
  <unicode hex="006B"/>
  <note>
k
</note>
  <anchor x="228.66666666666666" y="0.0" name="bottom"/>
  <anchor x="376.5" y="760.0" name="top"/>
  <outline>
    <contour>
      <point x="478.3333333333333" y="544.6666666666666" type="line"/>
      <point x="187.33333333333334" y="284.6666666666667" type="line"/>
      <point x="372.3333333333333" y="0.0" type="line"/>
      <point x="500.3333333333333" y="0.0" type="line"/>
      <point x="500.3333333333333" y="12.0" type="line"/>
      <point x="478.6666666666667" y="36.666666666666664"/>
      <point x="453.8333333333333" y="76.33333333333333"/>
      <point x="433.3333333333333" y="106.0" type="curve" smooth="yes"/>
      <point x="289.3333333333333" y="318.0" type="line"/>
      <point x="282.6666666666667" y="252.66666666666666" type="line"/>
      <point x="512.0" y="455.3333333333333" type="line" smooth="yes"/>
      <point x="545.6666666666666" y="483.8333333333333"/>
      <point x="584.8333333333334" y="516.0"/>
      <point x="608.6666666666666" y="532.6666666666666" type="curve"/>
      <point x="608.6666666666666" y="544.6666666666666" type="line"/>
    </contour>
    <contour>
      <point x="151.33333333333334" y="0.0" type="line"/>
      <point x="299.3333333333333" y="760.0" type="line"/>
      <point x="180.5" y="760.0" type="line"/>
      <point x="175.83333333333334" y="751.3333333333334" type="line"/>
      <point x="177.0" y="712.6666666666666"/>
      <point x="161.66666666666666" y="630.6666666666666"/>
      <point x="153.5" y="589.3333333333334" type="curve" smooth="yes"/>
      <point x="39.333333333333336" y="0.0" type="line"/>
    </contour>
  </outline>
</glyph>
<glyph name="l" format="2">
  <advance width="294.6666666666667"/>
  <unicode hex="006C"/>
  <note>
l
</note>
  <anchor x="89.33333333333333" y="0.0" name="bottom"/>
  <anchor x="184.0" y="388.3333333333333" name="center"/>
  <anchor x="364.0" y="359.3333333333333" name="periodCAT"/>
  <anchor x="251.16666666666666" y="760.0" name="top"/>
  <anchor x="382.0" y="544.6666666666666" name="topright"/>
  <outline>
    <contour>
      <point x="40.0" y="0.0" type="line"/>
      <point x="152.0" y="0.0" type="line"/>
      <point x="300.0" y="760.0" type="line"/>
      <point x="181.16666666666666" y="760.0" type="line"/>
      <point x="176.5" y="751.3333333333334" type="line"/>
      <point x="177.66666666666666" y="712.6666666666666"/>
      <point x="162.33333333333334" y="630.6666666666666"/>
      <point x="154.16666666666666" y="589.3333333333334" type="curve" smooth="yes"/>
    </contour>
  </outline>
</glyph>
<glyph name="m" format="2">
  <advance width="968.6666666666666"/>
  <unicode hex="006D"/>
  <note>
m
</note>
  <anchor x="431.3333333333333" y="0.0" name="bottom"/>
  <anchor x="537.3333333333334" y="544.6666666666666" name="top"/>
  <outline>
    <contour>
      <point x="40.0" y="0.0" type="line"/>
      <point x="152.0" y="0.0" type="line"/>
      <point x="225.33333333333334" y="378.6666666666667" type="line" smooth="yes"/>
      <point x="231.0" y="411.8333333333333"/>
      <point x="233.83333333333334" y="446.1666666666667"/>
      <point x="232.66666666666666" y="470.6666666666667" type="curve"/>
      <point x="211.33333333333334" y="440.0" type="line"/>
      <point x="247.66666666666666" y="453.6666666666667"/>
      <point x="292.6666666666667" y="463.3333333333333"/>
      <point x="334.6666666666667" y="463.3333333333333" type="curve" smooth="yes"/>
      <point x="414.6666666666667" y="463.3333333333333"/>
      <point x="451.5" y="438.0"/>
      <point x="451.5" y="363.6666666666667" type="curve" smooth="yes"/>
      <point x="451.5" y="348.0"/>
      <point x="449.6666666666667" y="329.6666666666667"/>
      <point x="445.8333333333333" y="308.6666666666667" type="curve" smooth="yes"/>
      <point x="386.5" y="0.0" type="line"/>
      <point x="498.5" y="0.0" type="line"/>
      <point x="557.8333333333334" y="308.6666666666667" type="line" smooth="yes"/>
      <point x="563.0" y="336.1666666666667"/>
      <point x="565.8333333333334" y="361.3333333333333"/>
      <point x="565.8333333333334" y="382.0" type="curve" smooth="yes"/>
      <point x="565.8333333333334" y="506.6666666666667"/>
      <point x="488.6666666666667" y="557.3333333333334"/>
      <point x="350.6666666666667" y="557.3333333333334" type="curve" smooth="yes"/>
      <point x="292.0" y="557.3333333333334"/>
      <point x="196.0" y="540.6666666666666"/>
      <point x="136.0" y="517.3333333333334" type="curve"/>
      <point x="131.33333333333334" y="509.3333333333333" type="line"/>
      <point x="129.66666666666666" y="470.6666666666667"/>
      <point x="123.0" y="427.1666666666667"/>
      <point x="114.66666666666667" y="385.3333333333333" type="curve" smooth="yes"/>
    </contour>
    <contour>
      <point x="717.3333333333334" y="0.0" type="line"/>
      <point x="829.3333333333334" y="0.0" type="line"/>
      <point x="888.6666666666666" y="308.6666666666667" type="line" smooth="yes"/>
      <point x="893.8333333333334" y="336.1666666666667"/>
      <point x="896.6666666666666" y="361.3333333333333"/>
      <point x="896.6666666666666" y="382.0" type="curve" smooth="yes"/>
      <point x="896.6666666666666" y="512.0"/>
      <point x="814.0" y="557.3333333333334"/>
      <point x="686.5" y="557.3333333333334" type="curve" smooth="yes"/>
      <point x="621.3333333333334" y="557.3333333333334"/>
      <point x="550.0" y="537.3333333333334"/>
      <point x="493.3333333333333" y="513.3333333333334" type="curve"/>
      <point x="543.3333333333334" y="434.0" type="line"/>
      <point x="580.6666666666666" y="452.6666666666667"/>
      <point x="618.0" y="463.3333333333333"/>
      <point x="664.6666666666666" y="463.3333333333333" type="curve" smooth="yes"/>
      <point x="744.6666666666666" y="463.3333333333333"/>
      <point x="782.3333333333334" y="438.0"/>
      <point x="782.3333333333334" y="363.6666666666667" type="curve" smooth="yes"/>
      <point x="782.3333333333334" y="348.0"/>
      <point x="780.5" y="329.6666666666667"/>
      <point x="776.6666666666666" y="308.6666666666667" type="curve" smooth="yes"/>
    </contour>
  </outline>
</glyph>
<glyph name="n" format="2">
  <advance width="648.6666666666666"/>
  <unicode hex="006E"/>
  <note>
n
</note>
  <anchor x="271.3333333333333" y="0.0" name="bottom"/>
  <anchor x="377.3333333333333" y="544.6666666666666" name="top"/>
  <outline>
    <contour>
      <point x="40.0" y="0.0" type="line"/>
      <point x="152.0" y="0.0" type="line"/>
      <point x="225.33333333333334" y="378.6666666666667" type="line" smooth="yes"/>
      <point x="231.0" y="411.8333333333333"/>
      <point x="233.83333333333334" y="445.5"/>
      <point x="232.66666666666666" y="470.0" type="curve"/>
      <point x="211.33333333333334" y="439.3333333333333" type="line"/>
      <point x="244.0" y="451.3333333333333"/>
      <point x="292.6666666666667" y="463.3333333333333"/>
      <point x="338.6666666666667" y="463.3333333333333" type="curve" smooth="yes"/>
      <point x="418.6666666666667" y="463.3333333333333"/>
      <point x="463.0" y="438.0"/>
      <point x="463.0" y="363.6666666666667" type="curve" smooth="yes"/>
      <point x="463.0" y="348.0"/>
      <point x="461.1666666666667" y="329.6666666666667"/>
      <point x="457.3333333333333" y="308.6666666666667" type="curve" smooth="yes"/>
      <point x="398.0" y="0.0" type="line"/>
      <point x="510.0" y="0.0" type="line"/>
      <point x="569.3333333333334" y="308.6666666666667" type="line" smooth="yes"/>
      <point x="574.5" y="336.1666666666667"/>
      <point x="577.3333333333334" y="361.3333333333333"/>
      <point x="577.3333333333334" y="382.0" type="curve" smooth="yes"/>
      <point x="577.3333333333334" y="512.0"/>
      <point x="488.0" y="557.3333333333334"/>
      <point x="354.6666666666667" y="557.3333333333334" type="curve" smooth="yes"/>
      <point x="296.0" y="557.3333333333334"/>
      <point x="196.0" y="540.6666666666666"/>
      <point x="136.0" y="517.3333333333334" type="curve"/>
      <point x="131.33333333333334" y="509.3333333333333" type="line"/>
      <point x="129.66666666666666" y="470.6666666666667"/>
      <point x="123.0" y="427.1666666666667"/>
      <point x="114.66666666666667" y="385.3333333333333" type="curve" smooth="yes"/>
    </contour>
  </outline>
</glyph>
<glyph name="o" format="2">
  <advance width="615.3333333333334"/>
  <unicode hex="006F"/>
  <note>
o
</note>
  <anchor x="254.66666666666666" y="0.0" name="bottom"/>
  <anchor x="307.6666666666667" y="272.3333333333333" name="center"/>
  <anchor x="346.1666666666667" y="0.0" name="ogonek"/>
  <anchor x="361.3333333333333" y="544.6666666666666" name="top"/>
  <anchor x="433.6666666666667" y="544.6666666666666" name="topright"/>
  <outline>
    <contour>
      <point x="46.666666666666664" y="210.66666666666666" type="curve" smooth="yes"/>
      <point x="46.666666666666664" y="74.66666666666667"/>
      <point x="129.33333333333334" y="-8.666666666666666"/>
      <point x="271.3333333333333" y="-8.666666666666666" type="curve" smooth="yes"/>
      <point x="475.3333333333333" y="-8.666666666666666"/>
      <point x="576.6666666666666" y="164.66666666666666"/>
      <point x="576.6666666666666" y="338.0" type="curve" smooth="yes"/>
      <point x="576.6666666666666" y="474.0"/>
      <point x="494.0" y="557.3333333333334"/>
      <point x="352.0" y="557.3333333333334" type="curve" smooth="yes"/>
      <point x="148.0" y="557.3333333333334"/>
      <point x="46.666666666666664" y="384.0"/>
    </contour>
    <contour>
      <point x="161.0" y="208.66666666666666" type="curve" smooth="yes"/>
      <point x="161.0" y="324.0"/>
      <point x="214.0" y="466.0"/>
      <point x="344.0" y="466.0" type="curve" smooth="yes"/>
      <point x="417.3333333333333" y="466.0"/>
      <point x="462.3333333333333" y="424.6666666666667"/>
      <point x="462.3333333333333" y="340.0" type="curve" smooth="yes"/>
      <point x="462.3333333333333" y="224.66666666666666"/>
      <point x="409.3333333333333" y="82.66666666666667"/>
      <point x="279.3333333333333" y="82.66666666666667" type="curve" smooth="yes"/>
      <point x="206.0" y="82.66666666666667"/>
      <point x="161.0" y="124.0"/>
    </contour>
  </outline>
</glyph>
<glyph name="p" format="2">
  <advance width="629.6666666666666"/>
  <unicode hex="0070"/>
  <note>
p
</note>
  <anchor x="261.8333333333333" y="0.0" name="bottom"/>
  <anchor x="367.8333333333333" y="544.6666666666666" name="top"/>
  <outline>
    <contour>
      <point x="153.33333333333334" y="104.66666666666667" type="curve"/>
      <point x="136.66666666666666" y="12.666666666666666" type="line"/>
      <point x="159.33333333333334" y="0.0"/>
      <point x="208.66666666666666" y="-12.0"/>
      <point x="261.3333333333333" y="-12.0" type="curve" smooth="yes"/>
      <point x="464.0" y="-12.0"/>
      <point x="591.0" y="128.0"/>
      <point x="591.0" y="318.6666666666667" type="curve" smooth="yes"/>
      <point x="591.0" y="480.0"/>
      <point x="488.6666666666667" y="557.3333333333334"/>
      <point x="348.0" y="557.3333333333334" type="curve" smooth="yes"/>
      <point x="269.3333333333333" y="557.3333333333334"/>
      <point x="196.66666666666666" y="540.6666666666666"/>
      <point x="137.66666666666666" y="520.6666666666666" type="curve"/>
      <point x="133.0" y="512.6666666666666" type="line"/>
      <point x="131.33333333333334" y="474.0"/>
      <point x="124.66666666666667" y="430.6666666666667"/>
      <point x="116.33333333333333" y="388.6666666666667" type="curve" smooth="yes"/>
      <point x="-4.0" y="-232.0" type="line"/>
      <point x="108.0" y="-232.0" type="line"/>
      <point x="227.0" y="382.0" type="line" smooth="yes"/>
      <point x="233.66666666666666" y="415.1666666666667"/>
      <point x="235.16666666666666" y="448.8333333333333"/>
      <point x="232.66666666666666" y="474.0" type="curve"/>
      <point x="213.33333333333334" y="440.0" type="line"/>
      <point x="244.33333333333334" y="454.3333333333333"/>
      <point x="285.3333333333333" y="465.3333333333333"/>
      <point x="331.3333333333333" y="465.3333333333333" type="curve" smooth="yes"/>
      <point x="426.0" y="465.3333333333333"/>
      <point x="476.6666666666667" y="418.0"/>
      <point x="476.6666666666667" y="318.6666666666667" type="curve" smooth="yes"/>
      <point x="476.6666666666667" y="168.66666666666666"/>
      <point x="391.3333333333333" y="79.33333333333333"/>
      <point x="263.3333333333333" y="79.33333333333333" type="curve" smooth="yes"/>
      <point x="202.0" y="79.33333333333333"/>
      <point x="174.0" y="91.33333333333333"/>
    </contour>
  </outline>
</glyph>
<glyph name="q" format="2">
  <advance width="629.0"/>
  <unicode hex="0071"/>
  <note>
q
</note>
  <anchor x="261.5" y="0.0" name="bottom"/>
  <anchor x="367.5" y="544.6666666666666" name="top"/>
  <outline>
    <contour>
      <point x="403.3333333333333" y="10.0" type="curve"/>
      <point x="422.6666666666667" y="103.33333333333333" type="line"/>
      <point x="392.6666666666667" y="88.0"/>
      <point x="356.0" y="80.0"/>
      <point x="311.3333333333333" y="80.0" type="curve" smooth="yes"/>
      <point x="213.33333333333334" y="80.0"/>
      <point x="161.0" y="127.33333333333333"/>
      <point x="161.0" y="227.33333333333334" type="curve" smooth="yes"/>
      <point x="161.0" y="376.6666666666667"/>
      <point x="244.0" y="466.0"/>
      <point x="375.3333333333333" y="466.0" type="curve" smooth="yes"/>
      <point x="428.0" y="466.0"/>
      <point x="456.0" y="458.6666666666667"/>
      <point x="493.3333333333333" y="438.6666666666667" type="curve"/>
      <point x="480.6666666666667" y="471.6666666666667" type="line"/>
      <point x="466.6666666666667" y="447.0"/>
      <point x="460.6666666666667" y="422.3333333333333"/>
      <point x="454.0" y="386.6666666666667" type="curve" smooth="yes"/>
      <point x="333.6666666666667" y="-232.0" type="line"/>
      <point x="445.6666666666667" y="-232.0" type="line"/>
      <point x="568.6666666666666" y="398.6666666666667" type="line" smooth="yes"/>
      <point x="576.6666666666666" y="438.6666666666667"/>
      <point x="587.3333333333334" y="479.3333333333333"/>
      <point x="600.0" y="512.0" type="curve"/>
      <point x="595.3333333333334" y="520.6666666666666" type="line"/>
      <point x="536.5" y="544.6666666666666"/>
      <point x="463.0" y="557.3333333333334"/>
      <point x="386.6666666666667" y="557.3333333333334" type="curve" smooth="yes"/>
      <point x="180.66666666666666" y="557.3333333333334"/>
      <point x="46.666666666666664" y="427.3333333333333"/>
      <point x="46.666666666666664" y="224.66666666666666" type="curve" smooth="yes"/>
      <point x="46.666666666666664" y="67.33333333333333"/>
      <point x="146.0" y="-12.0"/>
      <point x="292.0" y="-12.0" type="curve" smooth="yes"/>
      <point x="334.0" y="-12.0"/>
      <point x="372.0" y="-3.3333333333333335"/>
    </contour>
  </outline>
</glyph>
<glyph name="r" format="2">
  <advance width="394.0"/>
  <unicode hex="0072"/>
  <note>
r
</note>
  <anchor x="93.33333333333333" y="0.0" name="bottom"/>
  <anchor x="250.0" y="544.6666666666666" name="top"/>
  <outline>
    <contour>
      <point x="114.0" y="385.3333333333333" type="curve" smooth="yes"/>
      <point x="39.333333333333336" y="0.0" type="line"/>
      <point x="151.33333333333334" y="0.0" type="line"/>
      <point x="224.66666666666666" y="378.6666666666667" type="line" smooth="yes"/>
      <point x="230.5" y="411.5"/>
      <point x="232.5" y="445.3333333333333"/>
      <point x="232.66666666666666" y="471.3333333333333" type="curve"/>
      <point x="210.83333333333334" y="440.8333333333333" type="line"/>
      <point x="243.66666666666666" y="450.5"/>
      <point x="288.6666666666667" y="457.3333333333333"/>
      <point x="334.0" y="457.3333333333333" type="curve" smooth="yes"/>
      <point x="355.3333333333333" y="457.3333333333333"/>
      <point x="379.3333333333333" y="455.0"/>
      <point x="396.6666666666667" y="452.0" type="curve"/>
      <point x="405.3333333333333" y="452.0" type="line"/>
      <point x="424.0" y="546.0" type="line"/>
      <point x="404.1666666666667" y="548.8333333333334"/>
      <point x="372.0" y="550.6666666666666"/>
      <point x="342.6666666666667" y="550.6666666666666" type="curve" smooth="yes"/>
      <point x="278.0" y="550.6666666666666"/>
      <point x="191.16666666666666" y="537.3333333333334"/>
      <point x="135.33333333333334" y="517.3333333333334" type="curve"/>
      <point x="130.66666666666666" y="509.3333333333333" type="line"/>
      <point x="129.0" y="470.6666666666667"/>
      <point x="122.33333333333333" y="427.1666666666667"/>
    </contour>
  </outline>
</glyph>
<glyph name="s" format="2">
  <advance width="511.3333333333333"/>
  <unicode hex="0073"/>
  <note>
s
</note>
  <anchor x="202.66666666666666" y="0.0" name="bottom"/>
  <anchor x="308.6666666666667" y="544.6666666666666" name="top"/>
  <outline>
    <contour>
      <point x="29.333333333333332" y="119.0" type="line"/>
      <point x="10.666666666666666" y="20.0" type="line"/>
      <point x="60.666666666666664" y="0.0"/>
      <point x="136.0" y="-8.0"/>
      <point x="202.0" y="-8.0" type="curve" smooth="yes"/>
      <point x="355.3333333333333" y="-8.0"/>
      <point x="455.0" y="46.666666666666664"/>
      <point x="455.0" y="160.0" type="curve" smooth="yes"/>
      <point x="455.0" y="246.0"/>
      <point x="387.0" y="285.6666666666667"/>
      <point x="308.6666666666667" y="305.3333333333333" type="curve" smooth="yes"/>
      <point x="276.0" y="313.3333333333333" type="line" smooth="yes"/>
      <point x="220.0" y="327.3333333333333"/>
      <point x="178.66666666666666" y="336.0"/>
      <point x="178.66666666666666" y="382.6666666666667" type="curve" smooth="yes"/>
      <point x="178.66666666666666" y="436.6666666666667"/>
      <point x="236.66666666666666" y="461.3333333333333"/>
      <point x="322.0" y="461.3333333333333" type="curve" smooth="yes"/>
      <point x="379.3333333333333" y="461.3333333333333"/>
      <point x="414.6666666666667" y="451.8333333333333"/>
      <point x="458.0" y="434.3333333333333" type="curve"/>
      <point x="466.6666666666667" y="434.3333333333333" type="line"/>
      <point x="485.3333333333333" y="530.0" type="line"/>
      <point x="442.6666666666667" y="546.0"/>
      <point x="394.6666666666667" y="553.3333333333334"/>
      <point x="330.6666666666667" y="553.3333333333334" type="curve" smooth="yes"/>
      <point x="152.0" y="553.3333333333334"/>
      <point x="68.66666666666667" y="472.6666666666667"/>
      <point x="68.66666666666667" y="374.0" type="curve" smooth="yes"/>
      <point x="68.66666666666667" y="291.3333333333333"/>
      <point x="126.0" y="255.66666666666666"/>
      <point x="218.0" y="232.66666666666666" type="curve" smooth="yes"/>
      <point x="250.66666666666666" y="224.66666666666666" type="line" smooth="yes"/>
      <point x="305.8333333333333" y="211.5"/>
      <point x="344.6666666666667" y="199.0"/>
      <point x="344.6666666666667" y="155.33333333333334" type="curve" smooth="yes"/>
      <point x="344.6666666666667" y="92.0"/>
      <point x="270.0" y="84.0"/>
      <point x="206.0" y="84.0" type="curve" smooth="yes"/>
      <point x="142.66666666666666" y="84.0"/>
      <point x="82.0" y="96.66666666666667"/>
      <point x="38.0" y="119.0" type="curve"/>
    </contour>
  </outline>
</glyph>
<glyph name="u" format="2">
  <advance width="642.0"/>
  <unicode hex="0075"/>
  <note>
u
</note>
  <anchor x="268.0" y="0.0" name="bottom"/>
  <anchor x="514.0" y="28.0" name="ogonek"/>
  <anchor x="374.0" y="544.6666666666666" name="top"/>
  <anchor x="536.3333333333334" y="544.6666666666666" name="topright"/>
  <outline>
    <contour>
      <point x="72.66666666666667" y="163.33333333333334" type="curve" smooth="yes"/>
      <point x="72.66666666666667" y="33.333333333333336"/>
      <point x="162.0" y="-12.0"/>
      <point x="295.3333333333333" y="-12.0" type="curve" smooth="yes"/>
      <point x="354.0" y="-12.0"/>
      <point x="454.0" y="4.666666666666667"/>
      <point x="514.0" y="28.0" type="curve"/>
      <point x="518.6666666666666" y="36.0" type="line"/>
      <point x="520.3333333333334" y="74.66666666666667"/>
      <point x="527.0" y="118.16666666666667"/>
      <point x="535.3333333333334" y="160.0" type="curve" smooth="yes"/>
      <point x="610.0" y="544.6666666666666" type="line"/>
      <point x="491.3333333333333" y="544.6666666666666" type="line"/>
      <point x="486.6666666666667" y="536.0" type="line"/>
      <point x="487.8333333333333" y="497.3333333333333"/>
      <point x="474.1666666666667" y="422.0"/>
      <point x="466.0" y="380.6666666666667" type="curve" smooth="yes"/>
      <point x="424.6666666666667" y="166.66666666666666" type="line" smooth="yes"/>
      <point x="417.1666666666667" y="133.33333333333334"/>
      <point x="416.0" y="99.0"/>
      <point x="416.6666666666667" y="74.66666666666667" type="curve"/>
      <point x="441.3333333333333" y="106.0" type="line"/>
      <point x="403.3333333333333" y="90.66666666666667"/>
      <point x="354.0" y="82.0"/>
      <point x="311.3333333333333" y="82.0" type="curve" smooth="yes"/>
      <point x="231.33333333333334" y="82.0"/>
      <point x="187.0" y="107.33333333333333"/>
      <point x="187.0" y="181.66666666666666" type="curve" smooth="yes"/>
      <point x="187.0" y="197.33333333333334"/>
      <point x="188.83333333333334" y="215.66666666666666"/>
      <point x="192.66666666666666" y="236.66666666666666" type="curve" smooth="yes"/>
      <point x="252.0" y="544.6666666666666" type="line"/>
      <point x="133.33333333333334" y="544.6666666666666" type="line"/>
      <point x="128.66666666666666" y="536.0" type="line"/>
      <point x="129.83333333333334" y="497.3333333333333"/>
      <point x="116.16666666666667" y="422.0"/>
      <point x="108.0" y="380.6666666666667" type="curve" smooth="yes"/>
      <point x="80.66666666666667" y="236.66666666666666" type="line" smooth="yes"/>
      <point x="75.5" y="209.16666666666666"/>
      <point x="72.66666666666667" y="184.0"/>
    </contour>
  </outline>
</glyph>
<glyph name="v" format="2">
  <advance width="553.3333333333334"/>
  <unicode hex="0076"/>
  <note>
v
</note>
  <anchor x="223.66666666666666" y="0.0" name="bottom"/>
  <anchor x="329.6666666666667" y="544.6666666666666" name="top"/>
  <outline>
    <contour>
      <point x="66.66666666666667" y="532.6666666666666" type="line"/>
      <point x="155.33333333333334" y="0.0" type="line"/>
      <point x="299.3333333333333" y="0.0" type="line"/>
      <point x="598.6666666666666" y="532.6666666666666" type="line"/>
      <point x="598.6666666666666" y="544.6666666666666" type="line"/>
      <point x="484.6666666666667" y="544.6666666666666" type="line"/>
      <point x="228.66666666666666" y="67.33333333333333" type="line"/>
      <point x="253.33333333333334" y="56.0" type="line"/>
      <point x="183.33333333333334" y="544.6666666666666" type="line"/>
      <point x="66.66666666666667" y="544.6666666666666" type="line"/>
    </contour>
  </outline>
</glyph>
<glyph name="w" format="2">
  <advance width="804.0"/>
  <unicode hex="0077"/>
  <note>
w
</note>
  <anchor x="349.0" y="0.0" name="bottom"/>
  <anchor x="455.0" y="544.6666666666666" name="top"/>
  <outline>
    <contour>
      <point x="66.66666666666667" y="532.6666666666666" type="line"/>
      <point x="112.0" y="0.0" type="line"/>
      <point x="240.66666666666666" y="0.0" type="line"/>
      <point x="450.6666666666667" y="412.6666666666667" type="line"/>
      <point x="419.3333333333333" y="412.6666666666667" type="line"/>
      <point x="465.3333333333333" y="0.0" type="line"/>
      <point x="593.3333333333334" y="0.0" type="line"/>
      <point x="848.6666666666666" y="532.6666666666666" type="line"/>
      <point x="848.6666666666666" y="544.6666666666666" type="line"/>
      <point x="734.6666666666666" y="544.6666666666666" type="line"/>
      <point x="528.6666666666666" y="84.66666666666667" type="line"/>
      <point x="549.3333333333334" y="80.0" type="line"/>
      <point x="502.0" y="544.6666666666666" type="line"/>
      <point x="420.0" y="544.6666666666666" type="line"/>
      <point x="186.0" y="86.66666666666667" type="line"/>
      <point x="210.66666666666666" y="69.33333333333333" type="line"/>
      <point x="183.33333333333334" y="544.6666666666666" type="line"/>
      <point x="66.66666666666667" y="544.6666666666666" type="line"/>
    </contour>
  </outline>
</glyph>
<glyph name="x" format="2">
  <advance width="553.3333333333334"/>
  <unicode hex="0078"/>
  <note>
x
</note>
  <anchor x="223.66666666666666" y="0.0" name="bottom"/>
  <anchor x="329.6666666666667" y="544.6666666666666" name="top"/>
  <outline>
    <contour>
      <point x="-21.333333333333332" y="0.0" type="line"/>
      <point x="96.0" y="0.0" type="line"/>
      <point x="310.6666666666667" y="238.0" type="line"/>
      <point x="588.0" y="536.0" type="line"/>
      <point x="588.0" y="544.6666666666666" type="line"/>
      <point x="470.6666666666667" y="544.6666666666666" type="line"/>
      <point x="259.3333333333333" y="310.0" type="line"/>
      <point x="-21.333333333333332" y="8.666666666666666" type="line"/>
    </contour>
    <contour>
      <point x="361.3333333333333" y="0.0" type="line"/>
      <point x="476.6666666666667" y="0.0" type="line"/>
      <point x="476.6666666666667" y="8.666666666666666" type="line"/>
      <point x="315.3333333333333" y="304.0" type="line"/>
      <point x="189.33333333333334" y="544.6666666666666" type="line"/>
      <point x="74.0" y="544.6666666666666" type="line"/>
      <point x="74.0" y="536.0" type="line"/>
      <point x="238.66666666666666" y="230.66666666666666" type="line"/>
    </contour>
  </outline>
</glyph>
<glyph name="y" format="2">
  <advance width="550.6666666666666"/>
  <unicode hex="0079"/>
  <note>
y
</note>
  <anchor x="370.6666666666667" y="0.0" name="bottom"/>
  <anchor x="328.3333333333333" y="544.6666666666666" name="top"/>
  <outline>
    <contour>
      <point x="32.333333333333336" y="-232.0" type="line"/>
      <point x="145.66666666666666" y="-232.0" type="line"/>
      <point x="595.0" y="532.6666666666666" type="line"/>
      <point x="595.0" y="544.6666666666666" type="line"/>
      <point x="482.3333333333333" y="544.6666666666666" type="line"/>
      <point x="201.33333333333334" y="48.666666666666664" type="line"/>
      <point x="32.333333333333336" y="-220.0" type="line"/>
    </contour>
    <contour>
      <point x="172.0" y="-37.33333333333333" type="line"/>
      <point x="252.0" y="116.66666666666667" type="line"/>
      <point x="181.0" y="544.6666666666666" type="line"/>
      <point x="64.33333333333333" y="544.6666666666666" type="line"/>
      <point x="64.33333333333333" y="532.6666666666666" type="line"/>
    </contour>
  </outline>
</glyph>
<glyph name="z" format="2">
  <advance width="532.0"/>
  <unicode hex="007A"/>
  <note>
z
</note>
  <anchor x="213.0" y="0.0" name="bottom"/>
  <anchor x="319.0" y="544.6666666666666" name="top"/>
  <outline>
    <contour>
      <point x="88.66666666666667" y="449.6666666666667" type="line"/>
      <point x="421.3333333333333" y="449.6666666666667" type="line"/>
      <point x="392.6666666666667" y="475.3333333333333" type="line"/>
      <point x="379.3333333333333" y="440.6666666666667"/>
      <point x="351.0" y="416.1666666666667"/>
      <point x="322.6666666666667" y="390.6666666666667" type="curve"/>
      <point x="98.66666666666667" y="185.33333333333334" type="line" smooth="yes"/>
      <point x="55.833333333333336" y="145.66666666666666"/>
      <point x="-4.0" y="96.66666666666667"/>
      <point x="-3.3333333333333335" y="8.666666666666666" type="curve"/>
      <point x="4.666666666666667" y="0.0" type="line"/>
      <point x="445.3333333333333" y="0.0" type="line"/>
      <point x="462.3333333333333" y="91.66666666666667" type="line"/>
      <point x="104.66666666666666" y="91.66666666666667" type="line"/>
      <point x="134.66666666666666" y="70.66666666666667" type="line"/>
      <point x="141.33333333333334" y="97.33333333333333"/>
      <point x="178.0" y="130.16666666666666"/>
      <point x="204.66666666666666" y="154.0" type="curve" smooth="yes"/>
      <point x="428.6666666666667" y="359.3333333333333" type="line" smooth="yes"/>
      <point x="471.5" y="399.0"/>
      <point x="531.3333333333334" y="448.0"/>
      <point x="530.6666666666666" y="536.0" type="curve"/>
      <point x="522.6666666666666" y="544.6666666666666" type="line"/>
      <point x="107.33333333333333" y="544.6666666666666" type="line"/>
    </contour>
  </outline>
</glyph>
<glyph name="braceleft" format="2">
  <advance width="391.3333333333333"/>
  <unicode hex="007B"/>
  <note>
braceleft
</note>
  <outline>
    <contour>
      <point x="120.66666666666667" y="214.0" type="curve" smooth="yes"/>
      <point x="91.33333333333333" y="67.33333333333333" type="line" smooth="yes"/>
      <point x="72.16666666666667" y="-30.833333333333332"/>
      <point x="114.83333333333333" y="-88.0"/>
      <point x="220.66666666666666" y="-88.0" type="curve" smooth="yes"/>
      <point x="300.0" y="-88.0" type="line"/>
      <point x="316.6666666666667" y="-0.6666666666666679" type="line"/>
      <point x="242.66666666666666" y="-0.6666666666666679" type="line" smooth="yes"/>
      <point x="202.66666666666666" y="-0.6666666666666679"/>
      <point x="185.83333333333334" y="20.5"/>
      <point x="194.0" y="64.0" type="curve" smooth="yes"/>
      <point x="223.33333333333334" y="214.0" type="line" smooth="yes"/>
      <point x="237.0" y="284.6666666666667"/>
      <point x="206.0" y="326.0"/>
      <point x="152.0" y="336.0" type="curve"/>
      <point x="209.16666666666666" y="345.5"/>
      <point x="258.0" y="386.0"/>
      <point x="272.0" y="458.0" type="curve" smooth="yes"/>
      <point x="299.6666666666667" y="601.3333333333334" type="line" smooth="yes"/>
      <point x="309.6666666666667" y="652.6666666666666"/>
      <point x="333.1666666666667" y="672.6666666666666"/>
      <point x="374.0" y="672.6666666666666" type="curve" smooth="yes"/>
      <point x="449.3333333333333" y="672.6666666666666" type="line"/>
      <point x="467.6666666666667" y="760.0" type="line"/>
      <point x="378.0" y="760.0" type="line" smooth="yes"/>
      <point x="273.1666666666667" y="760.0"/>
      <point x="216.66666666666666" y="706.0"/>
      <point x="196.66666666666666" y="604.6666666666666" type="curve" smooth="yes"/>
      <point x="167.33333333333334" y="458.0" type="line" smooth="yes"/>
      <point x="159.33333333333334" y="418.0"/>
      <point x="135.33333333333334" y="386.0"/>
      <point x="87.33333333333333" y="386.0" type="curve" smooth="yes"/>
      <point x="40.166666666666664" y="386.0" type="line"/>
      <point x="20.666666666666668" y="286.0" type="line"/>
      <point x="68.66666666666667" y="286.0" type="line" smooth="yes"/>
      <point x="119.66666666666667" y="286.0"/>
      <point x="128.33333333333334" y="254.0"/>
    </contour>
  </outline>
</glyph>
<glyph name="bar" format="2">
  <advance width="308.0"/>
  <unicode hex="007C"/>
  <note>
bar
</note>
  <outline>
    <contour>
      <point x="203.33333333333334" y="760.0" type="line"/>
      <point x="4.0" y="-251.33333333333334" type="line"/>
      <point x="106.0" y="-251.33333333333334" type="line"/>
      <point x="305.3333333333333" y="760.0" type="line"/>
    </contour>
  </outline>
</glyph>
<glyph name="braceright" format="2">
  <advance width="391.1666666666667"/>
  <unicode hex="007D"/>
  <note>
braceright
</note>
  <outline>
    <contour>
      <point x="-51.5" y="-88.0" type="line"/>
      <point x="38.166666666666664" y="-88.0" type="line" smooth="yes"/>
      <point x="143.0" y="-88.0"/>
      <point x="199.5" y="-34.0"/>
      <point x="219.5" y="67.33333333333333" type="curve" smooth="yes"/>
      <point x="248.83333333333334" y="214.0" type="line" smooth="yes"/>
      <point x="256.8333333333333" y="254.0"/>
      <point x="280.8333333333333" y="286.0"/>
      <point x="328.8333333333333" y="286.0" type="curve" smooth="yes"/>
      <point x="376.0" y="286.0" type="line"/>
      <point x="395.5" y="386.0" type="line"/>
      <point x="347.5" y="386.0" type="line" smooth="yes"/>
      <point x="296.5" y="386.0"/>
      <point x="287.8333333333333" y="418.0"/>
      <point x="295.5" y="458.0" type="curve" smooth="yes"/>
      <point x="324.8333333333333" y="604.6666666666666" type="line" smooth="yes"/>
      <point x="344.0" y="702.8333333333334"/>
      <point x="301.3333333333333" y="760.0"/>
      <point x="195.5" y="760.0" type="curve" smooth="yes"/>
      <point x="116.16666666666667" y="760.0" type="line"/>
      <point x="99.5" y="672.6666666666666" type="line"/>
      <point x="173.5" y="672.6666666666666" type="line" smooth="yes"/>
      <point x="213.5" y="672.6666666666666"/>
      <point x="230.33333333333334" y="651.5"/>
      <point x="222.16666666666666" y="608.0" type="curve" smooth="yes"/>
      <point x="192.83333333333334" y="458.0" type="line" smooth="yes"/>
      <point x="179.16666666666666" y="387.3333333333333"/>
      <point x="210.16666666666666" y="346.0"/>
      <point x="264.1666666666667" y="336.0" type="curve"/>
      <point x="207.0" y="326.5"/>
      <point x="158.16666666666666" y="286.0"/>
      <point x="144.16666666666666" y="214.0" type="curve" smooth="yes"/>
      <point x="116.5" y="70.66666666666667" type="line" smooth="yes"/>
      <point x="106.5" y="19.333333333333332"/>
      <point x="83.0" y="-0.6666666666666679"/>
      <point x="42.166666666666664" y="-0.6666666666666679" type="curve" smooth="yes"/>
      <point x="-33.166666666666664" y="-0.6666666666666679" type="line"/>
    </contour>
  </outline>
</glyph>
<glyph name="asciitilde" format="2">
  <advance width="616.0"/>
  <unicode hex="007E"/>
  <note>
asciitilde
</note>
  <outline>
    <contour>
      <point x="547.8333333333334" y="411.0" type="curve"/>
      <point x="460.6666666666667" y="411.0" type="line"/>
      <point x="457.3333333333333" y="361.3333333333333"/>
      <point x="448.3333333333333" y="310.0"/>
      <point x="405.0" y="310.0" type="curve" smooth="yes"/>
      <point x="376.8333333333333" y="310.0"/>
      <point x="355.0" y="335.6666666666667"/>
      <point x="326.6666666666667" y="361.1666666666667" type="curve" smooth="yes"/>
      <point x="298.8333333333333" y="386.1666666666667"/>
      <point x="263.8333333333333" y="411.0"/>
      <point x="210.83333333333334" y="411.0" type="curve" smooth="yes"/>
      <point x="107.66666666666667" y="411.0"/>
      <point x="69.16666666666667" y="319.1666666666667"/>
      <point x="65.83333333333333" y="221.66666666666666" type="curve"/>
      <point x="153.0" y="221.66666666666666" type="line"/>
      <point x="156.33333333333334" y="271.3333333333333"/>
      <point x="165.33333333333334" y="322.6666666666667"/>
      <point x="208.66666666666666" y="322.6666666666667" type="curve" smooth="yes"/>
      <point x="236.83333333333334" y="322.6666666666667"/>
      <point x="258.6666666666667" y="297.0"/>
      <point x="287.0" y="271.5" type="curve" smooth="yes"/>
      <point x="314.8333333333333" y="246.5"/>
      <point x="349.8333333333333" y="221.66666666666666"/>
      <point x="402.8333333333333" y="221.66666666666666" type="curve" smooth="yes"/>
      <point x="506.0" y="221.66666666666666"/>
      <point x="544.5" y="313.5"/>
    </contour>
  </outline>
</glyph>
<glyph name="exclamdown" format="2">
  <advance width="307.3333333333333"/>
  <unicode hex="00A1"/>
  <note>
exclamdown
</note>
  <outline>
    <contour>
      <point x="7.333333333333334" y="-184.66666666666666" type="line"/>
      <point x="126.0" y="-184.66666666666666" type="line"/>
      <point x="180.66666666666666" y="107.33333333333333" type="line" smooth="yes"/>
      <point x="199.83333333333334" y="208.33333333333334"/>
      <point x="208.0" y="268.6666666666667"/>
      <point x="211.33333333333334" y="322.0" type="curve"/>
      <point x="121.33333333333333" y="322.0" type="line"/>
      <point x="108.66666666666667" y="285.3333333333333"/>
      <point x="89.5" y="216.66666666666666"/>
      <point x="68.66666666666667" y="107.33333333333333" type="curve" smooth="yes"/>
      <point x="42.666666666666664" y="-28.666666666666668" type="line" smooth="yes"/>
      <point x="37.333333333333336" y="-55.833333333333336"/>
      <point x="21.666666666666668" y="-140.0"/>
      <point x="6.666666666666667" y="-176.0" type="curve"/>
    </contour>
    <contour>
      <point x="184.33333333333334" y="400.6666666666667" type="curve" smooth="yes"/>
      <point x="233.16666666666666" y="400.6666666666667"/>
      <point x="264.6666666666667" y="442.6666666666667"/>
      <point x="264.6666666666667" y="486.0" type="curve" smooth="yes"/>
      <point x="264.6666666666667" y="521.3333333333334"/>
      <point x="243.16666666666666" y="544.0"/>
      <point x="203.66666666666666" y="544.0" type="curve" smooth="yes"/>
      <point x="156.66666666666666" y="544.0"/>
      <point x="123.33333333333333" y="502.0"/>
      <point x="123.33333333333333" y="458.6666666666667" type="curve" smooth="yes"/>
      <point x="123.33333333333333" y="423.3333333333333"/>
      <point x="146.5" y="400.6666666666667"/>
    </contour>
  </outline>
</glyph>
<glyph name="cent" format="2">
  <advance width="616.0"/>
  <unicode hex="00A2"/>
  <note>
cent
</note>
  <outline>
    <contour>
      <point x="364.5" y="604.0" type="line"/>
      <point x="461.1666666666667" y="604.0" type="line"/>
      <point x="499.0" y="800.0" type="line"/>
      <point x="402.3333333333333" y="800.0" type="line"/>
    </contour>
    <contour>
      <point x="99.0" y="322.0" type="curve" smooth="yes"/>
      <point x="99.0" y="173.33333333333334"/>
      <point x="187.33333333333334" y="91.33333333333333"/>
      <point x="350.3333333333333" y="91.33333333333333" type="curve" smooth="yes"/>
      <point x="395.6666666666667" y="91.33333333333333"/>
      <point x="440.0" y="99.0"/>
      <point x="475.6666666666667" y="114.0" type="curve"/>
      <point x="494.3333333333333" y="211.33333333333334" type="line"/>
      <point x="485.6666666666667" y="211.33333333333334" type="line"/>
      <point x="455.8333333333333" y="198.33333333333334"/>
      <point x="417.6666666666667" y="185.33333333333334"/>
      <point x="368.3333333333333" y="185.33333333333334" type="curve" smooth="yes"/>
      <point x="272.3333333333333" y="185.33333333333334"/>
      <point x="213.33333333333334" y="230.66666666666666"/>
      <point x="213.33333333333334" y="324.6666666666667" type="curve" smooth="yes"/>
      <point x="213.33333333333334" y="477.3333333333333"/>
      <point x="316.3333333333333" y="563.3333333333334"/>
      <point x="444.3333333333333" y="563.3333333333334" type="curve" smooth="yes"/>
      <point x="495.0" y="563.3333333333334"/>
      <point x="526.0" y="552.0"/>
      <point x="549.0" y="539.0" type="curve"/>
      <point x="557.6666666666666" y="539.0" type="line"/>
      <point x="576.3333333333334" y="634.6666666666666" type="line"/>
      <point x="548.0" y="649.6666666666666"/>
      <point x="495.6666666666667" y="657.3333333333334"/>
      <point x="448.3333333333333" y="657.3333333333334" type="curve" smooth="yes"/>
      <point x="245.0" y="657.3333333333334"/>
      <point x="99.0" y="524.6666666666666"/>
    </contour>
    <contour>
      <point x="236.5" y="-64.0" type="line"/>
      <point x="333.1666666666667" y="-64.0" type="line"/>
      <point x="371.0" y="132.0" type="line"/>
      <point x="274.3333333333333" y="132.0" type="line"/>
    </contour>
  </outline>
</glyph>
<glyph name="sterling" format="2">
  <advance width="616.0"/>
  <unicode hex="00A3"/>
  <note>
sterling
</note>
  <outline>
    <contour>
      <point x="138.0" y="30.0" type="line"/>
      <point x="250.0" y="30.0" type="line"/>
      <point x="334.6666666666667" y="468.0" type="line" smooth="yes"/>
      <point x="355.3333333333333" y="574.0"/>
      <point x="401.3333333333333" y="640.6666666666666"/>
      <point x="506.6666666666667" y="640.6666666666666" type="curve" smooth="yes"/>
      <point x="560.3333333333334" y="640.6666666666666"/>
      <point x="590.8333333333334" y="630.0"/>
      <point x="613.3333333333334" y="618.6666666666666" type="curve"/>
      <point x="622.0" y="618.6666666666666" type="line"/>
      <point x="640.0" y="712.6666666666666" type="line"/>
      <point x="609.5" y="724.0"/>
      <point x="566.0" y="732.0"/>
      <point x="511.3333333333333" y="732.0" type="curve" smooth="yes"/>
      <point x="331.3333333333333" y="732.0"/>
      <point x="250.5" y="612.0"/>
      <point x="222.66666666666666" y="467.3333333333333" type="curve" smooth="yes"/>
    </contour>
    <contour>
      <point x="70.66666666666667" y="330.0" type="line"/>
      <point x="495.3333333333333" y="330.0" type="line"/>
      <point x="513.3333333333334" y="425.3333333333333" type="line"/>
      <point x="88.66666666666667" y="425.3333333333333" type="line"/>
    </contour>
    <contour>
      <point x="-1.3333333333333333" y="0.0" type="line"/>
      <point x="510.0" y="0.0" type="line"/>
      <point x="528.0" y="95.33333333333333" type="line"/>
      <point x="17.333333333333332" y="95.33333333333333" type="line"/>
    </contour>
  </outline>
</glyph>
<glyph name="currency" format="2">
  <advance width="616.0"/>
  <unicode hex="00A4"/>
  <note>
currency
</note>
  <outline>
    <contour>
      <point x="440.6666666666667" y="148.16666666666666" type="line"/>
      <point x="503.5" y="200.66666666666666" type="line"/>
      <point x="463.5" y="251.5" type="line"/>
      <point x="495.6666666666667" y="291.6666666666667"/>
      <point x="517.6666666666666" y="348.0"/>
      <point x="517.6666666666666" y="404.3333333333333" type="curve" smooth="yes"/>
      <point x="517.6666666666666" y="428.1666666666667"/>
      <point x="512.8333333333334" y="450.0"/>
      <point x="505.1666666666667" y="469.0" type="curve"/>
      <point x="565.5" y="519.3333333333334" type="line"/>
      <point x="522.8333333333334" y="570.8333333333334" type="line"/>
      <point x="465.1666666666667" y="522.6666666666666" type="line"/>
      <point x="440.0" y="540.5"/>
      <point x="405.8333333333333" y="551.5"/>
      <point x="362.8333333333333" y="551.5" type="curve" smooth="yes"/>
      <point x="320.1666666666667" y="551.5"/>
      <point x="282.3333333333333" y="539.8333333333334"/>
      <point x="249.33333333333334" y="522.1666666666666" type="curve"/>
      <point x="211.66666666666666" y="571.6666666666666" type="line"/>
      <point x="148.66666666666666" y="519.3333333333334" type="line"/>
      <point x="188.0" y="469.0" type="line"/>
      <point x="154.83333333333334" y="428.6666666666667"/>
      <point x="133.16666666666666" y="371.5"/>
      <point x="133.16666666666666" y="314.6666666666667" type="curve" smooth="yes"/>
      <point x="133.16666666666666" y="290.8333333333333"/>
      <point x="138.0" y="268.8333333333333"/>
      <point x="146.0" y="249.83333333333334" type="curve"/>
      <point x="86.66666666666667" y="200.66666666666666" type="line"/>
      <point x="129.5" y="149.0" type="line"/>
      <point x="186.33333333333334" y="196.83333333333334" type="line"/>
      <point x="211.66666666666666" y="179.0"/>
      <point x="245.5" y="168.33333333333334"/>
      <point x="288.1666666666667" y="168.33333333333334" type="curve" smooth="yes"/>
      <point x="331.1666666666667" y="168.33333333333334"/>
      <point x="369.3333333333333" y="180.0"/>
      <point x="402.5" y="198.16666666666666" type="curve"/>
    </contour>
    <contour>
      <point x="303.0" y="243.16666666666666" type="curve"/>
      <point x="247.16666666666666" y="243.16666666666666"/>
      <point x="216.83333333333334" y="276.5"/>
      <point x="216.83333333333334" y="329.5" type="curve" smooth="yes"/>
      <point x="216.83333333333334" y="413.8333333333333"/>
      <point x="275.5" y="475.8333333333333"/>
      <point x="348.1666666666667" y="475.8333333333333" type="curve" smooth="yes"/>
      <point x="403.8333333333333" y="476.6666666666667"/>
      <point x="434.1666666666667" y="443.1666666666667"/>
      <point x="434.1666666666667" y="390.3333333333333" type="curve" smooth="yes"/>
      <point x="434.1666666666667" y="305.8333333333333"/>
      <point x="375.3333333333333" y="244.0"/>
    </contour>
  </outline>
</glyph>
<glyph name="yen" format="2">
  <advance width="616.0"/>
  <unicode hex="00A5"/>
  <note>
yen
</note>
  <outline>
    <contour>
      <point x="338.6666666666667" y="288.6666666666667" type="line"/>
      <point x="675.3333333333334" y="711.3333333333334" type="line"/>
      <point x="675.3333333333334" y="720.0" type="line"/>
      <point x="562.6666666666666" y="720.0" type="line"/>
      <point x="302.0" y="378.0" type="line"/>
    </contour>
    <contour>
      <point x="289.3333333333333" y="294.0" type="line"/>
      <point x="358.6666666666667" y="384.0" type="line"/>
      <point x="228.66666666666666" y="720.0" type="line"/>
      <point x="115.33333333333333" y="720.0" type="line"/>
      <point x="115.33333333333333" y="711.3333333333334" type="line"/>
    </contour>
    <contour>
      <point x="121.33333333333333" y="334.6666666666667" type="line"/>
      <point x="524.6666666666666" y="334.6666666666667" type="line"/>
      <point x="541.6666666666666" y="420.6666666666667" type="line"/>
      <point x="138.33333333333334" y="420.6666666666667" type="line"/>
    </contour>
    <contour>
      <point x="203.33333333333334" y="0.0" type="line"/>
      <point x="316.0" y="0.0" type="line"/>
      <point x="392.0" y="394.0" type="line"/>
      <point x="279.3333333333333" y="394.0" type="line"/>
    </contour>
    <contour>
      <point x="92.66666666666667" y="179.33333333333334" type="line"/>
      <point x="496.0" y="179.33333333333334" type="line"/>
      <point x="513.0" y="265.3333333333333" type="line"/>
      <point x="109.66666666666667" y="265.3333333333333" type="line"/>
    </contour>
  </outline>
</glyph>
<glyph name="brokenbar" format="2">
  <advance width="308.0"/>
  <unicode hex="00A6"/>
  <note>
brokenbar
</note>
  <outline>
    <contour>
      <point x="200.0" y="760.0" type="line"/>
      <point x="135.0" y="423.3333333333333" type="line"/>
      <point x="237.0" y="423.3333333333333" type="line"/>
      <point x="302.0" y="760.0" type="line"/>
    </contour>
    <contour>
      <point x="171.83333333333334" y="88.66666666666667" type="line"/>
      <point x="69.83333333333333" y="88.66666666666667" type="line"/>
      <point x="4.0" y="-251.33333333333334" type="line"/>
      <point x="106.0" y="-251.33333333333334" type="line"/>
    </contour>
  </outline>
</glyph>
<glyph name="section" format="2">
  <advance width="602.6666666666666"/>
  <unicode hex="00A7"/>
  <note>
section
</note>
  <outline>
    <contour>
      <point x="290.3333333333333" y="66.0" type="line"/>
      <point x="371.0" y="66.0" type="line"/>
      <point x="454.3333333333333" y="101.33333333333333"/>
      <point x="526.3333333333334" y="154.0"/>
      <point x="526.3333333333334" y="250.66666666666666" type="curve" smooth="yes"/>
      <point x="526.3333333333334" y="345.0"/>
      <point x="467.1666666666667" y="381.8333333333333"/>
      <point x="389.0" y="413.3333333333333" type="curve" smooth="yes"/>
      <point x="341.6666666666667" y="432.6666666666667" type="line" smooth="yes"/>
      <point x="287.1666666666667" y="454.8333333333333"/>
      <point x="251.66666666666666" y="466.6666666666667"/>
      <point x="251.66666666666666" y="519.3333333333334" type="curve" smooth="yes"/>
      <point x="251.66666666666666" y="593.3333333333334"/>
      <point x="315.6666666666667" y="634.0"/>
      <point x="410.3333333333333" y="634.0" type="curve" smooth="yes"/>
      <point x="479.6666666666667" y="634.0"/>
      <point x="516.1666666666666" y="622.0"/>
      <point x="550.3333333333334" y="606.0" type="curve"/>
      <point x="559.0" y="606.0" type="line"/>
      <point x="578.6666666666666" y="708.6666666666666" type="line"/>
      <point x="545.0" y="720.6666666666666"/>
      <point x="491.6666666666667" y="732.0"/>
      <point x="417.6666666666667" y="732.0" type="curve" smooth="yes"/>
      <point x="263.1666666666667" y="732.0"/>
      <point x="137.66666666666666" y="659.3333333333334"/>
      <point x="137.66666666666666" y="514.0" type="curve" smooth="yes"/>
      <point x="137.66666666666666" y="413.3333333333333"/>
      <point x="204.16666666666666" y="376.6666666666667"/>
      <point x="286.3333333333333" y="343.3333333333333" type="curve" smooth="yes"/>
      <point x="331.6666666666667" y="324.6666666666667" type="line" smooth="yes"/>
      <point x="386.6666666666667" y="302.0"/>
      <point x="413.6666666666667" y="285.3333333333333"/>
      <point x="413.6666666666667" y="236.66666666666666" type="curve" smooth="yes"/>
      <point x="413.6666666666667" y="179.66666666666666"/>
      <point x="367.1666666666667" y="141.0"/>
      <point x="290.3333333333333" y="124.0" type="curve"/>
    </contour>
    <contour>
      <point x="16.333333333333332" y="-106.0" type="line"/>
      <point x="-3.3333333333333335" y="-208.66666666666666" type="line"/>
      <point x="30.333333333333332" y="-220.66666666666666"/>
      <point x="83.66666666666667" y="-232.0"/>
      <point x="157.66666666666666" y="-232.0" type="curve" smooth="yes"/>
      <point x="312.1666666666667" y="-232.0"/>
      <point x="437.6666666666667" y="-159.33333333333334"/>
      <point x="437.6666666666667" y="-14.0" type="curve" smooth="yes"/>
      <point x="437.6666666666667" y="86.66666666666667"/>
      <point x="371.1666666666667" y="123.33333333333333"/>
      <point x="289.0" y="156.66666666666666" type="curve" smooth="yes"/>
      <point x="243.66666666666666" y="175.33333333333334" type="line" smooth="yes"/>
      <point x="188.66666666666666" y="198.0"/>
      <point x="161.66666666666666" y="214.66666666666666"/>
      <point x="161.66666666666666" y="263.3333333333333" type="curve" smooth="yes"/>
      <point x="161.66666666666666" y="320.3333333333333"/>
      <point x="208.16666666666666" y="359.0"/>
      <point x="285.0" y="376.0" type="curve"/>
      <point x="285.0" y="434.0" type="line"/>
      <point x="204.33333333333334" y="434.0" type="line"/>
      <point x="121.0" y="398.6666666666667"/>
      <point x="49.0" y="346.0"/>
      <point x="49.0" y="249.33333333333334" type="curve" smooth="yes"/>
      <point x="49.0" y="155.0"/>
      <point x="108.16666666666667" y="118.16666666666667"/>
      <point x="186.33333333333334" y="86.66666666666667" type="curve" smooth="yes"/>
      <point x="233.66666666666666" y="67.33333333333333" type="line" smooth="yes"/>
      <point x="288.1666666666667" y="45.166666666666664"/>
      <point x="323.6666666666667" y="33.333333333333336"/>
      <point x="323.6666666666667" y="-19.333333333333332" type="curve" smooth="yes"/>
      <point x="323.6666666666667" y="-93.33333333333333"/>
      <point x="259.6666666666667" y="-134.0"/>
      <point x="165.0" y="-134.0" type="curve" smooth="yes"/>
      <point x="95.66666666666667" y="-134.0"/>
      <point x="59.166666666666664" y="-122.0"/>
      <point x="25.0" y="-106.0" type="curve"/>
    </contour>
  </outline>
</glyph>
<glyph name="copyright" format="2">
  <advance width="805.3333333333334"/>
  <unicode hex="00A9"/>
  <note>
copyright
</note>
  <outline>
    <contour>
      <point x="65.33333333333333" y="360.0" type="curve" smooth="yes"/>
      <point x="65.33333333333333" y="125.33333333333333"/>
      <point x="208.0" y="-14.666666666666666"/>
      <point x="422.6666666666667" y="-14.666666666666666" type="curve" smooth="yes"/>
      <point x="637.3333333333334" y="-14.666666666666666"/>
      <point x="780.0" y="125.33333333333333"/>
      <point x="780.0" y="360.0" type="curve" smooth="yes"/>
      <point x="780.0" y="594.6666666666666"/>
      <point x="637.3333333333334" y="734.6666666666666"/>
      <point x="422.6666666666667" y="734.6666666666666" type="curve" smooth="yes"/>
      <point x="208.0" y="734.6666666666666"/>
      <point x="65.33333333333333" y="594.6666666666666"/>
    </contour>
    <contour>
      <point x="142.0" y="360.0" type="curve" smooth="yes"/>
      <point x="142.0" y="568.0"/>
      <point x="255.33333333333334" y="666.6666666666666"/>
      <point x="422.6666666666667" y="666.6666666666666" type="curve" smooth="yes"/>
      <point x="590.0" y="666.6666666666666"/>
      <point x="703.3333333333334" y="564.6666666666666"/>
      <point x="703.3333333333334" y="360.0" type="curve" smooth="yes"/>
      <point x="703.3333333333334" y="155.33333333333334"/>
      <point x="590.0" y="53.333333333333336"/>
      <point x="422.6666666666667" y="53.333333333333336" type="curve" smooth="yes"/>
      <point x="255.33333333333334" y="53.333333333333336"/>
      <point x="142.0" y="152.0"/>
    </contour>
    <contour>
      <point x="238.66666666666666" y="360.0" type="curve" smooth="yes"/>
      <point x="238.66666666666666" y="239.16666666666666"/>
      <point x="315.5" y="156.0"/>
      <point x="458.0" y="156.0" type="curve" smooth="yes"/>
      <point x="490.6666666666667" y="156.0"/>
      <point x="527.0" y="161.33333333333334"/>
      <point x="549.3333333333334" y="169.83333333333334" type="curve"/>
      <point x="549.3333333333334" y="238.66666666666666" type="line"/>
      <point x="544.6666666666666" y="238.66666666666666" type="line"/>
      <point x="523.5" y="229.33333333333334"/>
      <point x="491.6666666666667" y="223.33333333333334"/>
      <point x="459.3333333333333" y="223.33333333333334" type="curve" smooth="yes"/>
      <point x="369.5" y="223.33333333333334"/>
      <point x="318.6666666666667" y="266.3333333333333"/>
      <point x="318.6666666666667" y="360.0" type="curve" smooth="yes"/>
      <point x="318.6666666666667" y="452.6666666666667"/>
      <point x="370.6666666666667" y="496.6666666666667"/>
      <point x="459.3333333333333" y="496.6666666666667" type="curve" smooth="yes"/>
      <point x="491.6666666666667" y="496.6666666666667"/>
      <point x="523.5" y="490.6666666666667"/>
      <point x="544.6666666666666" y="481.3333333333333" type="curve"/>
      <point x="549.3333333333334" y="481.3333333333333" type="line"/>
      <point x="549.3333333333334" y="550.1666666666666" type="line"/>
      <point x="527.0" y="558.6666666666666"/>
      <point x="490.6666666666667" y="564.0"/>
      <point x="458.0" y="564.0" type="curve" smooth="yes"/>
      <point x="316.6666666666667" y="564.0"/>
      <point x="238.66666666666666" y="480.6666666666667"/>
    </contour>
  </outline>
</glyph>
<glyph name="guillemetleft" format="2">
  <advance width="581.3333333333334"/>
  <unicode hex="00AB"/>
  <note>
guillemotleft
</note>
  <outline>
    <contour>
      <point x="274.0" y="286.0" type="line"/>
      <point x="472.6666666666667" y="66.0" type="line"/>
      <point x="480.6666666666667" y="66.0" type="line"/>
      <point x="500.6666666666667" y="166.0" type="line"/>
      <point x="378.3333333333333" y="300.6666666666667" type="line"/>
      <point x="555.3333333333334" y="432.0" type="line"/>
      <point x="578.0" y="550.0" type="line"/>
      <point x="570.0" y="550.0" type="line"/>
      <point x="284.0" y="330.0" type="line"/>
    </contour>
    <contour>
      <point x="236.66666666666666" y="66.0" type="line"/>
      <point x="244.66666666666666" y="66.0" type="line"/>
      <point x="264.6666666666667" y="166.0" type="line"/>
      <point x="142.33333333333334" y="300.6666666666667" type="line"/>
      <point x="319.3333333333333" y="432.0" type="line"/>
      <point x="342.0" y="550.0" type="line"/>
      <point x="334.0" y="550.0" type="line"/>
      <point x="48.0" y="330.0" type="line"/>
      <point x="38.0" y="286.0" type="line"/>
    </contour>
  </outline>
</glyph>
<glyph name="logicalnot" format="2">
  <advance width="616.0"/>
  <unicode hex="00AC"/>
  <note>
logicalnot
</note>
  <outline>
    <contour>
      <point x="66.0" y="360.0" type="line"/>
      <point x="66.0" y="272.0" type="line"/>
      <point x="466.0" y="272.0" type="line"/>
      <point x="466.0" y="64.0" type="line"/>
      <point x="554.0" y="64.0" type="line"/>
      <point x="554.0" y="360.0" type="line"/>
    </contour>
  </outline>
</glyph>
<glyph name="registered" format="2">
  <advance width="805.3333333333334"/>
  <unicode hex="00AE"/>
  <note>
registered
</note>
  <outline>
    <contour>
      <point x="422.6666666666667" y="-14.666666666666666" type="curve" smooth="yes"/>
      <point x="637.3333333333334" y="-14.666666666666666"/>
      <point x="780.0" y="125.33333333333333"/>
      <point x="780.0" y="360.0" type="curve" smooth="yes"/>
      <point x="780.0" y="594.6666666666666"/>
      <point x="637.3333333333334" y="734.6666666666666"/>
      <point x="422.6666666666667" y="734.6666666666666" type="curve" smooth="yes"/>
      <point x="208.0" y="734.6666666666666"/>
      <point x="65.33333333333333" y="594.6666666666666"/>
      <point x="65.33333333333333" y="360.0" type="curve" smooth="yes"/>
      <point x="65.33333333333333" y="125.33333333333333"/>
      <point x="208.0" y="-14.666666666666666"/>
    </contour>
    <contour>
      <point x="275.3333333333333" y="168.0" type="line"/>
      <point x="349.6666666666667" y="168.0" type="line"/>
      <point x="349.6666666666667" y="561.6666666666666" type="line"/>
      <point x="275.3333333333333" y="561.6666666666666" type="line"/>
      <point x="275.3333333333333" y="472.0" type="line"/>
    </contour>
    <contour>
      <point x="532.0" y="168.0" type="line"/>
      <point x="613.3333333333334" y="168.0" type="line"/>
      <point x="613.3333333333334" y="176.0" type="line"/>
      <point x="479.6666666666667" y="334.0" type="line"/>
      <point x="410.6666666666667" y="314.0" type="line"/>
    </contour>
    <contour>
      <point x="422.6666666666667" y="53.333333333333336" type="curve" smooth="yes"/>
      <point x="255.33333333333334" y="53.333333333333336"/>
      <point x="142.0" y="152.0"/>
      <point x="142.0" y="360.0" type="curve" smooth="yes"/>
      <point x="142.0" y="568.0"/>
      <point x="255.33333333333334" y="666.6666666666666"/>
      <point x="422.6666666666667" y="666.6666666666666" type="curve" smooth="yes"/>
      <point x="590.0" y="666.6666666666666"/>
      <point x="703.3333333333334" y="564.6666666666666"/>
      <point x="703.3333333333334" y="360.0" type="curve" smooth="yes"/>
      <point x="703.3333333333334" y="155.33333333333334"/>
      <point x="590.0" y="53.333333333333336"/>
    </contour>
    <contour>
      <point x="314.3333333333333" y="274.6666666666667" type="line"/>
      <point x="417.0" y="274.6666666666667" type="line" smooth="yes"/>
      <point x="533.3333333333334" y="274.6666666666667"/>
      <point x="586.6666666666666" y="353.1666666666667"/>
      <point x="586.6666666666666" y="432.6666666666667" type="curve" smooth="yes"/>
      <point x="586.6666666666666" y="517.1666666666666"/>
      <point x="538.0" y="561.6666666666666"/>
      <point x="439.3333333333333" y="561.6666666666666" type="curve" smooth="yes"/>
      <point x="314.3333333333333" y="561.6666666666666" type="line"/>
      <point x="314.3333333333333" y="500.0" type="line"/>
      <point x="435.6666666666667" y="500.0" type="line" smooth="yes"/>
      <point x="483.5" y="500.0"/>
      <point x="512.3333333333334" y="482.1666666666667"/>
      <point x="512.3333333333334" y="432.5" type="curve" smooth="yes"/>
      <point x="512.3333333333334" y="379.3333333333333"/>
      <point x="482.1666666666667" y="334.0"/>
      <point x="416.3333333333333" y="334.0" type="curve" smooth="yes"/>
      <point x="314.3333333333333" y="334.0" type="line"/>
    </contour>
  </outline>
</glyph>
<glyph name="degree" format="2">
  <advance width="398.6666666666667"/>
  <unicode hex="00B0"/>
  <note>
degree
</note>
  <outline>
    <contour>
      <point x="267.6666666666667" y="476.6666666666667" type="curve" smooth="yes"/>
      <point x="345.6666666666667" y="476.6666666666667"/>
      <point x="407.0" y="526.0"/>
      <point x="407.0" y="608.0" type="curve" smooth="yes"/>
      <point x="407.0" y="690.0"/>
      <point x="345.6666666666667" y="739.3333333333334"/>
      <point x="267.6666666666667" y="739.3333333333334" type="curve" smooth="yes"/>
      <point x="189.66666666666666" y="739.3333333333334"/>
      <point x="128.33333333333334" y="690.0"/>
      <point x="128.33333333333334" y="608.0" type="curve" smooth="yes"/>
      <point x="128.33333333333334" y="526.0"/>
      <point x="189.66666666666666" y="476.6666666666667"/>
    </contour>
    <contour>
      <point x="267.6666666666667" y="534.0" type="curve" smooth="yes"/>
      <point x="223.33333333333334" y="534.0"/>
      <point x="193.66666666666666" y="561.3333333333334"/>
      <point x="193.66666666666666" y="608.0" type="curve" smooth="yes"/>
      <point x="193.66666666666666" y="654.6666666666666"/>
      <point x="223.33333333333334" y="682.0"/>
      <point x="267.6666666666667" y="682.0" type="curve" smooth="yes"/>
      <point x="312.0" y="682.0"/>
      <point x="341.6666666666667" y="654.6666666666666"/>
      <point x="341.6666666666667" y="608.0" type="curve" smooth="yes"/>
      <point x="341.6666666666667" y="561.3333333333334"/>
      <point x="312.0" y="534.0"/>
    </contour>
  </outline>
</glyph>
<glyph name="plusminus" format="2">
  <advance width="616.0"/>
  <unicode hex="00B1"/>
  <note>
plusminus
</note>
  <outline>
    <contour>
      <point x="266.0" y="164.0" type="line"/>
      <point x="354.0" y="164.0" type="line"/>
      <point x="354.0" y="652.0" type="line"/>
      <point x="266.0" y="652.0" type="line"/>
    </contour>
    <contour>
      <point x="66.0" y="0.0" type="line"/>
      <point x="554.0" y="0.0" type="line"/>
      <point x="554.0" y="88.0" type="line"/>
      <point x="66.0" y="88.0" type="line"/>
    </contour>
    <contour>
      <point x="66.0" y="364.0" type="line"/>
      <point x="554.0" y="364.0" type="line"/>
      <point x="554.0" y="452.0" type="line"/>
      <point x="66.0" y="452.0" type="line"/>
    </contour>
  </outline>
</glyph>
<glyph name="paragraph" format="2">
  <advance width="695.3333333333334"/>
  <unicode hex="00B6"/>
  <note>
paragraph
</note>
  <outline>
    <contour>
      <point x="292.6666666666667" y="248.0" type="curve" smooth="yes"/>
      <point x="308.3333333333333" y="248.0" type="line"/>
      <point x="212.66666666666666" y="-251.33333333333334" type="line"/>
      <point x="306.6666666666667" y="-251.33333333333334" type="line"/>
      <point x="476.8333333333333" y="632.0" type="line"/>
      <point x="584.8333333333334" y="632.0" type="line"/>
      <point x="414.6666666666667" y="-251.33333333333334" type="line"/>
      <point x="507.3333333333333" y="-251.33333333333334" type="line"/>
      <point x="694.6666666666666" y="720.0" type="line"/>
      <point x="376.8333333333333" y="720.0" type="line" smooth="yes"/>
      <point x="235.33333333333334" y="720.0"/>
      <point x="96.0" y="617.1666666666666"/>
      <point x="96.0" y="441.3333333333333" type="curve" smooth="yes"/>
      <point x="96.0" y="312.5"/>
      <point x="181.5" y="248.0"/>
    </contour>
  </outline>
</glyph>
<glyph name="periodcentered" format="2">
  <advance width="280.6666666666667"/>
  <unicode hex="00B7"/>
  <note>
periodcentered
</note>
  <outline>
    <contour>
      <point x="151.33333333333334" y="293.3333333333333" type="curve" smooth="yes"/>
      <point x="198.33333333333334" y="293.3333333333333"/>
      <point x="231.66666666666666" y="335.3333333333333"/>
      <point x="231.66666666666666" y="378.6666666666667" type="curve" smooth="yes"/>
      <point x="231.66666666666666" y="414.0"/>
      <point x="208.5" y="436.6666666666667"/>
      <point x="170.66666666666666" y="436.6666666666667" type="curve" smooth="yes"/>
      <point x="121.83333333333333" y="436.6666666666667"/>
      <point x="90.33333333333333" y="394.6666666666667"/>
      <point x="90.33333333333333" y="351.3333333333333" type="curve" smooth="yes"/>
      <point x="90.33333333333333" y="316.0"/>
      <point x="111.83333333333333" y="293.3333333333333"/>
    </contour>
  </outline>
</glyph>
<glyph name="guillemetright" format="2">
  <advance width="581.1666666666666"/>
  <unicode hex="00BB"/>
  <note>
guillemotright
</note>
  <outline>
    <contour>
      <point x="253.16666666666666" y="66.0" type="line"/>
      <point x="261.1666666666667" y="66.0" type="line"/>
      <point x="547.1666666666666" y="286.0" type="line"/>
      <point x="557.1666666666666" y="330.0" type="line"/>
      <point x="358.5" y="550.0" type="line"/>
      <point x="350.5" y="550.0" type="line"/>
      <point x="330.5" y="450.0" type="line"/>
      <point x="452.8333333333333" y="315.3333333333333" type="line"/>
      <point x="275.8333333333333" y="184.0" type="line"/>
    </contour>
    <contour>
      <point x="17.166666666666668" y="66.0" type="line"/>
      <point x="25.166666666666668" y="66.0" type="line"/>
      <point x="311.1666666666667" y="286.0" type="line"/>
      <point x="321.1666666666667" y="330.0" type="line"/>
      <point x="122.5" y="550.0" type="line"/>
      <point x="114.5" y="550.0" type="line"/>
      <point x="94.5" y="450.0" type="line"/>
      <point x="216.83333333333334" y="315.3333333333333" type="line"/>
      <point x="39.833333333333336" y="184.0" type="line"/>
    </contour>
  </outline>
</glyph>
<glyph name="questiondown" format="2">
  <advance width="501.3333333333333"/>
  <unicode hex="00BF"/>
  <note>
questiondown
</note>
  <outline>
    <contour>
      <point x="334.6666666666667" y="400.3333333333333" type="curve" smooth="yes"/>
      <point x="383.3333333333333" y="400.3333333333333"/>
      <point x="415.0" y="443.0"/>
      <point x="415.0" y="485.0" type="curve" smooth="yes"/>
      <point x="415.0" y="521.6666666666666"/>
      <point x="393.3333333333333" y="543.6666666666666"/>
      <point x="354.0" y="543.6666666666666" type="curve" smooth="yes"/>
      <point x="307.0" y="543.6666666666666"/>
      <point x="273.6666666666667" y="501.0"/>
      <point x="273.6666666666667" y="459.0" type="curve" smooth="yes"/>
      <point x="273.6666666666667" y="422.3333333333333"/>
      <point x="297.0" y="400.3333333333333"/>
    </contour>
    <contour>
      <point x="-11.333333333333332" y="-30.333333333333332" type="curve" smooth="yes"/>
      <point x="-11.333333333333332" y="-139.0"/>
      <point x="60.5" y="-197.0"/>
      <point x="195.33333333333334" y="-197.0" type="curve" smooth="yes"/>
      <point x="249.33333333333334" y="-197.0"/>
      <point x="304.6666666666667" y="-188.33333333333334"/>
      <point x="367.3333333333333" y="-161.66666666666666" type="curve"/>
      <point x="386.0" y="-61.66666666666667" type="line"/>
      <point x="377.3333333333333" y="-61.66666666666667" type="line"/>
      <point x="324.8333333333333" y="-88.33333333333333"/>
      <point x="277.3333333333333" y="-101.0"/>
      <point x="213.33333333333334" y="-101.0" type="curve" smooth="yes"/>
      <point x="146.16666666666666" y="-101.0"/>
      <point x="107.33333333333333" y="-75.5"/>
      <point x="107.33333333333333" y="-20.333333333333332" type="curve" smooth="yes"/>
      <point x="107.33333333333333" y="43.833333333333336"/>
      <point x="165.16666666666666" y="80.0"/>
      <point x="203.33333333333334" y="100.33333333333333" type="curve" smooth="yes"/>
      <point x="266.0" y="133.66666666666666" type="line" smooth="yes"/>
      <point x="326.0" y="165.83333333333334"/>
      <point x="350.1666666666667" y="213.0"/>
      <point x="361.3333333333333" y="270.3333333333333" type="curve" smooth="yes"/>
      <point x="375.3333333333333" y="336.3333333333333" type="line"/>
      <point x="267.3333333333333" y="336.3333333333333" type="line"/>
      <point x="253.33333333333334" y="274.3333333333333" type="line" smooth="yes"/>
      <point x="247.5" y="248.33333333333334"/>
      <point x="239.0" y="220.16666666666666"/>
      <point x="204.66666666666666" y="201.66666666666666" type="curve" smooth="yes"/>
      <point x="156.66666666666666" y="175.66666666666666" type="line" smooth="yes"/>
      <point x="112.16666666666667" y="151.66666666666666"/>
      <point x="-11.333333333333332" y="93.33333333333333"/>
    </contour>
  </outline>
</glyph>
<glyph name="AE" format="2">
  <advance width="995.0"/>
  <unicode hex="00C6"/>
  <note>
AE
</note>
  <anchor x="439.5" y="0.0" name="bottom"/>
  <anchor x="592.5" y="720.0" name="top"/>
  <outline>
    <contour>
      <point x="-5.166666666666666" y="0.0" type="line"/>
      <point x="114.16666666666666" y="0.0" type="line"/>
      <point x="283.1666666666667" y="476.6666666666667" type="line" smooth="yes"/>
      <point x="317.8333333333333" y="573.8333333333334"/>
      <point x="370.8333333333333" y="628.6666666666666"/>
      <point x="493.5" y="628.6666666666666" type="curve" smooth="yes"/>
      <point x="521.0" y="628.6666666666666"/>
      <point x="550.6666666666666" y="624.8333333333334"/>
      <point x="563.3333333333334" y="617.3333333333334" type="curve"/>
      <point x="555.6666666666666" y="648.3333333333334" type="line"/>
      <point x="543.5" y="629.1666666666666"/>
      <point x="536.8333333333334" y="603.5"/>
      <point x="532.1666666666666" y="578.0" type="curve" smooth="yes"/>
      <point x="419.5" y="0.0" type="line"/>
      <point x="534.8333333333334" y="0.0" type="line"/>
      <point x="642.8333333333334" y="555.3333333333334" type="line" smooth="yes"/>
      <point x="650.8333333333334" y="595.3333333333334"/>
      <point x="661.6666666666666" y="658.6666666666666"/>
      <point x="676.0" y="698.0" type="curve"/>
      <point x="674.6666666666666" y="710.0" type="line"/>
      <point x="623.8333333333334" y="722.6666666666666"/>
      <point x="574.8333333333334" y="728.0"/>
      <point x="522.1666666666666" y="728.0" type="curve" smooth="yes"/>
      <point x="325.5" y="728.0"/>
      <point x="229.0" y="656.3333333333334"/>
      <point x="167.83333333333334" y="484.6666666666667" type="curve" smooth="yes"/>
    </contour>
    <contour>
      <point x="161.33333333333334" y="211.33333333333334" type="line"/>
      <point x="485.3333333333333" y="211.33333333333334" type="line"/>
      <point x="504.0" y="309.3333333333333" type="line"/>
      <point x="192.66666666666666" y="309.3333333333333" type="line"/>
    </contour>
    <contour>
      <point x="496.0" y="0.0" type="line"/>
      <point x="890.0" y="0.0" type="line"/>
      <point x="909.0" y="100.66666666666666" type="line"/>
      <point x="515.3333333333334" y="100.66666666666666" type="line"/>
    </contour>
    <contour>
      <point x="562.0" y="324.6666666666667" type="line"/>
      <point x="889.3333333333334" y="324.6666666666667" type="line"/>
      <point x="908.0" y="423.3333333333333" type="line"/>
      <point x="580.6666666666666" y="423.3333333333333" type="line"/>
    </contour>
    <contour>
      <point x="590.0" y="619.3333333333334" type="line"/>
      <point x="999.6666666666666" y="619.3333333333334" type="line"/>
      <point x="1018.6666666666666" y="720.0" type="line"/>
      <point x="609.3333333333334" y="720.0" type="line"/>
    </contour>
  </outline>
</glyph>
<glyph name="multiply" format="2">
  <advance width="616.0"/>
  <unicode hex="00D7"/>
  <note>
multiply
</note>
  <outline>
    <contour>
      <point x="159.83333333333334" y="104.16666666666667" type="line"/>
      <point x="521.8333333333334" y="466.1666666666667" type="line"/>
      <point x="460.1666666666667" y="527.8333333333334" type="line"/>
      <point x="98.16666666666667" y="165.83333333333334" type="line"/>
    </contour>
    <contour>
      <point x="460.1666666666667" y="104.16666666666667" type="line"/>
      <point x="521.8333333333334" y="165.83333333333334" type="line"/>
      <point x="159.83333333333334" y="527.8333333333334" type="line"/>
      <point x="98.16666666666667" y="466.1666666666667" type="line"/>
    </contour>
  </outline>
</glyph>
<glyph name="Thorn" format="2">
  <advance width="613.0"/>
  <unicode hex="00DE"/>
  <note>
Thorn
</note>
  <outline>
    <contour>
      <point x="236.0" y="610.0" type="line"/>
      <point x="217.33333333333334" y="510.6666666666667" type="line"/>
      <point x="379.3333333333333" y="510.6666666666667" type="line" smooth="yes"/>
      <point x="444.6666666666667" y="510.6666666666667"/>
      <point x="484.0" y="480.0"/>
      <point x="484.0" y="407.3333333333333" type="curve" smooth="yes"/>
      <point x="484.0" y="306.0"/>
      <point x="422.6666666666667" y="214.66666666666666"/>
      <point x="293.3333333333333" y="214.66666666666666" type="curve" smooth="yes"/>
      <point x="156.66666666666666" y="214.66666666666666" type="line"/>
      <point x="138.0" y="116.66666666666667" type="line"/>
      <point x="293.3333333333333" y="116.66666666666667" type="line" smooth="yes"/>
      <point x="507.3333333333333" y="116.66666666666667"/>
      <point x="602.6666666666666" y="277.3333333333333"/>
      <point x="602.6666666666666" y="410.0" type="curve" smooth="yes"/>
      <point x="602.6666666666666" y="540.6666666666666"/>
      <point x="522.0" y="610.0"/>
      <point x="378.6666666666667" y="610.0" type="curve" smooth="yes"/>
    </contour>
    <contour>
      <point x="180.0" y="720.0" type="line"/>
      <point x="40.0" y="0.0" type="line"/>
      <point x="155.33333333333334" y="0.0" type="line"/>
      <point x="295.3333333333333" y="720.0" type="line"/>
    </contour>
  </outline>
</glyph>
<glyph name="germandbls" format="2">
  <advance width="612.0"/>
  <unicode hex="00DF"/>
  <note>
germandbls
</note>
  <outline>
    <contour>
      <point x="361.6666666666667" y="-8.0" type="curve" smooth="yes"/>
      <point x="476.0" y="-8.0"/>
      <point x="562.0" y="48.0"/>
      <point x="562.0" y="164.66666666666666" type="curve" smooth="yes"/>
      <point x="562.0" y="220.66666666666666"/>
      <point x="532.1666666666666" y="258.6666666666667"/>
      <point x="505.3333333333333" y="286.6666666666667" type="curve" smooth="yes"/>
      <point x="493.3333333333333" y="299.3333333333333" type="line" smooth="yes"/>
      <point x="473.8333333333333" y="319.8333333333333"/>
      <point x="455.6666666666667" y="335.3333333333333"/>
      <point x="455.6666666666667" y="369.3333333333333" type="curve" smooth="yes"/>
      <point x="455.6666666666667" y="408.6666666666667"/>
      <point x="485.8333333333333" y="436.8333333333333"/>
      <point x="516.0" y="471.3333333333333" type="curve" smooth="yes"/>
      <point x="546.0" y="506.1666666666667"/>
      <point x="575.6666666666666" y="548.0"/>
      <point x="575.6666666666666" y="610.6666666666666" type="curve" smooth="yes"/>
      <point x="575.6666666666666" y="701.3333333333334"/>
      <point x="511.3333333333333" y="762.6666666666666"/>
      <point x="402.0" y="762.6666666666666" type="curve" smooth="yes"/>
      <point x="264.6666666666667" y="762.6666666666666"/>
      <point x="185.33333333333334" y="694.0"/>
      <point x="156.0" y="539.3333333333334" type="curve" smooth="yes"/>
      <point x="52.0" y="0.0" type="line"/>
      <point x="164.0" y="0.0" type="line"/>
      <point x="271.3333333333333" y="552.6666666666666" type="line" smooth="yes"/>
      <point x="286.6666666666667" y="632.6666666666666"/>
      <point x="323.3333333333333" y="670.6666666666666"/>
      <point x="391.3333333333333" y="670.6666666666666" type="curve" smooth="yes"/>
      <point x="449.3333333333333" y="670.6666666666666"/>
      <point x="470.6666666666667" y="642.6666666666666"/>
      <point x="470.6666666666667" y="601.3333333333334" type="curve" smooth="yes"/>
      <point x="470.6666666666667" y="559.3333333333334"/>
      <point x="443.0" y="525.3333333333334"/>
      <point x="414.6666666666667" y="492.6666666666667" type="curve" smooth="yes"/>
      <point x="382.5" y="455.8333333333333"/>
      <point x="350.0" y="417.3333333333333"/>
      <point x="350.0" y="360.6666666666667" type="curve" smooth="yes"/>
      <point x="350.0" y="307.3333333333333"/>
      <point x="378.8333333333333" y="276.5"/>
      <point x="403.0" y="251.33333333333334" type="curve" smooth="yes"/>
      <point x="415.0" y="238.66666666666666" type="line" smooth="yes"/>
      <point x="435.0" y="218.16666666666666"/>
      <point x="455.3333333333333" y="201.33333333333334"/>
      <point x="455.3333333333333" y="163.33333333333334" type="curve" smooth="yes"/>
      <point x="455.3333333333333" y="108.66666666666667"/>
      <point x="422.6666666666667" y="81.33333333333333"/>
      <point x="358.6666666666667" y="81.33333333333333" type="curve" smooth="yes"/>
      <point x="320.6666666666667" y="81.33333333333333"/>
      <point x="297.0" y="91.0"/>
      <point x="279.3333333333333" y="100.66666666666667" type="curve"/>
      <point x="270.6666666666667" y="100.66666666666667" type="line"/>
      <point x="252.0" y="8.0" type="line"/>
      <point x="284.0" y="-1.0"/>
      <point x="313.0" y="-8.0"/>
    </contour>
    <contour>
      <point x="55.333333333333336" y="451.3333333333333" type="line"/>
      <point x="168.0" y="451.3333333333333" type="line"/>
      <point x="186.66666666666666" y="544.6666666666666" type="line"/>
      <point x="74.0" y="544.6666666666666" type="line"/>
    </contour>
  </outline>
</glyph>
<glyph name="ae" format="2">
  <advance width="958.8333333333334"/>
  <unicode hex="00E6"/>
  <note>
ae
</note>
  <anchor x="426.8333333333333" y="0.0" name="bottom"/>
  <anchor x="532.8333333333334" y="544.6666666666666" name="top"/>
  <outline>
    <contour>
      <point x="667.3333333333334" y="-8.666666666666666" type="curve" smooth="yes"/>
      <point x="730.6666666666666" y="-8.666666666666666"/>
      <point x="789.3333333333334" y="2.666666666666667"/>
      <point x="824.0" y="18.666666666666668" type="curve"/>
      <point x="842.6666666666666" y="115.33333333333333" type="line"/>
      <point x="834.0" y="115.33333333333333" type="line"/>
      <point x="802.8333333333334" y="99.33333333333333"/>
      <point x="745.3333333333334" y="84.0"/>
      <point x="680.0" y="84.0" type="curve" smooth="yes"/>
      <point x="578.6666666666666" y="84.0"/>
      <point x="515.0" y="128.66666666666666"/>
      <point x="515.0" y="225.33333333333334" type="curve" smooth="yes"/>
      <point x="515.0" y="244.0" type="line" smooth="yes"/>
      <point x="515.0" y="354.6666666666667"/>
      <point x="584.0" y="467.3333333333333"/>
      <point x="700.6666666666666" y="467.3333333333333" type="curve" smooth="yes"/>
      <point x="781.3333333333334" y="467.3333333333333"/>
      <point x="813.6666666666666" y="426.6666666666667"/>
      <point x="813.6666666666666" y="360.6666666666667" type="curve" smooth="yes"/>
      <point x="813.6666666666666" y="350.3333333333333"/>
      <point x="811.6666666666666" y="333.6666666666667"/>
      <point x="808.0" y="318.6666666666667" type="curve"/>
      <point x="476.6666666666667" y="318.6666666666667" type="line"/>
      <point x="476.6666666666667" y="236.66666666666666" type="line"/>
      <point x="904.0" y="236.66666666666666" type="line"/>
      <point x="914.3333333333334" y="274.0"/>
      <point x="924.0" y="318.6666666666667"/>
      <point x="924.0" y="362.0" type="curve" smooth="yes"/>
      <point x="924.0" y="476.6666666666667"/>
      <point x="852.0" y="557.3333333333334"/>
      <point x="705.3333333333334" y="557.3333333333334" type="curve" smooth="yes"/>
      <point x="520.1666666666666" y="557.3333333333334"/>
      <point x="406.3333333333333" y="400.0"/>
      <point x="406.3333333333333" y="222.66666666666666" type="curve" smooth="yes"/>
      <point x="406.3333333333333" y="72.0"/>
      <point x="499.5" y="-8.666666666666666"/>
    </contour>
    <contour>
      <point x="257.3333333333333" y="-12.0" type="curve" smooth="yes"/>
      <point x="362.0" y="-12.0"/>
      <point x="426.0" y="16.666666666666668"/>
      <point x="500.6666666666667" y="67.33333333333333" type="curve"/>
      <point x="477.3333333333333" y="133.33333333333334" type="line"/>
      <point x="446.6666666666667" y="136.66666666666666" type="line"/>
      <point x="392.0" y="94.66666666666667"/>
      <point x="332.0" y="73.33333333333333"/>
      <point x="262.0" y="73.33333333333333" type="curve" smooth="yes"/>
      <point x="194.0" y="73.33333333333333"/>
      <point x="146.0" y="95.0"/>
      <point x="146.0" y="151.0" type="curve" smooth="yes"/>
      <point x="146.0" y="220.33333333333334"/>
      <point x="202.0" y="250.0"/>
      <point x="296.6666666666667" y="250.0" type="curve" smooth="yes"/>
      <point x="352.6666666666667" y="250.0"/>
      <point x="385.3333333333333" y="239.33333333333334"/>
      <point x="419.3333333333333" y="224.66666666666666" type="curve"/>
      <point x="446.6666666666667" y="224.66666666666666" type="line"/>
      <point x="446.6666666666667" y="310.6666666666667" type="line"/>
      <point x="421.3333333333333" y="310.6666666666667" type="line"/>
      <point x="403.8333333333333" y="316.6666666666667"/>
      <point x="358.0" y="332.6666666666667"/>
      <point x="292.0" y="332.6666666666667" type="curve" smooth="yes"/>
      <point x="153.33333333333334" y="332.6666666666667"/>
      <point x="37.333333333333336" y="277.3333333333333"/>
      <point x="37.333333333333336" y="145.33333333333334" type="curve" smooth="yes"/>
      <point x="37.333333333333336" y="41.333333333333336"/>
      <point x="115.33333333333333" y="-12.0"/>
    </contour>
    <contour>
      <point x="407.3333333333333" y="276.0" type="line"/>
      <point x="532.0" y="392.6666666666667" type="line"/>
      <point x="532.0" y="498.0"/>
      <point x="458.0" y="557.3333333333334"/>
      <point x="312.6666666666667" y="557.3333333333334" type="curve" smooth="yes"/>
      <point x="249.33333333333334" y="557.3333333333334"/>
      <point x="202.0" y="547.6666666666666"/>
      <point x="150.33333333333334" y="530.6666666666666" type="curve"/>
      <point x="132.0" y="434.6666666666667" type="line"/>
      <point x="144.0" y="434.6666666666667" type="line"/>
      <point x="179.66666666666666" y="450.3333333333333"/>
      <point x="232.0" y="465.3333333333333"/>
      <point x="292.0" y="465.3333333333333" type="curve" smooth="yes"/>
      <point x="402.6666666666667" y="465.3333333333333"/>
      <point x="443.0" y="424.8333333333333"/>
      <point x="416.5" y="321.3333333333333" type="curve"/>
    </contour>
  </outline>
</glyph>
